solid OpenSCAD_Model
  facet normal 0 -0 -1
    outer loop
      vertex 171.224 47.625 0.05
      vertex 213.632 9.13477 0.05
      vertex 163.144 44.79 0.05
    endloop
  endfacet
  facet normal 0 0 -1
    outer loop
      vertex 109.282 64.209 0.05
      vertex 90.0059 78.0996 0.05
      vertex 110.842 65.9092 0.05
    endloop
  endfacet
  facet normal -0 0 -1
    outer loop
      vertex 195.319 97.5176 0.05
      vertex 193.052 93.9746 0.05
      vertex 172.641 97.6592 0.05
    endloop
  endfacet
  facet normal 0 0 -1
    outer loop
      vertex 90.0059 78.0996 0.05
      vertex 135.362 83.0605 0.05
      vertex 110.842 65.9092 0.05
    endloop
  endfacet
  facet normal 0 0 -1
    outer loop
      vertex 151.663 71.5791 0.05
      vertex 172.641 97.6592 0.05
      vertex 169.381 76.54 0.05
    endloop
  endfacet
  facet normal -0 0 -1
    outer loop
      vertex 193.052 93.9746 0.05
      vertex 190.217 88.8721 0.05
      vertex 172.641 97.6592 0.05
    endloop
  endfacet
  facet normal 0 0 -1
    outer loop
      vertex 172.641 97.6592 0.05
      vertex 190.217 88.8721 0.05
      vertex 181.854 81.6426 0.05
    endloop
  endfacet
  facet normal 0 -0 -1
    outer loop
      vertex 172.641 97.6592 0.05
      vertex 181.854 81.6426 0.05
      vertex 169.381 76.54 0.05
    endloop
  endfacet
  facet normal 0 0 -1
    outer loop
      vertex 135.362 83.0605 0.05
      vertex 172.641 97.6592 0.05
      vertex 151.663 71.5791 0.05
    endloop
  endfacet
  facet normal 0 0 -1
    outer loop
      vertex 135.646 69.0283 0.05
      vertex 135.362 83.0605 0.05
      vertex 151.663 71.5791 0.05
    endloop
  endfacet
  facet normal -0 0 -1
    outer loop
      vertex 135.646 69.0283 0.05
      vertex 122.606 67.3271 0.05
      vertex 135.362 83.0605 0.05
    endloop
  endfacet
  facet normal 0 0 -1
    outer loop
      vertex 135.362 83.0605 0.05
      vertex 122.606 67.3271 0.05
      vertex 119.487 66.9014 0.05
    endloop
  endfacet
  facet normal 0 0 -1
    outer loop
      vertex 95.3916 61.9404 0.05
      vertex 90.0059 78.0996 0.05
      vertex 109.282 64.209 0.05
    endloop
  endfacet
  facet normal -0 0 -1
    outer loop
      vertex 95.3916 61.9404 0.05
      vertex 76.2568 61.5156 0.05
      vertex 90.0059 78.0996 0.05
    endloop
  endfacet
  facet normal 0 0 -1
    outer loop
      vertex 110.842 65.9092 0.05
      vertex 135.362 83.0605 0.05
      vertex 119.487 66.9014 0.05
    endloop
  endfacet
  facet normal -0 0 -1
    outer loop
      vertex 90.0059 78.0996 0.05
      vertex 53.2949 66.9014 0.05
      vertex 45.2158 83.9111 0.05
    endloop
  endfacet
  facet normal 0 0 -1
    outer loop
      vertex 2.12598 87.5957 0.05
      vertex 2.09766 98.4316 0.05
      vertex 9.21289 85.3281 0.05
    endloop
  endfacet
  facet normal 0 0 -1
    outer loop
      vertex 5.10254 85.0449 0.05
      vertex 2.12598 87.5957 0.05
      vertex 9.21289 85.3281 0.05
    endloop
  endfacet
  facet normal 0 0 -1
    outer loop
      vertex 27.9229 76.9658 0.05
      vertex 16.4424 82.21 0.05
      vertex 24.3799 90.4307 0.05
    endloop
  endfacet
  facet normal 0 0 -1
    outer loop
      vertex 45.2158 83.9111 0.05
      vertex 37.1357 71.8623 0.05
      vertex 27.9229 76.9658 0.05
    endloop
  endfacet
  facet normal 0 0 -1
    outer loop
      vertex 16.4424 82.21 0.05
      vertex 9.21289 85.3281 0.05
      vertex 24.3799 90.4307 0.05
    endloop
  endfacet
  facet normal 0 0 -1
    outer loop
      vertex 9.21289 85.3281 0.05
      vertex 2.09766 98.4316 0.05
      vertex 24.3799 90.4307 0.05
    endloop
  endfacet
  facet normal 0 0 -1
    outer loop
      vertex 27.9229 76.9658 0.05
      vertex 24.3799 90.4307 0.05
      vertex 45.2158 83.9111 0.05
    endloop
  endfacet
  facet normal 0 -0 -1
    outer loop
      vertex 45.2158 83.9111 0.05
      vertex 53.2949 66.9014 0.05
      vertex 37.1357 71.8623 0.05
    endloop
  endfacet
  facet normal 0 0 -1
    outer loop
      vertex 90.0059 78.0996 0.05
      vertex 76.2568 61.5156 0.05
      vertex 53.2949 66.9014 0.05
    endloop
  endfacet
  facet normal 0 -0 -1
    outer loop
      vertex 156.907 41.8135 0.05
      vertex 213.632 9.13477 0.05
      vertex 135.788 35.2939 0.05
    endloop
  endfacet
  facet normal 0 0 -1
    outer loop
      vertex 212.753 91.4229 0.05
      vertex 213.632 98.4316 0.05
      vertex 213.632 9.13477 0.05
    endloop
  endfacet
  facet normal 0 -0 -1
    outer loop
      vertex 210.485 86.0371 0.05
      vertex 212.753 91.4229 0.05
      vertex 207.935 77.5322 0.05
    endloop
  endfacet
  facet normal 0 0 -1
    outer loop
      vertex 207.935 77.5322 0.05
      vertex 212.753 91.4229 0.05
      vertex 213.632 9.13477 0.05
    endloop
  endfacet
  facet normal 0 0 -1
    outer loop
      vertex 202.689 72.0049 0.05
      vertex 207.935 77.5322 0.05
      vertex 213.632 9.13477 0.05
    endloop
  endfacet
  facet normal 0 -0 -1
    outer loop
      vertex 194.469 67.752 0.05
      vertex 202.689 72.0049 0.05
      vertex 185.681 54.8535 0.05
    endloop
  endfacet
  facet normal 0 0 -1
    outer loop
      vertex 185.681 54.8535 0.05
      vertex 202.689 72.0049 0.05
      vertex 213.632 9.13477 0.05
    endloop
  endfacet
  facet normal 0 -0 -1
    outer loop
      vertex 181.003 53.8613 0.05
      vertex 185.681 54.8535 0.05
      vertex 171.224 47.625 0.05
    endloop
  endfacet
  facet normal 0 0 -1
    outer loop
      vertex 171.224 47.625 0.05
      vertex 185.681 54.8535 0.05
      vertex 213.632 9.13477 0.05
    endloop
  endfacet
  facet normal 0 0 -1
    outer loop
      vertex 213.632 9.13477 0.05
      vertex 156.907 41.8135 0.05
      vertex 163.144 44.79 0.05
    endloop
  endfacet
  facet normal 0 -0 -1
    outer loop
      vertex 132.386 37.7031 0.05
      vertex 135.788 35.2939 0.05
      vertex 131.678 34.7266 0.05
    endloop
  endfacet
  facet normal 0 0 -1
    outer loop
      vertex 135.788 35.2939 0.05
      vertex 114.952 30.4746 0.05
      vertex 131.678 34.7266 0.05
    endloop
  endfacet
  facet normal 0 -0 -1
    outer loop
      vertex 135.788 35.2939 0.05
      vertex 213.632 9.13477 0.05
      vertex 114.952 30.4746 0.05
    endloop
  endfacet
  facet normal 0 -0 -1
    outer loop
      vertex 114.952 30.4746 0.05
      vertex 213.632 9.13477 0.05
      vertex 93.124 28.2061 0.05
    endloop
  endfacet
  facet normal -0 0 -1
    outer loop
      vertex 93.124 28.2061 0.05
      vertex 2.09766 9.13477 0.05
      vertex 76.2568 29.7656 0.05
    endloop
  endfacet
  facet normal 0 -0 -1
    outer loop
      vertex 93.124 28.2061 0.05
      vertex 213.632 9.13477 0.05
      vertex 2.09766 9.13477 0.05
    endloop
  endfacet
  facet normal 0 0 -1
    outer loop
      vertex 2.09766 9.13477 0.05
      vertex 21.4033 42.2393 0.05
      vertex 42.6641 38.6953 0.05
    endloop
  endfacet
  facet normal 0 0 -1
    outer loop
      vertex 2.09766 9.13477 0.05
      vertex 15.4502 39.9707 0.05
      vertex 21.4033 42.2393 0.05
    endloop
  endfacet
  facet normal -0 0 -1
    outer loop
      vertex 52.1611 35.8604 0.05
      vertex 2.09766 9.13477 0.05
      vertex 42.6641 38.6953 0.05
    endloop
  endfacet
  facet normal 0 -0 -1
    outer loop
      vertex 52.1611 35.8604 0.05
      vertex 76.2568 29.7656 0.05
      vertex 2.09766 9.13477 0.05
    endloop
  endfacet
  facet normal 0 -0 -1
    outer loop
      vertex 8.78809 41.8135 0.05
      vertex 15.4502 39.9707 0.05
      vertex 2.09766 9.13477 0.05
    endloop
  endfacet
  facet normal 0 0 -1
    outer loop
      vertex 1.98438 44.79 0.05
      vertex 8.78809 41.8135 0.05
      vertex 2.09766 9.13477 0.05
    endloop
  endfacet
  facet normal -0 0 1
    outer loop
      vertex 163.144 44.79 1.05
      vertex 213.632 9.13477 1.05
      vertex 171.224 47.625 1.05
    endloop
  endfacet
  facet normal 0 0 1
    outer loop
      vertex 110.842 65.9092 1.05
      vertex 90.0059 78.0996 1.05
      vertex 109.282 64.209 1.05
    endloop
  endfacet
  facet normal 0 0 1
    outer loop
      vertex 172.641 97.6592 1.05
      vertex 193.052 93.9746 1.05
      vertex 195.319 97.5176 1.05
    endloop
  endfacet
  facet normal 0 -0 1
    outer loop
      vertex 110.842 65.9092 1.05
      vertex 135.362 83.0605 1.05
      vertex 90.0059 78.0996 1.05
    endloop
  endfacet
  facet normal 0 -0 1
    outer loop
      vertex 169.381 76.54 1.05
      vertex 172.641 97.6592 1.05
      vertex 151.663 71.5791 1.05
    endloop
  endfacet
  facet normal 0 0 1
    outer loop
      vertex 172.641 97.6592 1.05
      vertex 190.217 88.8721 1.05
      vertex 193.052 93.9746 1.05
    endloop
  endfacet
  facet normal 0 -0 1
    outer loop
      vertex 181.854 81.6426 1.05
      vertex 190.217 88.8721 1.05
      vertex 172.641 97.6592 1.05
    endloop
  endfacet
  facet normal 0 0 1
    outer loop
      vertex 169.381 76.54 1.05
      vertex 181.854 81.6426 1.05
      vertex 172.641 97.6592 1.05
    endloop
  endfacet
  facet normal 0 -0 1
    outer loop
      vertex 151.663 71.5791 1.05
      vertex 172.641 97.6592 1.05
      vertex 135.362 83.0605 1.05
    endloop
  endfacet
  facet normal 0 0 1
    outer loop
      vertex 151.663 71.5791 1.05
      vertex 135.362 83.0605 1.05
      vertex 135.646 69.0283 1.05
    endloop
  endfacet
  facet normal 0 0 1
    outer loop
      vertex 135.362 83.0605 1.05
      vertex 122.606 67.3271 1.05
      vertex 135.646 69.0283 1.05
    endloop
  endfacet
  facet normal 0 0 1
    outer loop
      vertex 119.487 66.9014 1.05
      vertex 122.606 67.3271 1.05
      vertex 135.362 83.0605 1.05
    endloop
  endfacet
  facet normal 0 0 1
    outer loop
      vertex 109.282 64.209 1.05
      vertex 90.0059 78.0996 1.05
      vertex 95.3916 61.9404 1.05
    endloop
  endfacet
  facet normal 0 0 1
    outer loop
      vertex 90.0059 78.0996 1.05
      vertex 76.2568 61.5156 1.05
      vertex 95.3916 61.9404 1.05
    endloop
  endfacet
  facet normal 0 -0 1
    outer loop
      vertex 119.487 66.9014 1.05
      vertex 135.362 83.0605 1.05
      vertex 110.842 65.9092 1.05
    endloop
  endfacet
  facet normal 0 0 1
    outer loop
      vertex 45.2158 83.9111 1.05
      vertex 53.2949 66.9014 1.05
      vertex 90.0059 78.0996 1.05
    endloop
  endfacet
  facet normal 0 0 1
    outer loop
      vertex 9.21289 85.3281 1.05
      vertex 2.09766 98.4316 1.05
      vertex 2.12598 87.5957 1.05
    endloop
  endfacet
  facet normal 0 0 1
    outer loop
      vertex 9.21289 85.3281 1.05
      vertex 2.12598 87.5957 1.05
      vertex 5.10254 85.0449 1.05
    endloop
  endfacet
  facet normal 0 0 1
    outer loop
      vertex 24.3799 90.4307 1.05
      vertex 16.4424 82.21 1.05
      vertex 27.9229 76.9658 1.05
    endloop
  endfacet
  facet normal -0 0 1
    outer loop
      vertex 27.9229 76.9658 1.05
      vertex 37.1357 71.8623 1.05
      vertex 45.2158 83.9111 1.05
    endloop
  endfacet
  facet normal 0 0 1
    outer loop
      vertex 24.3799 90.4307 1.05
      vertex 9.21289 85.3281 1.05
      vertex 16.4424 82.21 1.05
    endloop
  endfacet
  facet normal 0 0 1
    outer loop
      vertex 24.3799 90.4307 1.05
      vertex 2.09766 98.4316 1.05
      vertex 9.21289 85.3281 1.05
    endloop
  endfacet
  facet normal 0 0 1
    outer loop
      vertex 45.2158 83.9111 1.05
      vertex 24.3799 90.4307 1.05
      vertex 27.9229 76.9658 1.05
    endloop
  endfacet
  facet normal -0 0 1
    outer loop
      vertex 37.1357 71.8623 1.05
      vertex 53.2949 66.9014 1.05
      vertex 45.2158 83.9111 1.05
    endloop
  endfacet
  facet normal -0 0 1
    outer loop
      vertex 53.2949 66.9014 1.05
      vertex 76.2568 61.5156 1.05
      vertex 90.0059 78.0996 1.05
    endloop
  endfacet
  facet normal -0 0 1
    outer loop
      vertex 135.788 35.2939 1.05
      vertex 213.632 9.13477 1.05
      vertex 156.907 41.8135 1.05
    endloop
  endfacet
  facet normal 0 -0 1
    outer loop
      vertex 213.632 9.13477 1.05
      vertex 213.632 98.4316 1.05
      vertex 212.753 91.4229 1.05
    endloop
  endfacet
  facet normal 0 0 1
    outer loop
      vertex 207.935 77.5322 1.05
      vertex 212.753 91.4229 1.05
      vertex 210.485 86.0371 1.05
    endloop
  endfacet
  facet normal 0 0 1
    outer loop
      vertex 213.632 9.13477 1.05
      vertex 212.753 91.4229 1.05
      vertex 207.935 77.5322 1.05
    endloop
  endfacet
  facet normal 0 0 1
    outer loop
      vertex 213.632 9.13477 1.05
      vertex 207.935 77.5322 1.05
      vertex 202.689 72.0049 1.05
    endloop
  endfacet
  facet normal 0 0 1
    outer loop
      vertex 185.681 54.8535 1.05
      vertex 202.689 72.0049 1.05
      vertex 194.469 67.752 1.05
    endloop
  endfacet
  facet normal 0 0 1
    outer loop
      vertex 213.632 9.13477 1.05
      vertex 202.689 72.0049 1.05
      vertex 185.681 54.8535 1.05
    endloop
  endfacet
  facet normal 0 0 1
    outer loop
      vertex 171.224 47.625 1.05
      vertex 185.681 54.8535 1.05
      vertex 181.003 53.8613 1.05
    endloop
  endfacet
  facet normal 0 0 1
    outer loop
      vertex 213.632 9.13477 1.05
      vertex 185.681 54.8535 1.05
      vertex 171.224 47.625 1.05
    endloop
  endfacet
  facet normal 0 0 1
    outer loop
      vertex 163.144 44.79 1.05
      vertex 156.907 41.8135 1.05
      vertex 213.632 9.13477 1.05
    endloop
  endfacet
  facet normal 0 0 1
    outer loop
      vertex 131.678 34.7266 1.05
      vertex 135.788 35.2939 1.05
      vertex 132.386 37.7031 1.05
    endloop
  endfacet
  facet normal -0 0 1
    outer loop
      vertex 131.678 34.7266 1.05
      vertex 114.952 30.4746 1.05
      vertex 135.788 35.2939 1.05
    endloop
  endfacet
  facet normal -0 0 1
    outer loop
      vertex 114.952 30.4746 1.05
      vertex 213.632 9.13477 1.05
      vertex 135.788 35.2939 1.05
    endloop
  endfacet
  facet normal -0 0 1
    outer loop
      vertex 93.124 28.2061 1.05
      vertex 213.632 9.13477 1.05
      vertex 114.952 30.4746 1.05
    endloop
  endfacet
  facet normal 0 0 1
    outer loop
      vertex 76.2568 29.7656 1.05
      vertex 2.09766 9.13477 1.05
      vertex 93.124 28.2061 1.05
    endloop
  endfacet
  facet normal 0 0 1
    outer loop
      vertex 2.09766 9.13477 1.05
      vertex 213.632 9.13477 1.05
      vertex 93.124 28.2061 1.05
    endloop
  endfacet
  facet normal 0 0 1
    outer loop
      vertex 42.6641 38.6953 1.05
      vertex 21.4033 42.2393 1.05
      vertex 2.09766 9.13477 1.05
    endloop
  endfacet
  facet normal 0 0 1
    outer loop
      vertex 21.4033 42.2393 1.05
      vertex 15.4502 39.9707 1.05
      vertex 2.09766 9.13477 1.05
    endloop
  endfacet
  facet normal 0 0 1
    outer loop
      vertex 42.6641 38.6953 1.05
      vertex 2.09766 9.13477 1.05
      vertex 52.1611 35.8604 1.05
    endloop
  endfacet
  facet normal 0 0 1
    outer loop
      vertex 2.09766 9.13477 1.05
      vertex 76.2568 29.7656 1.05
      vertex 52.1611 35.8604 1.05
    endloop
  endfacet
  facet normal 0 0 1
    outer loop
      vertex 2.09766 9.13477 1.05
      vertex 15.4502 39.9707 1.05
      vertex 8.78809 41.8135 1.05
    endloop
  endfacet
  facet normal 0 -0 1
    outer loop
      vertex 2.09766 9.13477 1.05
      vertex 8.78809 41.8135 1.05
      vertex 1.98438 44.79 1.05
    endloop
  endfacet
  facet normal 0.16118 -0.986925 0
    outer loop
      vertex 109.282 64.209 0.05
      vertex 95.3916 61.9404 1.05
      vertex 95.3916 61.9404 0.05
    endloop
  endfacet
  facet normal 0.16118 -0.986925 0
    outer loop
      vertex 109.282 64.209 0.05
      vertex 109.282 64.209 1.05
      vertex 95.3916 61.9404 1.05
    endloop
  endfacet
  facet normal 0.736926 -0.675974 0
    outer loop
      vertex 110.842 65.9092 0.05
      vertex 109.282 64.209 1.05
      vertex 109.282 64.209 0.05
    endloop
  endfacet
  facet normal 0.736926 -0.675974 0
    outer loop
      vertex 110.842 65.9092 0.05
      vertex 110.842 65.9092 1.05
      vertex 109.282 64.209 1.05
    endloop
  endfacet
  facet normal 0.114015 -0.993479 0
    outer loop
      vertex 119.487 66.9014 0.05
      vertex 110.842 65.9092 1.05
      vertex 110.842 65.9092 0.05
    endloop
  endfacet
  facet normal 0.114015 -0.993479 0
    outer loop
      vertex 119.487 66.9014 0.05
      vertex 119.487 66.9014 1.05
      vertex 110.842 65.9092 1.05
    endloop
  endfacet
  facet normal 0.135252 -0.990811 0
    outer loop
      vertex 122.606 67.3271 0.05
      vertex 119.487 66.9014 1.05
      vertex 119.487 66.9014 0.05
    endloop
  endfacet
  facet normal 0.135252 -0.990811 0
    outer loop
      vertex 122.606 67.3271 0.05
      vertex 122.606 67.3271 1.05
      vertex 119.487 66.9014 1.05
    endloop
  endfacet
  facet normal 0.129361 -0.991598 0
    outer loop
      vertex 135.646 69.0283 0.05
      vertex 122.606 67.3271 1.05
      vertex 122.606 67.3271 0.05
    endloop
  endfacet
  facet normal 0.129361 -0.991598 0
    outer loop
      vertex 135.646 69.0283 0.05
      vertex 135.646 69.0283 1.05
      vertex 122.606 67.3271 1.05
    endloop
  endfacet
  facet normal 0.157277 -0.987555 0
    outer loop
      vertex 151.663 71.5791 0.05
      vertex 135.646 69.0283 1.05
      vertex 135.646 69.0283 0.05
    endloop
  endfacet
  facet normal 0.157277 -0.987555 0
    outer loop
      vertex 151.663 71.5791 0.05
      vertex 151.663 71.5791 1.05
      vertex 135.646 69.0283 1.05
    endloop
  endfacet
  facet normal 0.269628 -0.962965 0
    outer loop
      vertex 169.381 76.54 0.05
      vertex 151.663 71.5791 1.05
      vertex 151.663 71.5791 0.05
    endloop
  endfacet
  facet normal 0.269628 -0.962965 0
    outer loop
      vertex 169.381 76.54 0.05
      vertex 169.381 76.54 1.05
      vertex 151.663 71.5791 1.05
    endloop
  endfacet
  facet normal 0.378638 -0.925545 0
    outer loop
      vertex 181.854 81.6426 0.05
      vertex 169.381 76.54 1.05
      vertex 169.381 76.54 0.05
    endloop
  endfacet
  facet normal 0.378638 -0.925545 0
    outer loop
      vertex 181.854 81.6426 0.05
      vertex 181.854 81.6426 1.05
      vertex 169.381 76.54 1.05
    endloop
  endfacet
  facet normal 0.653965 -0.756525 0
    outer loop
      vertex 190.217 88.8721 0.05
      vertex 181.854 81.6426 1.05
      vertex 181.854 81.6426 0.05
    endloop
  endfacet
  facet normal 0.653965 -0.756525 0
    outer loop
      vertex 190.217 88.8721 0.05
      vertex 190.217 88.8721 1.05
      vertex 181.854 81.6426 1.05
    endloop
  endfacet
  facet normal 0.874141 -0.485671 0
    outer loop
      vertex 193.052 93.9746 0.05
      vertex 190.217 88.8721 1.05
      vertex 190.217 88.8721 0.05
    endloop
  endfacet
  facet normal 0.874141 -0.485671 0
    outer loop
      vertex 193.052 93.9746 0.05
      vertex 193.052 93.9746 1.05
      vertex 190.217 88.8721 1.05
    endloop
  endfacet
  facet normal 0.842263 -0.539067 0
    outer loop
      vertex 195.319 97.5176 0.05
      vertex 193.052 93.9746 1.05
      vertex 193.052 93.9746 0.05
    endloop
  endfacet
  facet normal 0.842263 -0.539067 0
    outer loop
      vertex 195.319 97.5176 0.05
      vertex 195.319 97.5176 1.05
      vertex 193.052 93.9746 1.05
    endloop
  endfacet
  facet normal 0.00624369 0.999981 0
    outer loop
      vertex 172.641 97.6592 0.05
      vertex 195.319 97.5176 1.05
      vertex 195.319 97.5176 0.05
    endloop
  endfacet
  facet normal 0.00624369 0.999981 -0
    outer loop
      vertex 172.641 97.6592 0.05
      vertex 172.641 97.6592 1.05
      vertex 195.319 97.5176 1.05
    endloop
  endfacet
  facet normal -0.364648 0.931146 0
    outer loop
      vertex 135.362 83.0605 0.05
      vertex 172.641 97.6592 1.05
      vertex 172.641 97.6592 0.05
    endloop
  endfacet
  facet normal -0.364648 0.931146 0
    outer loop
      vertex 135.362 83.0605 0.05
      vertex 135.362 83.0605 1.05
      vertex 172.641 97.6592 1.05
    endloop
  endfacet
  facet normal -0.108728 0.994072 0
    outer loop
      vertex 90.0059 78.0996 0.05
      vertex 135.362 83.0605 1.05
      vertex 135.362 83.0605 0.05
    endloop
  endfacet
  facet normal -0.108728 0.994072 0
    outer loop
      vertex 90.0059 78.0996 0.05
      vertex 90.0059 78.0996 1.05
      vertex 135.362 83.0605 1.05
    endloop
  endfacet
  facet normal 0.128672 0.991687 0
    outer loop
      vertex 45.2158 83.9111 0.05
      vertex 90.0059 78.0996 1.05
      vertex 90.0059 78.0996 0.05
    endloop
  endfacet
  facet normal 0.128672 0.991687 -0
    outer loop
      vertex 45.2158 83.9111 0.05
      vertex 45.2158 83.9111 1.05
      vertex 90.0059 78.0996 1.05
    endloop
  endfacet
  facet normal 0.298621 0.954372 0
    outer loop
      vertex 24.3799 90.4307 0.05
      vertex 45.2158 83.9111 1.05
      vertex 45.2158 83.9111 0.05
    endloop
  endfacet
  facet normal 0.298621 0.954372 -0
    outer loop
      vertex 24.3799 90.4307 0.05
      vertex 24.3799 90.4307 1.05
      vertex 45.2158 83.9111 1.05
    endloop
  endfacet
  facet normal 0.337948 0.941165 0
    outer loop
      vertex 2.09766 98.4316 0.05
      vertex 24.3799 90.4307 1.05
      vertex 24.3799 90.4307 0.05
    endloop
  endfacet
  facet normal 0.337948 0.941165 -0
    outer loop
      vertex 2.09766 98.4316 0.05
      vertex 2.09766 98.4316 1.05
      vertex 24.3799 90.4307 1.05
    endloop
  endfacet
  facet normal -0.999997 -0.00261355 0
    outer loop
      vertex 2.12598 87.5957 0.05
      vertex 2.09766 98.4316 1.05
      vertex 2.09766 98.4316 0.05
    endloop
  endfacet
  facet normal -0.999997 -0.00261355 0
    outer loop
      vertex 2.12598 87.5957 0.05
      vertex 2.12598 87.5957 1.05
      vertex 2.09766 98.4316 1.05
    endloop
  endfacet
  facet normal -0.650709 -0.759327 0
    outer loop
      vertex 5.10254 85.0449 0.05
      vertex 2.12598 87.5957 1.05
      vertex 2.12598 87.5957 0.05
    endloop
  endfacet
  facet normal -0.650709 -0.759327 0
    outer loop
      vertex 5.10254 85.0449 0.05
      vertex 5.10254 85.0449 1.05
      vertex 2.12598 87.5957 1.05
    endloop
  endfacet
  facet normal 0.068737 -0.997635 0
    outer loop
      vertex 9.21289 85.3281 0.05
      vertex 5.10254 85.0449 1.05
      vertex 5.10254 85.0449 0.05
    endloop
  endfacet
  facet normal 0.068737 -0.997635 0
    outer loop
      vertex 9.21289 85.3281 0.05
      vertex 9.21289 85.3281 1.05
      vertex 5.10254 85.0449 1.05
    endloop
  endfacet
  facet normal -0.396044 -0.918232 0
    outer loop
      vertex 16.4424 82.21 0.05
      vertex 9.21289 85.3281 1.05
      vertex 9.21289 85.3281 0.05
    endloop
  endfacet
  facet normal -0.396044 -0.918232 0
    outer loop
      vertex 16.4424 82.21 0.05
      vertex 16.4424 82.21 1.05
      vertex 9.21289 85.3281 1.05
    endloop
  endfacet
  facet normal -0.415493 -0.909596 0
    outer loop
      vertex 27.9229 76.9658 0.05
      vertex 16.4424 82.21 1.05
      vertex 16.4424 82.21 0.05
    endloop
  endfacet
  facet normal -0.415493 -0.909596 0
    outer loop
      vertex 27.9229 76.9658 0.05
      vertex 27.9229 76.9658 1.05
      vertex 16.4424 82.21 1.05
    endloop
  endfacet
  facet normal -0.484572 -0.874751 0
    outer loop
      vertex 37.1357 71.8623 0.05
      vertex 27.9229 76.9658 1.05
      vertex 27.9229 76.9658 0.05
    endloop
  endfacet
  facet normal -0.484572 -0.874751 0
    outer loop
      vertex 37.1357 71.8623 0.05
      vertex 37.1357 71.8623 1.05
      vertex 27.9229 76.9658 1.05
    endloop
  endfacet
  facet normal -0.293485 -0.955964 0
    outer loop
      vertex 53.2949 66.9014 0.05
      vertex 37.1357 71.8623 1.05
      vertex 37.1357 71.8623 0.05
    endloop
  endfacet
  facet normal -0.293485 -0.955964 0
    outer loop
      vertex 53.2949 66.9014 0.05
      vertex 53.2949 66.9014 1.05
      vertex 37.1357 71.8623 1.05
    endloop
  endfacet
  facet normal -0.228354 -0.973578 0
    outer loop
      vertex 76.2568 61.5156 0.05
      vertex 53.2949 66.9014 1.05
      vertex 53.2949 66.9014 0.05
    endloop
  endfacet
  facet normal -0.228354 -0.973578 0
    outer loop
      vertex 76.2568 61.5156 0.05
      vertex 76.2568 61.5156 1.05
      vertex 53.2949 66.9014 1.05
    endloop
  endfacet
  facet normal 0.0221952 -0.999754 0
    outer loop
      vertex 95.3916 61.9404 0.05
      vertex 76.2568 61.5156 1.05
      vertex 76.2568 61.5156 0.05
    endloop
  endfacet
  facet normal 0.0221952 -0.999754 0
    outer loop
      vertex 95.3916 61.9404 0.05
      vertex 95.3916 61.9404 1.05
      vertex 76.2568 61.5156 1.05
    endloop
  endfacet
  facet normal -0.992229 0.124426 0
    outer loop
      vertex 212.753 91.4229 0.05
      vertex 213.632 98.4316 1.05
      vertex 213.632 98.4316 0.05
    endloop
  endfacet
  facet normal -0.992229 0.124426 0
    outer loop
      vertex 212.753 91.4229 0.05
      vertex 212.753 91.4229 1.05
      vertex 213.632 98.4316 1.05
    endloop
  endfacet
  facet normal -0.921642 0.388042 0
    outer loop
      vertex 210.485 86.0371 0.05
      vertex 212.753 91.4229 1.05
      vertex 212.753 91.4229 0.05
    endloop
  endfacet
  facet normal -0.921642 0.388042 0
    outer loop
      vertex 210.485 86.0371 0.05
      vertex 210.485 86.0371 1.05
      vertex 212.753 91.4229 1.05
    endloop
  endfacet
  facet normal -0.957847 0.287277 0
    outer loop
      vertex 207.935 77.5322 0.05
      vertex 210.485 86.0371 1.05
      vertex 210.485 86.0371 0.05
    endloop
  endfacet
  facet normal -0.957847 0.287277 0
    outer loop
      vertex 207.935 77.5322 0.05
      vertex 207.935 77.5322 1.05
      vertex 210.485 86.0371 1.05
    endloop
  endfacet
  facet normal -0.725383 0.688345 0
    outer loop
      vertex 202.689 72.0049 0.05
      vertex 207.935 77.5322 1.05
      vertex 207.935 77.5322 0.05
    endloop
  endfacet
  facet normal -0.725383 0.688345 0
    outer loop
      vertex 202.689 72.0049 0.05
      vertex 202.689 72.0049 1.05
      vertex 207.935 77.5322 1.05
    endloop
  endfacet
  facet normal -0.459495 0.888181 0
    outer loop
      vertex 194.469 67.752 0.05
      vertex 202.689 72.0049 1.05
      vertex 202.689 72.0049 0.05
    endloop
  endfacet
  facet normal -0.459495 0.888181 0
    outer loop
      vertex 194.469 67.752 0.05
      vertex 194.469 67.752 1.05
      vertex 202.689 72.0049 1.05
    endloop
  endfacet
  facet normal -0.826415 0.563061 0
    outer loop
      vertex 185.681 54.8535 0.05
      vertex 194.469 67.752 1.05
      vertex 194.469 67.752 0.05
    endloop
  endfacet
  facet normal -0.826415 0.563061 0
    outer loop
      vertex 185.681 54.8535 0.05
      vertex 185.681 54.8535 1.05
      vertex 194.469 67.752 1.05
    endloop
  endfacet
  facet normal -0.207492 0.978237 0
    outer loop
      vertex 181.003 53.8613 0.05
      vertex 185.681 54.8535 1.05
      vertex 185.681 54.8535 0.05
    endloop
  endfacet
  facet normal -0.207492 0.978237 0
    outer loop
      vertex 181.003 53.8613 0.05
      vertex 181.003 53.8613 1.05
      vertex 185.681 54.8535 1.05
    endloop
  endfacet
  facet normal -0.537682 0.843148 0
    outer loop
      vertex 171.224 47.625 0.05
      vertex 181.003 53.8613 1.05
      vertex 181.003 53.8613 0.05
    endloop
  endfacet
  facet normal -0.537682 0.843148 0
    outer loop
      vertex 171.224 47.625 0.05
      vertex 171.224 47.625 1.05
      vertex 181.003 53.8613 1.05
    endloop
  endfacet
  facet normal -0.331072 0.943606 0
    outer loop
      vertex 163.144 44.79 0.05
      vertex 171.224 47.625 1.05
      vertex 171.224 47.625 0.05
    endloop
  endfacet
  facet normal -0.331072 0.943606 0
    outer loop
      vertex 163.144 44.79 0.05
      vertex 163.144 44.79 1.05
      vertex 171.224 47.625 1.05
    endloop
  endfacet
  facet normal -0.430745 0.902474 0
    outer loop
      vertex 156.907 41.8135 0.05
      vertex 163.144 44.79 1.05
      vertex 163.144 44.79 0.05
    endloop
  endfacet
  facet normal -0.430745 0.902474 0
    outer loop
      vertex 156.907 41.8135 0.05
      vertex 156.907 41.8135 1.05
      vertex 163.144 44.79 1.05
    endloop
  endfacet
  facet normal -0.294967 0.955507 0
    outer loop
      vertex 135.788 35.2939 0.05
      vertex 156.907 41.8135 1.05
      vertex 156.907 41.8135 0.05
    endloop
  endfacet
  facet normal -0.294967 0.955507 0
    outer loop
      vertex 135.788 35.2939 0.05
      vertex 135.788 35.2939 1.05
      vertex 156.907 41.8135 1.05
    endloop
  endfacet
  facet normal 0.577887 0.816117 0
    outer loop
      vertex 132.386 37.7031 0.05
      vertex 135.788 35.2939 1.05
      vertex 135.788 35.2939 0.05
    endloop
  endfacet
  facet normal 0.577887 0.816117 -0
    outer loop
      vertex 132.386 37.7031 0.05
      vertex 132.386 37.7031 1.05
      vertex 135.788 35.2939 1.05
    endloop
  endfacet
  facet normal -0.972858 0.231405 0
    outer loop
      vertex 131.678 34.7266 0.05
      vertex 132.386 37.7031 1.05
      vertex 132.386 37.7031 0.05
    endloop
  endfacet
  facet normal -0.972858 0.231405 0
    outer loop
      vertex 131.678 34.7266 0.05
      vertex 131.678 34.7266 1.05
      vertex 132.386 37.7031 1.05
    endloop
  endfacet
  facet normal -0.246382 0.969173 0
    outer loop
      vertex 114.952 30.4746 0.05
      vertex 131.678 34.7266 1.05
      vertex 131.678 34.7266 0.05
    endloop
  endfacet
  facet normal -0.246382 0.969173 0
    outer loop
      vertex 114.952 30.4746 0.05
      vertex 114.952 30.4746 1.05
      vertex 131.678 34.7266 1.05
    endloop
  endfacet
  facet normal -0.103371 0.994643 0
    outer loop
      vertex 93.124 28.2061 0.05
      vertex 114.952 30.4746 1.05
      vertex 114.952 30.4746 0.05
    endloop
  endfacet
  facet normal -0.103371 0.994643 0
    outer loop
      vertex 93.124 28.2061 0.05
      vertex 93.124 28.2061 1.05
      vertex 114.952 30.4746 1.05
    endloop
  endfacet
  facet normal 0.0920691 0.995753 0
    outer loop
      vertex 76.2568 29.7656 0.05
      vertex 93.124 28.2061 1.05
      vertex 93.124 28.2061 0.05
    endloop
  endfacet
  facet normal 0.0920691 0.995753 -0
    outer loop
      vertex 76.2568 29.7656 0.05
      vertex 76.2568 29.7656 1.05
      vertex 93.124 28.2061 1.05
    endloop
  endfacet
  facet normal 0.245216 0.969469 0
    outer loop
      vertex 52.1611 35.8604 0.05
      vertex 76.2568 29.7656 1.05
      vertex 76.2568 29.7656 0.05
    endloop
  endfacet
  facet normal 0.245216 0.969469 -0
    outer loop
      vertex 52.1611 35.8604 0.05
      vertex 52.1611 35.8604 1.05
      vertex 76.2568 29.7656 1.05
    endloop
  endfacet
  facet normal 0.286037 0.958219 0
    outer loop
      vertex 42.6641 38.6953 0.05
      vertex 52.1611 35.8604 1.05
      vertex 52.1611 35.8604 0.05
    endloop
  endfacet
  facet normal 0.286037 0.958219 -0
    outer loop
      vertex 42.6641 38.6953 0.05
      vertex 42.6641 38.6953 1.05
      vertex 52.1611 35.8604 1.05
    endloop
  endfacet
  facet normal 0.164421 0.98639 0
    outer loop
      vertex 21.4033 42.2393 0.05
      vertex 42.6641 38.6953 1.05
      vertex 42.6641 38.6953 0.05
    endloop
  endfacet
  facet normal 0.164421 0.98639 -0
    outer loop
      vertex 21.4033 42.2393 0.05
      vertex 21.4033 42.2393 1.05
      vertex 42.6641 38.6953 1.05
    endloop
  endfacet
  facet normal -0.356091 0.934451 0
    outer loop
      vertex 15.4502 39.9707 0.05
      vertex 21.4033 42.2393 1.05
      vertex 21.4033 42.2393 0.05
    endloop
  endfacet
  facet normal -0.356091 0.934451 0
    outer loop
      vertex 15.4502 39.9707 0.05
      vertex 15.4502 39.9707 1.05
      vertex 21.4033 42.2393 1.05
    endloop
  endfacet
  facet normal 0.266594 0.963809 0
    outer loop
      vertex 8.78809 41.8135 0.05
      vertex 15.4502 39.9707 1.05
      vertex 15.4502 39.9707 0.05
    endloop
  endfacet
  facet normal 0.266594 0.963809 -0
    outer loop
      vertex 8.78809 41.8135 0.05
      vertex 8.78809 41.8135 1.05
      vertex 15.4502 39.9707 1.05
    endloop
  endfacet
  facet normal 0.400812 0.91616 0
    outer loop
      vertex 1.98438 44.79 0.05
      vertex 8.78809 41.8135 1.05
      vertex 8.78809 41.8135 0.05
    endloop
  endfacet
  facet normal 0.400812 0.91616 -0
    outer loop
      vertex 1.98438 44.79 0.05
      vertex 1.98438 44.79 1.05
      vertex 8.78809 41.8135 1.05
    endloop
  endfacet
  facet normal -0.999995 -0.00317711 0
    outer loop
      vertex 2.09766 9.13477 0.05
      vertex 1.98438 44.79 1.05
      vertex 1.98438 44.79 0.05
    endloop
  endfacet
  facet normal -0.999995 -0.00317711 0
    outer loop
      vertex 2.09766 9.13477 0.05
      vertex 2.09766 9.13477 1.05
      vertex 1.98438 44.79 1.05
    endloop
  endfacet
  facet normal 0 -1 0
    outer loop
      vertex 213.632 9.13477 0.05
      vertex 2.09766 9.13477 1.05
      vertex 2.09766 9.13477 0.05
    endloop
  endfacet
  facet normal 0 -1 0
    outer loop
      vertex 213.632 9.13477 0.05
      vertex 213.632 9.13477 1.05
      vertex 2.09766 9.13477 1.05
    endloop
  endfacet
  facet normal 1 0 0
    outer loop
      vertex 213.632 98.4316 0.05
      vertex 213.632 9.13477 1.05
      vertex 213.632 9.13477 0.05
    endloop
  endfacet
  facet normal 1 0 -0
    outer loop
      vertex 213.632 98.4316 0.05
      vertex 213.632 98.4316 1.05
      vertex 213.632 9.13477 1.05
    endloop
  endfacet
endsolid OpenSCAD_Model
