solid OpenSCAD_Model
  facet normal 0.733 -0.532555 -0.423198
    outer loop
      vertex 3.86271 -11.8882 -21.6506
      vertex 17.7831 0 -12.5
      vertex 16.2765 -4.90633 -8.93534
    endloop
  endfacet
  facet normal 0.733 -0.532555 -0.423198
    outer loop
      vertex 17.7831 0 -12.5
      vertex 3.86271 -11.8882 -21.6506
      vertex 12.5 0 -21.6506
    endloop
  endfacet
  facet normal 0.733 0.532556 0.423198
    outer loop
      vertex 13.8233 7.34731 10.1127
      vertex 6.17135 18.9935 8.71064
      vertex 3.86271 11.8882 21.6506
    endloop
  endfacet
  facet normal 0.733 0.532555 0.423198
    outer loop
      vertex 17.2746 10.6331 0
      vertex 6.17135 18.9935 8.71064
      vertex 13.8233 7.34731 10.1127
    endloop
  endfacet
  facet normal 0.733 0.532555 0.423198
    outer loop
      vertex 6.17135 18.9935 8.71064
      vertex 17.2746 10.6331 0
      vertex 12.5 17.2048 0
    endloop
  endfacet
  facet normal 0.733 0.532555 0.423198
    outer loop
      vertex 13.8233 7.34731 10.1127
      vertex 3.86271 11.8882 21.6506
      vertex 15.1271 5.55282 10.1127
    endloop
  endfacet
  facet normal 0.733 0.532555 0.423198
    outer loop
      vertex 12.5 0 21.6506
      vertex 15.1271 5.55282 10.1127
      vertex 3.86271 11.8882 21.6506
    endloop
  endfacet
  facet normal 0.733 0.532555 0.423198
    outer loop
      vertex 15.1271 5.55282 10.1127
      vertex 12.5 0 21.6506
      vertex 19.1614 0 10.1127
    endloop
  endfacet
  facet normal -0.906037 0 0.423198
    outer loop
      vertex -15.5019 7.34731 10.1127
      vertex -20.2254 14.6946 0
      vertex -20.2254 10.6331 0
    endloop
  endfacet
  facet normal -0.906037 -3.42472e-008 0.423198
    outer loop
      vertex -15.5019 7.34731 10.1127
      vertex -10.1127 7.34731 21.6506
      vertex -20.2254 14.6946 0
    endloop
  endfacet
  facet normal -0.906037 0 0.423198
    outer loop
      vertex -15.5019 -7.34731 10.1127
      vertex -10.1127 7.34731 21.6506
      vertex -15.5019 7.34731 10.1127
    endloop
  endfacet
  facet normal -0.906037 0 0.423198
    outer loop
      vertex -15.5019 -7.34731 10.1127
      vertex -10.1127 -7.34731 21.6506
      vertex -10.1127 7.34731 21.6506
    endloop
  endfacet
  facet normal -0.906037 0 0.423198
    outer loop
      vertex -20.2254 -14.6946 0
      vertex -15.5019 -7.34731 10.1127
      vertex -20.2254 -10.6331 0
    endloop
  endfacet
  facet normal -0.906037 3.42472e-008 0.423198
    outer loop
      vertex -15.5019 -7.34731 10.1127
      vertex -20.2254 -14.6946 0
      vertex -10.1127 -7.34731 21.6506
    endloop
  endfacet
  facet normal -0.279981 0.861693 0.423198
    outer loop
      vertex 3.86271 11.8882 21.6506
      vertex -20.2254 14.6946 0
      vertex -10.1127 7.34731 21.6506
    endloop
  endfacet
  facet normal 0.733 -0.532556 -0.423198
    outer loop
      vertex 12.5 -17.2048 0
      vertex 14.1326 -11.8882 -3.86271
      vertex 17.2746 -10.6331 0
    endloop
  endfacet
  facet normal 0.733 -0.532556 -0.423198
    outer loop
      vertex 6.17135 -18.9935 -8.71064
      vertex 14.1326 -11.8882 -3.86271
      vertex 12.5 -17.2048 0
    endloop
  endfacet
  facet normal 0.733 -0.532556 -0.423198
    outer loop
      vertex 14.1326 -11.8882 -3.86271
      vertex 6.17135 -18.9935 -8.71064
      vertex 3.86271 -11.8882 -21.6506
    endloop
  endfacet
  facet normal 0.733 -0.532555 -0.423198
    outer loop
      vertex 3.86271 -11.8882 -21.6506
      vertex 15.0772 -8.81196 -6.09774
      vertex 14.1326 -11.8882 -3.86271
    endloop
  endfacet
  facet normal 0.733 -0.532555 -0.423198
    outer loop
      vertex 15.0772 -8.81196 -6.09774
      vertex 3.86271 -11.8882 -21.6506
      vertex 16.2765 -4.90633 -8.93534
    endloop
  endfacet
  facet normal -0.279981 0.861693 -0.423198
    outer loop
      vertex -10.1127 7.34731 -21.6506
      vertex -20.2254 14.6946 0
      vertex 3.86271 11.8882 -21.6506
    endloop
  endfacet
  facet normal -0.279981 0.861693 0.423198
    outer loop
      vertex 3.86271 11.8882 21.6506
      vertex 6.17135 18.9935 8.71064
      vertex 3.86271 16.6828 11.8882
    endloop
  endfacet
  facet normal -0.279981 0.861693 0.423198
    outer loop
      vertex -10.1127 14.372 7.34731
      vertex 3.86271 11.8882 21.6506
      vertex 3.86271 16.6828 11.8882
    endloop
  endfacet
  facet normal -0.279981 0.861693 0.423197
    outer loop
      vertex -10.1127 14.372 7.34731
      vertex -20.2254 14.6946 0
      vertex 3.86271 11.8882 21.6506
    endloop
  endfacet
  facet normal -0.279981 0.861693 0.423198
    outer loop
      vertex -20.2254 14.6946 0
      vertex -10.1127 14.372 7.34731
      vertex -10.1127 17.9804 0
    endloop
  endfacet
  facet normal 0.733 -0.532555 0.423198
    outer loop
      vertex 3.86271 -11.8882 21.6506
      vertex 13.8233 -7.34731 10.1127
      vertex 15.1271 -5.55282 10.1127
    endloop
  endfacet
  facet normal 0.733 -0.532556 0.423198
    outer loop
      vertex 6.17135 -18.9935 8.71064
      vertex 13.8233 -7.34731 10.1127
      vertex 3.86271 -11.8882 21.6506
    endloop
  endfacet
  facet normal 0.733 -0.532555 0.423198
    outer loop
      vertex 13.8233 -7.34731 10.1127
      vertex 6.17135 -18.9935 8.71064
      vertex 17.2746 -10.6331 0
    endloop
  endfacet
  facet normal 0.733 -0.532555 0.423198
    outer loop
      vertex 17.2746 -10.6331 0
      vertex 6.17135 -18.9935 8.71064
      vertex 12.5 -17.2048 0
    endloop
  endfacet
  facet normal 0.733 -0.532555 0.423198
    outer loop
      vertex 12.5 0 21.6506
      vertex 15.1271 -5.55282 10.1127
      vertex 19.1614 0 10.1127
    endloop
  endfacet
  facet normal 0.733 -0.532555 0.423198
    outer loop
      vertex 15.1271 -5.55282 10.1127
      vertex 12.5 0 21.6506
      vertex 3.86271 -11.8882 21.6506
    endloop
  endfacet
  facet normal -0.279981 -0.861693 -0.423198
    outer loop
      vertex -20.2254 -14.6946 0
      vertex -10.1127 -14.372 -7.34731
      vertex -10.1127 -17.9804 0
    endloop
  endfacet
  facet normal -0.279981 -0.861693 -0.423198
    outer loop
      vertex -10.1127 -14.372 -7.34731
      vertex 3.86271 -11.8882 -21.6506
      vertex 3.86271 -16.6828 -11.8882
    endloop
  endfacet
  facet normal -0.279981 -0.861693 -0.423197
    outer loop
      vertex 3.86271 -11.8882 -21.6506
      vertex -10.1127 -14.372 -7.34731
      vertex -20.2254 -14.6946 0
    endloop
  endfacet
  facet normal -0.279981 -0.861693 -0.423198
    outer loop
      vertex 6.17135 -18.9935 -8.71064
      vertex 3.86271 -16.6828 -11.8882
      vertex 3.86271 -11.8882 -21.6506
    endloop
  endfacet
  facet normal -0.279981 0.861693 -0.423198
    outer loop
      vertex 6.17135 18.9935 -8.71064
      vertex 3.86271 11.8882 -21.6506
      vertex 3.86271 16.6828 -11.8882
    endloop
  endfacet
  facet normal -0.279981 0.861693 -0.423198
    outer loop
      vertex -10.1127 14.372 -7.34731
      vertex -20.2254 14.6946 0
      vertex -10.1127 17.9804 0
    endloop
  endfacet
  facet normal -0.279981 0.861693 -0.423197
    outer loop
      vertex -10.1127 14.372 -7.34731
      vertex 3.86271 11.8882 -21.6506
      vertex -20.2254 14.6946 0
    endloop
  endfacet
  facet normal -0.279981 0.861693 -0.423198
    outer loop
      vertex 3.86271 11.8882 -21.6506
      vertex -10.1127 14.372 -7.34731
      vertex 3.86271 16.6828 -11.8882
    endloop
  endfacet
  facet normal 0.733 0.532556 -0.423198
    outer loop
      vertex 12.5 17.2048 0
      vertex 17.2746 10.6331 0
      vertex 14.1326 11.8882 -3.86271
    endloop
  endfacet
  facet normal 0.733 0.532556 -0.423198
    outer loop
      vertex 14.1326 11.8882 -3.86271
      vertex 6.17135 18.9935 -8.71064
      vertex 12.5 17.2048 0
    endloop
  endfacet
  facet normal 0.733 0.532555 -0.423198
    outer loop
      vertex 15.0772 8.81196 -6.09774
      vertex 6.17135 18.9935 -8.71064
      vertex 14.1326 11.8882 -3.86271
    endloop
  endfacet
  facet normal 0.733 0.532555 -0.423198
    outer loop
      vertex 6.17135 18.9935 -8.71064
      vertex 15.0772 8.81196 -6.09774
      vertex 3.86271 11.8882 -21.6506
    endloop
  endfacet
  facet normal 0.733 0.532555 -0.423198
    outer loop
      vertex 3.86271 11.8882 -21.6506
      vertex 15.0772 8.81196 -6.09774
      vertex 16.2765 4.90633 -8.93534
    endloop
  endfacet
  facet normal 0.733 0.532555 -0.423198
    outer loop
      vertex 17.7831 0 -12.5
      vertex 3.86271 11.8882 -21.6506
      vertex 16.2765 4.90633 -8.93534
    endloop
  endfacet
  facet normal 0.733 0.532555 -0.423198
    outer loop
      vertex 3.86271 11.8882 -21.6506
      vertex 17.7831 0 -12.5
      vertex 12.5 0 -21.6506
    endloop
  endfacet
  facet normal -0.279981 -0.861693 0.423198
    outer loop
      vertex 3.86271 -11.8882 21.6506
      vertex -10.1127 -14.372 7.34731
      vertex 3.86271 -16.6828 11.8882
    endloop
  endfacet
  facet normal -0.279981 -0.861693 0.423197
    outer loop
      vertex -20.2254 -14.6946 0
      vertex -10.1127 -14.372 7.34731
      vertex 3.86271 -11.8882 21.6506
    endloop
  endfacet
  facet normal -0.279981 -0.861693 0.423198
    outer loop
      vertex -10.1127 -14.372 7.34731
      vertex -20.2254 -14.6946 0
      vertex -10.1127 -17.9804 0
    endloop
  endfacet
  facet normal -0.279981 -0.861693 0.423198
    outer loop
      vertex 3.86271 -11.8882 21.6506
      vertex 3.86271 -16.6828 11.8882
      vertex 6.17135 -18.9935 8.71064
    endloop
  endfacet
  facet normal -0.279981 -0.861693 -0.423198
    outer loop
      vertex 3.86271 -11.8882 -21.6506
      vertex -20.2254 -14.6946 0
      vertex -10.1127 -7.34731 -21.6506
    endloop
  endfacet
  facet normal -0.279981 -0.861693 0.423198
    outer loop
      vertex -10.1127 -7.34731 21.6506
      vertex -20.2254 -14.6946 0
      vertex 3.86271 -11.8882 21.6506
    endloop
  endfacet
  facet normal -0.906037 -3.50411e-007 -0.423198
    outer loop
      vertex -10.1127 7.34731 -21.6506
      vertex -18.4212 11.8882 -3.86271
      vertex -20.2254 14.6946 0
    endloop
  endfacet
  facet normal -0.906037 -5.37223e-008 -0.423198
    outer loop
      vertex -10.1127 7.34731 -21.6506
      vertex -15.4094 3.01307 -10.3109
      vertex -18.4212 11.8882 -3.86271
    endloop
  endfacet
  facet normal -0.906037 1.29584e-007 -0.423198
    outer loop
      vertex -10.1127 7.34731 -21.6506
      vertex -14.3868 0 -12.5
      vertex -15.4094 3.01307 -10.3109
    endloop
  endfacet
  facet normal -0.906037 0 -0.423198
    outer loop
      vertex -10.1127 -7.34731 -21.6506
      vertex -14.3868 0 -12.5
      vertex -10.1127 7.34731 -21.6506
    endloop
  endfacet
  facet normal -0.906037 -1.29584e-007 -0.423198
    outer loop
      vertex -14.3868 0 -12.5
      vertex -10.1127 -7.34731 -21.6506
      vertex -15.4094 -3.01307 -10.3109
    endloop
  endfacet
  facet normal -0.906037 5.37223e-008 -0.423198
    outer loop
      vertex -10.1127 -7.34731 -21.6506
      vertex -18.4212 -11.8882 -3.86271
      vertex -15.4094 -3.01307 -10.3109
    endloop
  endfacet
  facet normal -0.906037 3.50411e-007 -0.423198
    outer loop
      vertex -18.4212 -11.8882 -3.86271
      vertex -10.1127 -7.34731 -21.6506
      vertex -20.2254 -14.6946 0
    endloop
  endfacet
  facet normal -0.906037 -0 -0.423198
    outer loop
      vertex -20.2254 14.6946 0
      vertex -18.4212 11.8882 -3.86271
      vertex -20.2254 10.6331 0
    endloop
  endfacet
  facet normal -0.906037 -0 -0.423198
    outer loop
      vertex -20.2254 -10.6331 0
      vertex -18.4212 -11.8882 -3.86271
      vertex -20.2254 -14.6946 0
    endloop
  endfacet
  facet normal -0.809017 -0.587785 -1.36696e-007
    outer loop
      vertex 7.16186 7.34731 10.1127
      vertex 3.86271 11.8882 11.8882
      vertex 6.66914 8.02549 8.02549
    endloop
  endfacet
  facet normal -0.809017 -0.587785 0
    outer loop
      vertex 3.86271 11.8882 11.8882
      vertex 7.16186 7.34731 10.1127
      vertex 3.86271 11.8882 21.6506
    endloop
  endfacet
  facet normal -0.809017 -0.587785 -0
    outer loop
      vertex 12.5 0 21.6506
      vertex 7.16186 7.34731 10.1127
      vertex 12.5 0 10.1127
    endloop
  endfacet
  facet normal -0.809017 -0.587785 1.35845e-008
    outer loop
      vertex 7.16186 7.34731 10.1127
      vertex 12.5 0 21.6506
      vertex 3.86271 11.8882 21.6506
    endloop
  endfacet
  facet normal -0.809017 -0.587785 0
    outer loop
      vertex 12.5 0 -12.5
      vertex 3.86271 11.8882 -11.8882
      vertex 3.86271 11.8882 -21.6506
    endloop
  endfacet
  facet normal -0.809017 -0.587785 -0
    outer loop
      vertex 12.5 0 -12.5
      vertex 3.86271 11.8882 -21.6506
      vertex 12.5 0 -21.6506
    endloop
  endfacet
  facet normal -0.809017 -0.587785 4.74516e-008
    outer loop
      vertex 3.86271 11.8882 -11.8882
      vertex 12.5 0 -12.5
      vertex 7.2399 7.2399 -7.2399
    endloop
  endfacet
  facet normal 1 -0 0
    outer loop
      vertex -10.1127 -7.34731 21.6506
      vertex -10.1127 7.34731 10.1127
      vertex -10.1127 7.34731 21.6506
    endloop
  endfacet
  facet normal 1 0 0
    outer loop
      vertex -10.1127 7.34731 10.1127
      vertex -10.1127 -7.34731 21.6506
      vertex -10.1127 -7.34731 10.1127
    endloop
  endfacet
  facet normal 1 0 0
    outer loop
      vertex -10.1127 -8.24585 7.34731
      vertex -10.1127 -14.372 7.34731
      vertex -10.1127 -11.8882 -3.86271
    endloop
  endfacet
  facet normal 1 0 0
    outer loop
      vertex -10.1127 -11.8882 -3.86271
      vertex -10.1127 -7.34731 -7.34731
      vertex -10.1127 -4.02055 -9.5789
    endloop
  endfacet
  facet normal 1 0 0
    outer loop
      vertex -10.1127 -11.8882 -3.86271
      vertex -10.1127 -14.372 -7.34731
      vertex -10.1127 -7.34731 -7.34731
    endloop
  endfacet
  facet normal 1 -0 0
    outer loop
      vertex -10.1127 -17.9804 0
      vertex -10.1127 -11.8882 -3.86271
      vertex -10.1127 -14.372 7.34731
    endloop
  endfacet
  facet normal 1 0 0
    outer loop
      vertex -10.1127 -11.8882 -3.86271
      vertex -10.1127 -17.9804 0
      vertex -10.1127 -14.372 -7.34731
    endloop
  endfacet
  facet normal 1 0 0
    outer loop
      vertex -10.1127 11.8882 -3.86271
      vertex -10.1127 17.9804 0
      vertex -10.1127 14.372 7.34731
    endloop
  endfacet
  facet normal 1 0 0
    outer loop
      vertex -10.1127 17.9804 0
      vertex -10.1127 11.8882 -3.86271
      vertex -10.1127 14.372 -7.34731
    endloop
  endfacet
  facet normal 1 0 -0
    outer loop
      vertex -10.1127 11.8882 -3.86271
      vertex -10.1127 14.372 7.34731
      vertex -10.1127 8.24585 7.34731
    endloop
  endfacet
  facet normal 1 0 0
    outer loop
      vertex -10.1127 11.8882 -3.86271
      vertex -10.1127 7.34731 -7.34731
      vertex -10.1127 14.372 -7.34731
    endloop
  endfacet
  facet normal 1 0 0
    outer loop
      vertex -10.1127 4.02055 -9.5789
      vertex -10.1127 7.34731 -7.34731
      vertex -10.1127 11.8882 -3.86271
    endloop
  endfacet
  facet normal 1 -0 0
    outer loop
      vertex -10.1127 4.02055 -9.5789
      vertex -10.1127 7.34731 -21.6506
      vertex -10.1127 7.34731 -7.34731
    endloop
  endfacet
  facet normal 1 -0 0
    outer loop
      vertex -10.1127 0 -12.5
      vertex -10.1127 7.34731 -21.6506
      vertex -10.1127 4.02055 -9.5789
    endloop
  endfacet
  facet normal 1 0 0
    outer loop
      vertex -10.1127 -7.34731 -21.6506
      vertex -10.1127 0 -12.5
      vertex -10.1127 -4.02055 -9.5789
    endloop
  endfacet
  facet normal 1 0 0
    outer loop
      vertex -10.1127 -7.34731 -21.6506
      vertex -10.1127 -4.02055 -9.5789
      vertex -10.1127 -7.34731 -7.34731
    endloop
  endfacet
  facet normal 1 0 0
    outer loop
      vertex -10.1127 0 -12.5
      vertex -10.1127 -7.34731 -21.6506
      vertex -10.1127 7.34731 -21.6506
    endloop
  endfacet
  facet normal 0.309017 -0.951057 0
    outer loop
      vertex -10.1127 7.34731 21.6506
      vertex 3.86271 11.8882 11.8882
      vertex 3.86271 11.8882 21.6506
    endloop
  endfacet
  facet normal 0.309017 -0.951057 0
    outer loop
      vertex -10.1127 7.34731 10.1127
      vertex 3.86271 11.8882 11.8882
      vertex -10.1127 7.34731 21.6506
    endloop
  endfacet
  facet normal 0.309017 -0.951057 -1.7034e-007
    outer loop
      vertex 3.86271 11.8882 11.8882
      vertex -10.1127 7.34731 10.1127
      vertex -8.02549 8.02549 8.02549
    endloop
  endfacet
  facet normal 0.309017 -0.951057 0
    outer loop
      vertex -10.1127 7.34731 -21.6506
      vertex 3.86271 11.8882 -11.8882
      vertex -10.1127 7.34731 -7.34731
    endloop
  endfacet
  facet normal 0.309017 -0.951057 0
    outer loop
      vertex 3.86271 11.8882 -11.8882
      vertex -10.1127 7.34731 -21.6506
      vertex 3.86271 11.8882 -21.6506
    endloop
  endfacet
  facet normal 0.309017 0.951057 0
    outer loop
      vertex -10.1127 -7.34731 -21.6506
      vertex 3.86271 -11.8882 -11.8882
      vertex 3.86271 -11.8882 -21.6506
    endloop
  endfacet
  facet normal 0.309017 0.951057 0
    outer loop
      vertex 3.86271 -11.8882 -11.8882
      vertex -10.1127 -7.34731 -21.6506
      vertex -10.1127 -7.34731 -7.34731
    endloop
  endfacet
  facet normal 0.309017 0.951057 -0
    outer loop
      vertex 3.86271 -11.8882 11.8882
      vertex -10.1127 -7.34731 21.6506
      vertex 3.86271 -11.8882 21.6506
    endloop
  endfacet
  facet normal 0.309017 0.951057 0
    outer loop
      vertex 3.86271 -11.8882 11.8882
      vertex -10.1127 -7.34731 10.1127
      vertex -10.1127 -7.34731 21.6506
    endloop
  endfacet
  facet normal 0.309017 0.951057 -1.7034e-007
    outer loop
      vertex -10.1127 -7.34731 10.1127
      vertex 3.86271 -11.8882 11.8882
      vertex -8.02549 -8.02549 8.02549
    endloop
  endfacet
  facet normal -0.809017 0.587785 0
    outer loop
      vertex 3.86271 -11.8882 -21.6506
      vertex 12.5 0 -12.5
      vertex 12.5 0 -21.6506
    endloop
  endfacet
  facet normal -0.809017 0.587785 0
    outer loop
      vertex 12.5 0 -12.5
      vertex 3.86271 -11.8882 -21.6506
      vertex 3.86271 -11.8882 -11.8882
    endloop
  endfacet
  facet normal -0.809017 0.587785 4.74516e-008
    outer loop
      vertex 12.5 0 -12.5
      vertex 3.86271 -11.8882 -11.8882
      vertex 7.2399 -7.2399 -7.2399
    endloop
  endfacet
  facet normal -0.809017 0.587785 0
    outer loop
      vertex 7.16186 -7.34731 10.1127
      vertex 12.5 0 21.6506
      vertex 12.5 0 10.1127
    endloop
  endfacet
  facet normal -0.809017 0.587785 -1.36696e-007
    outer loop
      vertex 3.86271 -11.8882 11.8882
      vertex 7.16186 -7.34731 10.1127
      vertex 6.66914 -8.02549 8.02549
    endloop
  endfacet
  facet normal -0.809017 0.587785 0
    outer loop
      vertex 3.86271 -11.8882 21.6506
      vertex 7.16186 -7.34731 10.1127
      vertex 3.86271 -11.8882 11.8882
    endloop
  endfacet
  facet normal -0.809017 0.587785 1.35845e-008
    outer loop
      vertex 7.16186 -7.34731 10.1127
      vertex 3.86271 -11.8882 21.6506
      vertex 12.5 0 21.6506
    endloop
  endfacet
  facet normal -0.809017 0 -0.587785
    outer loop
      vertex 12.5 10.6331 0
      vertex 6.17135 18.9935 8.71064
      vertex 12.5 17.2048 0
    endloop
  endfacet
  facet normal -0.809017 0 -0.587785
    outer loop
      vertex 6.17135 18.9935 8.71064
      vertex 3.86271 11.8882 11.8882
      vertex 3.86271 16.6828 11.8882
    endloop
  endfacet
  facet normal -0.809017 -4.3635e-008 -0.587785
    outer loop
      vertex 6.17135 18.9935 8.71064
      vertex 12.5 10.6331 0
      vertex 6.66914 8.02549 8.02549
    endloop
  endfacet
  facet normal -0.809017 -4.26774e-008 -0.587785
    outer loop
      vertex 6.17135 18.9935 8.71064
      vertex 6.66914 8.02549 8.02549
      vertex 3.86271 11.8882 11.8882
    endloop
  endfacet
  facet normal -0.809017 4.3635e-008 -0.587785
    outer loop
      vertex 6.17135 -18.9935 8.71064
      vertex 6.66914 -8.02549 8.02549
      vertex 12.5 -10.6331 0
    endloop
  endfacet
  facet normal -0.809017 4.26774e-008 -0.587785
    outer loop
      vertex 6.66914 -8.02549 8.02549
      vertex 6.17135 -18.9935 8.71064
      vertex 3.86271 -11.8882 11.8882
    endloop
  endfacet
  facet normal -0.809017 0 -0.587785
    outer loop
      vertex 6.17135 -18.9935 8.71064
      vertex 12.5 -10.6331 0
      vertex 12.5 -17.2048 0
    endloop
  endfacet
  facet normal -0.809017 -0 -0.587785
    outer loop
      vertex 3.86271 -11.8882 11.8882
      vertex 6.17135 -18.9935 8.71064
      vertex 3.86271 -16.6828 11.8882
    endloop
  endfacet
  facet normal 0.309017 -6.70576e-008 -0.951057
    outer loop
      vertex -10.1127 14.372 7.34731
      vertex 3.86271 11.8882 11.8882
      vertex -8.02549 8.02549 8.02549
    endloop
  endfacet
  facet normal 0.309017 0 -0.951056
    outer loop
      vertex -10.1127 14.372 7.34731
      vertex -8.02549 8.02549 8.02549
      vertex -10.1127 8.24585 7.34731
    endloop
  endfacet
  facet normal 0.309017 0 -0.951057
    outer loop
      vertex 3.86271 11.8882 11.8882
      vertex -10.1127 14.372 7.34731
      vertex 3.86271 16.6828 11.8882
    endloop
  endfacet
  facet normal 0.309017 0 -0.951057
    outer loop
      vertex -10.1127 -14.372 7.34731
      vertex 3.86271 -11.8882 11.8882
      vertex 3.86271 -16.6828 11.8882
    endloop
  endfacet
  facet normal 0.309017 6.70576e-008 -0.951057
    outer loop
      vertex 3.86271 -11.8882 11.8882
      vertex -10.1127 -14.372 7.34731
      vertex -8.02549 -8.02549 8.02549
    endloop
  endfacet
  facet normal 0.309017 0 -0.951056
    outer loop
      vertex -8.02549 -8.02549 8.02549
      vertex -10.1127 -14.372 7.34731
      vertex -10.1127 -8.24585 7.34731
    endloop
  endfacet
  facet normal 0.309017 0 0.951057
    outer loop
      vertex -10.1127 14.372 -7.34731
      vertex 3.86271 11.8882 -11.8882
      vertex 3.86271 16.6828 -11.8882
    endloop
  endfacet
  facet normal 0.309017 0 0.951057
    outer loop
      vertex 3.86271 11.8882 -11.8882
      vertex -10.1127 14.372 -7.34731
      vertex -10.1127 7.34731 -7.34731
    endloop
  endfacet
  facet normal 0.309017 -0 0.951057
    outer loop
      vertex -10.1127 -14.372 -7.34731
      vertex 3.86271 -11.8882 -11.8882
      vertex -10.1127 -7.34731 -7.34731
    endloop
  endfacet
  facet normal 0.309017 0 0.951057
    outer loop
      vertex 3.86271 -11.8882 -11.8882
      vertex -10.1127 -14.372 -7.34731
      vertex 3.86271 -16.6828 -11.8882
    endloop
  endfacet
  facet normal -0.809017 -3.69853e-008 0.587785
    outer loop
      vertex 3.86271 11.8882 -11.8882
      vertex 7.28761 7.33029 -7.17423
      vertex 9.69357 11.8882 -3.86271
    endloop
  endfacet
  facet normal -0.809017 -1.13538e-006 0.587785
    outer loop
      vertex 7.28761 7.33029 -7.17423
      vertex 3.86271 11.8882 -11.8882
      vertex 7.2399 7.2399 -7.2399
    endloop
  endfacet
  facet normal -0.809017 -4.97671e-008 0.587785
    outer loop
      vertex 9.69357 11.8882 -3.86271
      vertex 6.17135 18.9935 -8.71064
      vertex 3.86271 16.6828 -11.8882
    endloop
  endfacet
  facet normal -0.809017 0 0.587785
    outer loop
      vertex 9.69357 11.8882 -3.86271
      vertex 3.86271 16.6828 -11.8882
      vertex 3.86271 11.8882 -11.8882
    endloop
  endfacet
  facet normal -0.809017 1.01958e-008 0.587785
    outer loop
      vertex 6.17135 18.9935 -8.71064
      vertex 9.69357 11.8882 -3.86271
      vertex 12.5 17.2048 0
    endloop
  endfacet
  facet normal -0.809017 0 0.587785
    outer loop
      vertex 12.5 17.2048 0
      vertex 9.69357 11.8882 -3.86271
      vertex 12.5 10.6331 0
    endloop
  endfacet
  facet normal -0.809017 1.13538e-006 0.587785
    outer loop
      vertex 3.86271 -11.8882 -11.8882
      vertex 7.28761 -7.33029 -7.17423
      vertex 7.2399 -7.2399 -7.2399
    endloop
  endfacet
  facet normal -0.809017 3.69853e-008 0.587785
    outer loop
      vertex 3.86271 -11.8882 -11.8882
      vertex 9.69357 -11.8882 -3.86271
      vertex 7.28761 -7.33029 -7.17423
    endloop
  endfacet
  facet normal -0.809017 0 0.587785
    outer loop
      vertex 9.69357 -11.8882 -3.86271
      vertex 3.86271 -11.8882 -11.8882
      vertex 3.86271 -16.6828 -11.8882
    endloop
  endfacet
  facet normal -0.809017 4.97671e-008 0.587785
    outer loop
      vertex 6.17135 -18.9935 -8.71064
      vertex 9.69357 -11.8882 -3.86271
      vertex 3.86271 -16.6828 -11.8882
    endloop
  endfacet
  facet normal -0.809017 -1.01958e-008 0.587785
    outer loop
      vertex 12.5 -17.2048 0
      vertex 9.69357 -11.8882 -3.86271
      vertex 6.17135 -18.9935 -8.71064
    endloop
  endfacet
  facet normal -0.809017 0 0.587785
    outer loop
      vertex 9.69357 -11.8882 -3.86271
      vertex 12.5 -17.2048 0
      vertex 12.5 -10.6331 0
    endloop
  endfacet
  facet normal -1.74769e-008 -0.587785 0.809017
    outer loop
      vertex -10.1127 11.8882 -3.86271
      vertex -15.4094 3.01307 -10.3109
      vertex -10.1127 4.02055 -9.5789
    endloop
  endfacet
  facet normal 0 -0.587785 0.809017
    outer loop
      vertex -15.4094 3.01307 -10.3109
      vertex -10.1127 11.8882 -3.86271
      vertex -18.4212 11.8882 -3.86271
    endloop
  endfacet
  facet normal 0 -0.587785 0.809017
    outer loop
      vertex 9.69357 11.8882 -3.86271
      vertex 15.0772 8.81196 -6.09774
      vertex 14.1326 11.8882 -3.86271
    endloop
  endfacet
  facet normal -7.23891e-008 -0.587785 0.809017
    outer loop
      vertex 15.0772 8.81196 -6.09774
      vertex 9.69357 11.8882 -3.86271
      vertex 7.28761 7.33029 -7.17423
    endloop
  endfacet
  facet normal 0 -0.587785 0.809017
    outer loop
      vertex 16.2765 4.90633 -8.93534
      vertex 12.5 0 -12.5
      vertex 17.7831 0 -12.5
    endloop
  endfacet
  facet normal -7.84889e-008 -0.587785 0.809017
    outer loop
      vertex 7.28761 7.33029 -7.17423
      vertex 16.2765 4.90633 -8.93534
      vertex 15.0772 8.81196 -6.09774
    endloop
  endfacet
  facet normal -2.91154e-007 -0.587786 0.809017
    outer loop
      vertex 7.2399 7.2399 -7.2399
      vertex 16.2765 4.90633 -8.93534
      vertex 7.28761 7.33029 -7.17423
    endloop
  endfacet
  facet normal -7.55208e-008 -0.587785 0.809017
    outer loop
      vertex 16.2765 4.90633 -8.93534
      vertex 7.2399 7.2399 -7.2399
      vertex 12.5 0 -12.5
    endloop
  endfacet
  facet normal 0 -0.587785 0.809017
    outer loop
      vertex -10.1127 4.02055 -9.5789
      vertex -14.3868 0 -12.5
      vertex -10.1127 0 -12.5
    endloop
  endfacet
  facet normal -1.63977e-008 -0.587785 0.809017
    outer loop
      vertex -14.3868 0 -12.5
      vertex -10.1127 4.02055 -9.5789
      vertex -15.4094 3.01307 -10.3109
    endloop
  endfacet
  facet normal -1.74769e-008 0.587785 0.809017
    outer loop
      vertex -15.4094 -3.01307 -10.3109
      vertex -10.1127 -11.8882 -3.86271
      vertex -10.1127 -4.02055 -9.5789
    endloop
  endfacet
  facet normal 0 0.587785 0.809017
    outer loop
      vertex -10.1127 -11.8882 -3.86271
      vertex -15.4094 -3.01307 -10.3109
      vertex -18.4212 -11.8882 -3.86271
    endloop
  endfacet
  facet normal 0 0.587785 0.809017
    outer loop
      vertex 15.0772 -8.81196 -6.09774
      vertex 9.69357 -11.8882 -3.86271
      vertex 14.1326 -11.8882 -3.86271
    endloop
  endfacet
  facet normal -7.23891e-008 0.587785 0.809017
    outer loop
      vertex 9.69357 -11.8882 -3.86271
      vertex 15.0772 -8.81196 -6.09774
      vertex 7.28761 -7.33029 -7.17423
    endloop
  endfacet
  facet normal 0 0 -1
    outer loop
      vertex -15.5019 -7.34731 10.1127
      vertex -10.1127 7.34731 10.1127
      vertex -10.1127 -7.34731 10.1127
    endloop
  endfacet
  facet normal -0 0 -1
    outer loop
      vertex -10.1127 7.34731 10.1127
      vertex -15.5019 -7.34731 10.1127
      vertex -15.5019 7.34731 10.1127
    endloop
  endfacet
  facet normal 0 0 -1
    outer loop
      vertex 12.5 0 10.1127
      vertex 19.1614 0 10.1127
      vertex 15.1271 -5.55282 10.1127
    endloop
  endfacet
  facet normal 0 0 -1
    outer loop
      vertex 12.5 0 10.1127
      vertex 15.1271 -5.55282 10.1127
      vertex 13.8233 -7.34731 10.1127
    endloop
  endfacet
  facet normal 0 0 -1
    outer loop
      vertex 19.1614 0 10.1127
      vertex 12.5 0 10.1127
      vertex 15.1271 5.55282 10.1127
    endloop
  endfacet
  facet normal -0 0 -1
    outer loop
      vertex 15.1271 5.55282 10.1127
      vertex 12.5 0 10.1127
      vertex 13.8233 7.34731 10.1127
    endloop
  endfacet
  facet normal 0 -0 -1
    outer loop
      vertex 12.5 0 10.1127
      vertex 13.8233 -7.34731 10.1127
      vertex 7.16186 -7.34731 10.1127
    endloop
  endfacet
  facet normal -0 0 -1
    outer loop
      vertex 13.8233 7.34731 10.1127
      vertex 12.5 0 10.1127
      vertex 7.16186 7.34731 10.1127
    endloop
  endfacet
  facet normal 0 -0.951057 -0.309017
    outer loop
      vertex -10.1127 8.24585 7.34731
      vertex -10.1127 7.34731 10.1127
      vertex -15.5019 7.34731 10.1127
    endloop
  endfacet
  facet normal 2.29476e-007 -0.951057 -0.309017
    outer loop
      vertex -10.1127 7.34731 10.1127
      vertex -10.1127 8.24585 7.34731
      vertex -8.02549 8.02549 8.02549
    endloop
  endfacet
  facet normal -9.84023e-011 -0.951057 -0.309017
    outer loop
      vertex -20.2254 10.6331 0
      vertex -10.1127 8.24585 7.34731
      vertex -15.5019 7.34731 10.1127
    endloop
  endfacet
  facet normal -0 -0.951056 -0.309017
    outer loop
      vertex -10.1127 11.8882 -3.86271
      vertex -20.2254 10.6331 0
      vertex -18.4212 11.8882 -3.86271
    endloop
  endfacet
  facet normal 3.3724e-008 -0.951057 -0.309017
    outer loop
      vertex -20.2254 10.6331 0
      vertex -10.1127 11.8882 -3.86271
      vertex -10.1127 8.24585 7.34731
    endloop
  endfacet
  facet normal 0 -0.951056 -0.309017
    outer loop
      vertex 6.66914 8.02549 8.02549
      vertex 13.8233 7.34731 10.1127
      vertex 7.16186 7.34731 10.1127
    endloop
  endfacet
  facet normal -6.95347e-008 -0.951057 -0.309017
    outer loop
      vertex 12.5 10.6331 0
      vertex 13.8233 7.34731 10.1127
      vertex 6.66914 8.02549 8.02549
    endloop
  endfacet
  facet normal 0 -0.951057 -0.309017
    outer loop
      vertex 12.5 10.6331 0
      vertex 17.2746 10.6331 0
      vertex 13.8233 7.34731 10.1127
    endloop
  endfacet
  facet normal -0 -0.951056 -0.309017
    outer loop
      vertex 14.1326 11.8882 -3.86271
      vertex 12.5 10.6331 0
      vertex 9.69357 11.8882 -3.86271
    endloop
  endfacet
  facet normal 0 -0.951056 -0.309017
    outer loop
      vertex 12.5 10.6331 0
      vertex 14.1326 11.8882 -3.86271
      vertex 17.2746 10.6331 0
    endloop
  endfacet
  facet normal -0 0.587785 0.809017
    outer loop
      vertex 12.5 0 -12.5
      vertex 16.2765 -4.90633 -8.93534
      vertex 17.7831 0 -12.5
    endloop
  endfacet
  facet normal -7.55208e-008 0.587785 0.809017
    outer loop
      vertex 7.2399 -7.2399 -7.2399
      vertex 16.2765 -4.90633 -8.93534
      vertex 12.5 0 -12.5
    endloop
  endfacet
  facet normal -7.84889e-008 0.587785 0.809017
    outer loop
      vertex 16.2765 -4.90633 -8.93534
      vertex 7.28761 -7.33029 -7.17423
      vertex 15.0772 -8.81196 -6.09774
    endloop
  endfacet
  facet normal -2.91154e-007 0.587786 0.809017
    outer loop
      vertex 16.2765 -4.90633 -8.93534
      vertex 7.2399 -7.2399 -7.2399
      vertex 7.28761 -7.33029 -7.17423
    endloop
  endfacet
  facet normal -0 0.587785 0.809017
    outer loop
      vertex -14.3868 0 -12.5
      vertex -10.1127 -4.02055 -9.5789
      vertex -10.1127 0 -12.5
    endloop
  endfacet
  facet normal -1.63977e-008 0.587785 0.809017
    outer loop
      vertex -10.1127 -4.02055 -9.5789
      vertex -14.3868 0 -12.5
      vertex -15.4094 -3.01307 -10.3109
    endloop
  endfacet
  facet normal 2.29476e-007 0.951057 -0.309017
    outer loop
      vertex -10.1127 -8.24585 7.34731
      vertex -10.1127 -7.34731 10.1127
      vertex -8.02549 -8.02549 8.02549
    endloop
  endfacet
  facet normal 0 0.951057 -0.309017
    outer loop
      vertex -10.1127 -7.34731 10.1127
      vertex -10.1127 -8.24585 7.34731
      vertex -15.5019 -7.34731 10.1127
    endloop
  endfacet
  facet normal -9.84023e-011 0.951057 -0.309017
    outer loop
      vertex -10.1127 -8.24585 7.34731
      vertex -20.2254 -10.6331 0
      vertex -15.5019 -7.34731 10.1127
    endloop
  endfacet
  facet normal 3.3724e-008 0.951057 -0.309017
    outer loop
      vertex -10.1127 -11.8882 -3.86271
      vertex -20.2254 -10.6331 0
      vertex -10.1127 -8.24585 7.34731
    endloop
  endfacet
  facet normal 0 0.951056 -0.309017
    outer loop
      vertex -20.2254 -10.6331 0
      vertex -10.1127 -11.8882 -3.86271
      vertex -18.4212 -11.8882 -3.86271
    endloop
  endfacet
  facet normal 0 0.951056 -0.309017
    outer loop
      vertex 13.8233 -7.34731 10.1127
      vertex 6.66914 -8.02549 8.02549
      vertex 7.16186 -7.34731 10.1127
    endloop
  endfacet
  facet normal 0 0.951057 -0.309017
    outer loop
      vertex 12.5 -10.6331 0
      vertex 13.8233 -7.34731 10.1127
      vertex 17.2746 -10.6331 0
    endloop
  endfacet
  facet normal -6.95347e-008 0.951057 -0.309017
    outer loop
      vertex 13.8233 -7.34731 10.1127
      vertex 12.5 -10.6331 0
      vertex 6.66914 -8.02549 8.02549
    endloop
  endfacet
  facet normal 0 0.951056 -0.309017
    outer loop
      vertex 14.1326 -11.8882 -3.86271
      vertex 12.5 -10.6331 0
      vertex 17.2746 -10.6331 0
    endloop
  endfacet
  facet normal 0 0.951056 -0.309017
    outer loop
      vertex 12.5 -10.6331 0
      vertex 14.1326 -11.8882 -3.86271
      vertex 9.69357 -11.8882 -3.86271
    endloop
  endfacet
endsolid OpenSCAD_Model
