solid OpenSCAD_Model
  facet normal 0 0 -1
    outer loop
      vertex 209.556 84.2682 0
      vertex 218.103 86.6799 0
      vertex 218.497 84.3105 0
    endloop
  endfacet
  facet normal 0 0 -1
    outer loop
      vertex 209.556 84.2682 0
      vertex 218.497 84.3105 0
      vertex 214.954 70.2783 0
    endloop
  endfacet
  facet normal -0 0 -1
    outer loop
      vertex 218.103 86.6799 0
      vertex 209.556 84.2682 0
      vertex 210.867 88.7261 0
    endloop
  endfacet
  facet normal 0 0 -1
    outer loop
      vertex 204.543 75.8243 0
      vertex 214.954 70.2783 0
      vertex 214.5 69.2882 0
    endloop
  endfacet
  facet normal 0 0 -1
    outer loop
      vertex 218.103 86.6799 0
      vertex 210.867 88.7261 0
      vertex 216.26 89.5149 0
    endloop
  endfacet
  facet normal -0 0 -1
    outer loop
      vertex 216.26 89.5149 0
      vertex 210.867 88.7261 0
      vertex 214.819 90.6811 0
    endloop
  endfacet
  facet normal -0 0 -1
    outer loop
      vertex 214.819 90.6811 0
      vertex 210.867 88.7261 0
      vertex 212.967 90.7773 0
    endloop
  endfacet
  facet normal 0 0 -1
    outer loop
      vertex 212.967 90.7773 0
      vertex 210.867 88.7261 0
      vertex 211.413 89.7668 0
    endloop
  endfacet
  facet normal 0 0 -1
    outer loop
      vertex 214.954 70.2783 0
      vertex 204.543 75.8243 0
      vertex 209.556 84.2682 0
    endloop
  endfacet
  facet normal 0 0 -1
    outer loop
      vertex 214.5 69.2882 0
      vertex 200.216 71.3617 0
      vertex 204.543 75.8243 0
    endloop
  endfacet
  facet normal -0 0 -1
    outer loop
      vertex 214.5 69.2882 0
      vertex 193.98 64.6996 0
      vertex 200.216 71.3617 0
    endloop
  endfacet
  facet normal 0 0 -1
    outer loop
      vertex 214.5 69.2882 0
      vertex 193.923 64.6373 0
      vertex 193.98 64.6996 0
    endloop
  endfacet
  facet normal 0 0 -1
    outer loop
      vertex 214.5 69.2882 0
      vertex 187.403 57.2672 0
      vertex 193.923 64.6373 0
    endloop
  endfacet
  facet normal 0 0 -1
    outer loop
      vertex 186.718 29.7423 0
      vertex 187.403 57.2672 0
      vertex 214.5 69.2882 0
    endloop
  endfacet
  facet normal 0 0 -1
    outer loop
      vertex 187.403 57.2672 0
      vertex 186.718 29.7423 0
      vertex 187.201 57.013 0
    endloop
  endfacet
  facet normal 0 0 -1
    outer loop
      vertex 173.102 46.0316 0
      vertex 186.718 29.7423 0
      vertex 185.167 28.606 0
    endloop
  endfacet
  facet normal 0 0 -1
    outer loop
      vertex 186.718 29.7423 0
      vertex 184.983 53.8802 0
      vertex 187.201 57.013 0
    endloop
  endfacet
  facet normal 0 0 -1
    outer loop
      vertex 186.718 29.7423 0
      vertex 182.319 51.4704 0
      vertex 184.983 53.8802 0
    endloop
  endfacet
  facet normal 0 0 -1
    outer loop
      vertex 186.718 29.7423 0
      vertex 179.115 48.9074 0
      vertex 182.319 51.4704 0
    endloop
  endfacet
  facet normal 0 0 -1
    outer loop
      vertex 186.718 29.7423 0
      vertex 173.102 46.0316 0
      vertex 179.115 48.9074 0
    endloop
  endfacet
  facet normal 0 0 -1
    outer loop
      vertex 185.167 28.606 0
      vertex 166.93 44.1117 0
      vertex 173.102 46.0316 0
    endloop
  endfacet
  facet normal 0 0 -1
    outer loop
      vertex 185.167 28.606 0
      vertex 166.553 43.9656 0
      vertex 166.93 44.1117 0
    endloop
  endfacet
  facet normal 0 0 -1
    outer loop
      vertex 185.167 28.606 0
      vertex 162.724 42.1789 0
      vertex 166.553 43.9656 0
    endloop
  endfacet
  facet normal 0 0 -1
    outer loop
      vertex 142.077 14.9986 0
      vertex 162.724 42.1789 0
      vertex 185.167 28.606 0
    endloop
  endfacet
  facet normal 0 0 -1
    outer loop
      vertex 162.724 42.1789 0
      vertex 142.077 14.9986 0
      vertex 157.659 41.5293 0
    endloop
  endfacet
  facet normal 0 0 -1
    outer loop
      vertex 157.659 41.5293 0
      vertex 142.077 14.9986 0
      vertex 157.531 41.5101 0
    endloop
  endfacet
  facet normal 0 0 -1
    outer loop
      vertex 157.531 41.5101 0
      vertex 142.077 14.9986 0
      vertex 153.846 40.8745 0
    endloop
  endfacet
  facet normal -0 0 -1
    outer loop
      vertex 153.846 40.8745 0
      vertex 142.077 14.9986 0
      vertex 150.589 41.2507 0
    endloop
  endfacet
  facet normal -0 0 -1
    outer loop
      vertex 150.589 41.2507 0
      vertex 142.077 14.9986 0
      vertex 150.342 41.269 0
    endloop
  endfacet
  facet normal -0 0 -1
    outer loop
      vertex 150.342 41.269 0
      vertex 142.077 14.9986 0
      vertex 145.948 41.4106 0
    endloop
  endfacet
  facet normal 0 0 -1
    outer loop
      vertex 145.948 41.4106 0
      vertex 142.077 14.9986 0
      vertex 144.758 41.2058 0
    endloop
  endfacet
  facet normal 0 0 -1
    outer loop
      vertex 138.417 38.7241 0
      vertex 142.077 14.9986 0
      vertex 141.183 14.8594 0
    endloop
  endfacet
  facet normal 0 0 -1
    outer loop
      vertex 142.077 14.9986 0
      vertex 138.417 38.7241 0
      vertex 144.758 41.2058 0
    endloop
  endfacet
  facet normal 0 0 -1
    outer loop
      vertex 141.183 14.8594 0
      vertex 127.311 35.9475 0
      vertex 138.417 38.7241 0
    endloop
  endfacet
  facet normal 0 0 -1
    outer loop
      vertex 141.183 14.8594 0
      vertex 122.114 34.8239 0
      vertex 127.311 35.9475 0
    endloop
  endfacet
  facet normal 0 0 -1
    outer loop
      vertex 141.183 14.8594 0
      vertex 121.799 34.7377 0
      vertex 122.114 34.8239 0
    endloop
  endfacet
  facet normal 0 0 -1
    outer loop
      vertex 141.183 14.8594 0
      vertex 115.846 32.7533 0
      vertex 121.799 34.7377 0
    endloop
  endfacet
  facet normal 0 0 -1
    outer loop
      vertex 141.183 14.8594 0
      vertex 115.306 32.5119 0
      vertex 115.846 32.7533 0
    endloop
  endfacet
  facet normal 0 0 -1
    outer loop
      vertex 141.183 14.8594 0
      vertex 112.7 31.0222 0
      vertex 115.306 32.5119 0
    endloop
  endfacet
  facet normal 0 0 -1
    outer loop
      vertex 141.183 14.8594 0
      vertex 109.324 30.2073 0
      vertex 112.7 31.0222 0
    endloop
  endfacet
  facet normal 0 0 -1
    outer loop
      vertex 92.5712 14.7178 0
      vertex 109.324 30.2073 0
      vertex 141.183 14.8594 0
    endloop
  endfacet
  facet normal 0 0 -1
    outer loop
      vertex 109.324 30.2073 0
      vertex 92.5712 14.7178 0
      vertex 102.571 30.0823 0
    endloop
  endfacet
  facet normal -0 0 -1
    outer loop
      vertex 102.571 30.0823 0
      vertex 92.5712 14.7178 0
      vertex 99.7051 31.1575 0
    endloop
  endfacet
  facet normal -0 0 -1
    outer loop
      vertex 99.7051 31.1575 0
      vertex 92.5712 14.7178 0
      vertex 98.7323 31.3475 0
    endloop
  endfacet
  facet normal 0 0 -1
    outer loop
      vertex 92.5712 14.7178 0
      vertex 88.5376 31.6228 0
      vertex 98.7323 31.3475 0
    endloop
  endfacet
  facet normal 0 0 -1
    outer loop
      vertex 92.5712 14.7178 0
      vertex 80.2299 33.4987 0
      vertex 88.5376 31.6228 0
    endloop
  endfacet
  facet normal 0 0 -1
    outer loop
      vertex 92.5712 14.7178 0
      vertex 76.5895 34.8466 0
      vertex 80.2299 33.4987 0
    endloop
  endfacet
  facet normal 0 0 -1
    outer loop
      vertex 92.5712 14.7178 0
      vertex 75.9321 35.0085 0
      vertex 76.5895 34.8466 0
    endloop
  endfacet
  facet normal 0 0 -1
    outer loop
      vertex 70.5436 35.5378 0
      vertex 75.9321 35.0085 0
      vertex 92.5712 14.7178 0
    endloop
  endfacet
  facet normal 0 0 -1
    outer loop
      vertex 75.9321 35.0085 0
      vertex 70.5436 35.5378 0
      vertex 71.5385 35.5759 0
    endloop
  endfacet
  facet normal 0 0 -1
    outer loop
      vertex 92.5712 14.7178 0
      vertex 56.9171 32.7047 0
      vertex 70.5436 35.5378 0
    endloop
  endfacet
  facet normal 0 0 -1
    outer loop
      vertex 34.1737 14.4346 0
      vertex 56.9171 32.7047 0
      vertex 92.5712 14.7178 0
    endloop
  endfacet
  facet normal -0 0 -1
    outer loop
      vertex 56.9171 32.7047 0
      vertex 34.1737 14.4346 0
      vertex 43 36.3531 0
    endloop
  endfacet
  facet normal -0 0 -1
    outer loop
      vertex 43 36.3531 0
      vertex 34.1737 14.4346 0
      vertex 42.1195 36.4488 0
    endloop
  endfacet
  facet normal 0 0 -1
    outer loop
      vertex 42.1195 36.4488 0
      vertex 34.1737 14.4346 0
      vertex 38.729 36.3133 0
    endloop
  endfacet
  facet normal -0 0 -1
    outer loop
      vertex 38.729 36.3133 0
      vertex 34.1737 14.4346 0
      vertex 34.6707 36.5667 0
    endloop
  endfacet
  facet normal 0 0 -1
    outer loop
      vertex 32.8284 14.7459 0
      vertex 34.6707 36.5667 0
      vertex 34.1737 14.4346 0
    endloop
  endfacet
  facet normal 0 0 -1
    outer loop
      vertex 32.8284 14.7459 0
      vertex 32.4422 37.2035 0
      vertex 34.6707 36.5667 0
    endloop
  endfacet
  facet normal 0 0 -1
    outer loop
      vertex 32.8284 14.7459 0
      vertex 29.7565 38.9551 0
      vertex 32.4422 37.2035 0
    endloop
  endfacet
  facet normal 0 0 -1
    outer loop
      vertex 4.76395 28.6365 0
      vertex 29.7565 38.9551 0
      vertex 32.8284 14.7459 0
    endloop
  endfacet
  facet normal -0 -0 -1
    outer loop
      vertex 22.2167 42.5206 0
      vertex 29.7565 38.9551 0
      vertex 21.7449 42.5447 0
    endloop
  endfacet
  facet normal 0 0 -1
    outer loop
      vertex 27.0945 41.3503 0
      vertex 22.2167 42.5206 0
      vertex 25.4764 42.0948 0
    endloop
  endfacet
  facet normal 0 0 -1
    outer loop
      vertex 29.7565 38.9551 0
      vertex 22.2167 42.5206 0
      vertex 27.0945 41.3503 0
    endloop
  endfacet
  facet normal -0 0 -1
    outer loop
      vertex 29.7565 38.9551 0
      vertex 4.76395 28.6365 0
      vertex 21.7449 42.5447 0
    endloop
  endfacet
  facet normal 0 0 -1
    outer loop
      vertex 21.7449 42.5447 0
      vertex 4.76395 28.6365 0
      vertex 17.3448 42.4226 0
    endloop
  endfacet
  facet normal -0 0 -1
    outer loop
      vertex 17.3448 42.4226 0
      vertex 4.76395 28.6365 0
      vertex 16.1401 42.9787 0
    endloop
  endfacet
  facet normal -0 0 -1
    outer loop
      vertex 16.1401 42.9787 0
      vertex 4.76395 28.6365 0
      vertex 15.7364 43.1309 0
    endloop
  endfacet
  facet normal 0 0 -1
    outer loop
      vertex 3.19153 30.5692 0
      vertex 15.7364 43.1309 0
      vertex 4.76395 28.6365 0
    endloop
  endfacet
  facet normal -0 0 -1
    outer loop
      vertex 15.7364 43.1309 0
      vertex 3.19153 30.5692 0
      vertex 7.03864 45.7124 0
    endloop
  endfacet
  facet normal 0 0 -1
    outer loop
      vertex -0.351439 44.1757 0
      vertex 7.03864 45.7124 0
      vertex 3.19153 30.5692 0
    endloop
  endfacet
  facet normal -0 0 -1
    outer loop
      vertex 7.03864 45.7124 0
      vertex -0.351439 44.1757 0
      vertex 4.11169 47.4942 0
    endloop
  endfacet
  facet normal -0 0 -1
    outer loop
      vertex 4.11169 47.4942 0
      vertex -0.351439 44.1757 0
      vertex 2.30756 47.9217 0
    endloop
  endfacet
  facet normal 0 0 -1
    outer loop
      vertex 2.30756 47.9217 0
      vertex -0.351439 44.1757 0
      vertex 0.596695 47.2071 0
    endloop
  endfacet
  facet normal 0 0 -1
    outer loop
      vertex 0.596695 47.2071 0
      vertex -0.351439 44.1757 0
      vertex -0.3674 45.6234 0
    endloop
  endfacet
  facet normal -0 0 1
    outer loop
      vertex 220.908 64.4287 10
      vertex 229.472 61.6554 10
      vertex 227.201 65.1788 10
    endloop
  endfacet
  facet normal 0 0 1
    outer loop
      vertex 229.472 61.6554 10
      vertex 219.545 59.0522 10
      vertex 230.026 58.7553 10
    endloop
  endfacet
  facet normal 0 0 1
    outer loop
      vertex 230.026 58.7553 10
      vertex 219.545 59.0522 10
      vertex 226.418 41.8091 10
    endloop
  endfacet
  facet normal 0 0 1
    outer loop
      vertex 220.908 64.4287 10
      vertex 227.201 65.1788 10
      vertex 225.465 66.6548 10
    endloop
  endfacet
  facet normal 0 0 1
    outer loop
      vertex 220.908 64.4287 10
      vertex 225.465 66.6548 10
      vertex 223.291 66.8441 10
    endloop
  endfacet
  facet normal 0 0 1
    outer loop
      vertex 220.908 64.4287 10
      vertex 223.291 66.8441 10
      vertex 221.507 65.6744 10
    endloop
  endfacet
  facet normal 0 0 1
    outer loop
      vertex 229.472 61.6554 10
      vertex 220.908 64.4287 10
      vertex 219.545 59.0522 10
    endloop
  endfacet
  facet normal -0 0 1
    outer loop
      vertex 213.996 48.9672 10
      vertex 226.418 41.8091 10
      vertex 219.545 59.0522 10
    endloop
  endfacet
  facet normal 0 0 1
    outer loop
      vertex 226.418 41.8091 10
      vertex 213.996 48.9672 10
      vertex 225.925 40.6214 10
    endloop
  endfacet
  facet normal -0 0 1
    outer loop
      vertex 209.096 43.7025 10
      vertex 225.925 40.6214 10
      vertex 213.996 48.9672 10
    endloop
  endfacet
  facet normal 0 0 1
    outer loop
      vertex 202.044 35.8344 10
      vertex 225.925 40.6214 10
      vertex 209.096 43.7025 10
    endloop
  endfacet
  facet normal 0 0 1
    outer loop
      vertex 201.98 35.7608 10
      vertex 225.925 40.6214 10
      vertex 202.044 35.8344 10
    endloop
  endfacet
  facet normal 0 0 1
    outer loop
      vertex 194.622 27.0418 10
      vertex 225.925 40.6214 10
      vertex 201.98 35.7608 10
    endloop
  endfacet
  facet normal 0 0 1
    outer loop
      vertex 225.925 40.6214 10
      vertex 194.622 27.0418 10
      vertex 194.892 -6.4431 10
    endloop
  endfacet
  facet normal -0 0 1
    outer loop
      vertex 194.395 26.7401 10
      vertex 194.892 -6.4431 10
      vertex 194.622 27.0418 10
    endloop
  endfacet
  facet normal -0 0 1
    outer loop
      vertex 191.917 23.0125 10
      vertex 194.892 -6.4431 10
      vertex 194.395 26.7401 10
    endloop
  endfacet
  facet normal -0 0 1
    outer loop
      vertex 188.887 20.1824 10
      vertex 194.892 -6.4431 10
      vertex 191.917 23.0125 10
    endloop
  endfacet
  facet normal -0 0 1
    outer loop
      vertex 185.23 17.1867 10
      vertex 194.892 -6.4431 10
      vertex 188.887 20.1824 10
    endloop
  endfacet
  facet normal -0 0 1
    outer loop
      vertex 178.292 13.9198 10
      vertex 194.892 -6.4431 10
      vertex 185.23 17.1867 10
    endloop
  endfacet
  facet normal 0 0 1
    outer loop
      vertex 194.892 -6.4431 10
      vertex 178.292 13.9198 10
      vertex 193.118 -7.766 10
    endloop
  endfacet
  facet normal -0 0 1
    outer loop
      vertex 171.131 11.8228 10
      vertex 193.118 -7.766 10
      vertex 178.292 13.9198 10
    endloop
  endfacet
  facet normal -0 0 1
    outer loop
      vertex 170.694 11.6597 10
      vertex 193.118 -7.766 10
      vertex 171.131 11.8228 10
    endloop
  endfacet
  facet normal -0 0 1
    outer loop
      vertex 166.274 9.63355 10
      vertex 193.118 -7.766 10
      vertex 170.694 11.6597 10
    endloop
  endfacet
  facet normal 0 0 1
    outer loop
      vertex 143.125 -22.6538 10
      vertex 166.274 9.63355 10
      vertex 160.361 9.04012 10
    endloop
  endfacet
  facet normal 0 0 1
    outer loop
      vertex 143.125 -22.6538 10
      vertex 160.361 9.04012 10
      vertex 160.212 9.02164 10
    endloop
  endfacet
  facet normal 0 0 1
    outer loop
      vertex 143.125 -22.6538 10
      vertex 160.212 9.02164 10
      vertex 155.916 8.3914 10
    endloop
  endfacet
  facet normal 0 0 1
    outer loop
      vertex 143.125 -22.6538 10
      vertex 155.916 8.3914 10
      vertex 152.083 8.97638 10
    endloop
  endfacet
  facet normal 0 0 1
    outer loop
      vertex 143.125 -22.6538 10
      vertex 152.083 8.97638 10
      vertex 151.791 9.00827 10
    endloop
  endfacet
  facet normal -0 0 1
    outer loop
      vertex 145.247 9.14897 10
      vertex 151.791 9.00827 10
      vertex 146.634 9.35189 10
    endloop
  endfacet
  facet normal 0 0 1
    outer loop
      vertex 151.791 9.00827 10
      vertex 145.247 9.14897 10
      vertex 143.125 -22.6538 10
    endloop
  endfacet
  facet normal 0 0 1
    outer loop
      vertex 166.274 9.63355 10
      vertex 143.125 -22.6538 10
      vertex 193.118 -7.766 10
    endloop
  endfacet
  facet normal -0 0 1
    outer loop
      vertex 137.909 6.37468 10
      vertex 143.125 -22.6538 10
      vertex 145.247 9.14897 10
    endloop
  endfacet
  facet normal 0 0 1
    outer loop
      vertex 143.125 -22.6538 10
      vertex 137.909 6.37468 10
      vertex 142.082 -22.7884 10
    endloop
  endfacet
  facet normal -0 0 1
    outer loop
      vertex 124.995 3.42689 10
      vertex 142.082 -22.7884 10
      vertex 137.909 6.37468 10
    endloop
  endfacet
  facet normal -0 0 1
    outer loop
      vertex 118.946 2.26143 10
      vertex 142.082 -22.7884 10
      vertex 124.995 3.42689 10
    endloop
  endfacet
  facet normal -0 0 1
    outer loop
      vertex 118.58 2.16875 10
      vertex 142.082 -22.7884 10
      vertex 118.946 2.26143 10
    endloop
  endfacet
  facet normal -0 0 1
    outer loop
      vertex 111.677 -0.0152283 10
      vertex 142.082 -22.7884 10
      vertex 118.58 2.16875 10
    endloop
  endfacet
  facet normal 0 0 1
    outer loop
      vertex 108.056 -2.00015 10
      vertex 111.677 -0.0152283 10
      vertex 111.054 -0.288121 10
    endloop
  endfacet
  facet normal 0 0 1
    outer loop
      vertex 111.677 -0.0152283 10
      vertex 108.056 -2.00015 10
      vertex 142.082 -22.7884 10
    endloop
  endfacet
  facet normal 0 0 1
    outer loop
      vertex 85.0902 -21.0664 10
      vertex 108.056 -2.00015 10
      vertex 104.129 -2.86082 10
    endloop
  endfacet
  facet normal 0 0 1
    outer loop
      vertex 85.0902 -21.0664 10
      vertex 104.129 -2.86082 10
      vertex 96.2163 -2.74975 10
    endloop
  endfacet
  facet normal 0 0 1
    outer loop
      vertex 85.0902 -21.0664 10
      vertex 96.2163 -2.74975 10
      vertex 92.814 -1.32907 10
    endloop
  endfacet
  facet normal 0 0 1
    outer loop
      vertex 85.0902 -21.0664 10
      vertex 92.814 -1.32907 10
      vertex 91.6661 -1.05978 10
    endloop
  endfacet
  facet normal 0 0 1
    outer loop
      vertex 108.056 -2.00015 10
      vertex 85.0902 -21.0664 10
      vertex 142.082 -22.7884 10
    endloop
  endfacet
  facet normal 0 0 1
    outer loop
      vertex 79.702 -0.327316 10
      vertex 85.0902 -21.0664 10
      vertex 91.6661 -1.05978 10
    endloop
  endfacet
  facet normal 0 0 1
    outer loop
      vertex 69.8881 2.28033 10
      vertex 85.0902 -21.0664 10
      vertex 79.702 -0.327316 10
    endloop
  endfacet
  facet normal 0 0 1
    outer loop
      vertex 58.4515 5.14039 10
      vertex 69.8881 2.28033 10
      vertex 65.5672 4.06322 10
    endloop
  endfacet
  facet normal 0 0 1
    outer loop
      vertex 58.4515 5.14039 10
      vertex 65.5672 4.06322 10
      vertex 64.7901 4.286 10
    endloop
  endfacet
  facet normal -0 0 1
    outer loop
      vertex 58.4515 5.14039 10
      vertex 64.7901 4.286 10
      vertex 59.6165 5.14801 10
    endloop
  endfacet
  facet normal 0 0 1
    outer loop
      vertex 69.8881 2.28033 10
      vertex 58.4515 5.14039 10
      vertex 85.0902 -21.0664 10
    endloop
  endfacet
  facet normal -0 0 1
    outer loop
      vertex 42.5848 2.2221 10
      vertex 85.0902 -21.0664 10
      vertex 58.4515 5.14039 10
    endloop
  endfacet
  facet normal 0 0 1
    outer loop
      vertex 16.6302 -19.1353 10
      vertex 42.5848 2.2221 10
      vertex 26.1249 7.20646 10
    endloop
  endfacet
  facet normal 0 0 1
    outer loop
      vertex 16.6302 -19.1353 10
      vertex 26.1249 7.20646 10
      vertex 25.0887 7.35725 10
    endloop
  endfacet
  facet normal 0 0 1
    outer loop
      vertex 16.6302 -19.1353 10
      vertex 25.0887 7.35725 10
      vertex 21.1187 7.32445 10
    endloop
  endfacet
  facet normal 0 0 1
    outer loop
      vertex 42.5848 2.2221 10
      vertex 16.6302 -19.1353 10
      vertex 85.0902 -21.0664 10
    endloop
  endfacet
  facet normal 0 0 1
    outer loop
      vertex 15.0407 -18.7039 10
      vertex 21.1187 7.32445 10
      vertex 16.3505 7.79109 10
    endloop
  endfacet
  facet normal 0 0 1
    outer loop
      vertex 21.1187 7.32445 10
      vertex 15.0407 -18.7039 10
      vertex 16.6302 -19.1353 10
    endloop
  endfacet
  facet normal 0 0 1
    outer loop
      vertex 13.7127 8.65327 10
      vertex 15.0407 -18.7039 10
      vertex 16.3505 7.79109 10
    endloop
  endfacet
  facet normal 0 0 1
    outer loop
      vertex 10.4954 10.8905 10
      vertex 15.0407 -18.7039 10
      vertex 13.7127 8.65327 10
    endloop
  endfacet
  facet normal 0 0 1
    outer loop
      vertex 1.51602 15.5254 10
      vertex 10.4954 10.8905 10
      vertex 7.28086 13.9104 10
    endloop
  endfacet
  facet normal 0 0 1
    outer loop
      vertex 1.51602 15.5254 10
      vertex 7.28086 13.9104 10
      vertex 5.35469 14.8799 10
    endloop
  endfacet
  facet normal 0 0 1
    outer loop
      vertex 0.961929 15.5731 10
      vertex 10.4954 10.8905 10
      vertex 1.51602 15.5254 10
    endloop
  endfacet
  facet normal 0 0 1
    outer loop
      vertex 10.4954 10.8905 10
      vertex 0.961929 15.5731 10
      vertex -18.4062 -0.698399 10
    endloop
  endfacet
  facet normal 0 0 1
    outer loop
      vertex -18.4062 -0.698399 10
      vertex 0.961929 15.5731 10
      vertex -4.19241 15.5959 10
    endloop
  endfacet
  facet normal 0 0 1
    outer loop
      vertex -18.4062 -0.698399 10
      vertex -4.19241 15.5959 10
      vertex -5.62664 16.3199 10
    endloop
  endfacet
  facet normal 0 0 1
    outer loop
      vertex -18.4062 -0.698399 10
      vertex -5.62664 16.3199 10
      vertex -6.10586 16.5209 10
    endloop
  endfacet
  facet normal 0 0 1
    outer loop
      vertex -20.3252 1.71597 10
      vertex -6.10586 16.5209 10
      vertex -16.4046 20.0029 10
    endloop
  endfacet
  facet normal 0 0 1
    outer loop
      vertex 10.4954 10.8905 10
      vertex -18.4062 -0.698399 10
      vertex 15.0407 -18.7039 10
    endloop
  endfacet
  facet normal 0 0 1
    outer loop
      vertex -25.0096 18.4199 10
      vertex -16.4046 20.0029 10
      vertex -19.9059 22.2862 10
    endloop
  endfacet
  facet normal 0 0 1
    outer loop
      vertex -6.10586 16.5209 10
      vertex -20.3252 1.71597 10
      vertex -18.4062 -0.698399 10
    endloop
  endfacet
  facet normal 0 0 1
    outer loop
      vertex -25.0847 20.1831 10
      vertex -19.9059 22.2862 10
      vertex -22.0379 22.877 10
    endloop
  endfacet
  facet normal 0 0 1
    outer loop
      vertex -25.0847 20.1831 10
      vertex -22.0379 22.877 10
      vertex -24.016 22.0737 10
    endloop
  endfacet
  facet normal 0 0 1
    outer loop
      vertex -16.4046 20.0029 10
      vertex -25.0096 18.4199 10
      vertex -20.3252 1.71597 10
    endloop
  endfacet
  facet normal 0 0 1
    outer loop
      vertex -19.9059 22.2862 10
      vertex -25.0847 20.1831 10
      vertex -25.0096 18.4199 10
    endloop
  endfacet
  facet normal 0.000784343 -0.269294 -0.963058
    outer loop
      vertex 92.5712 14.7178 0
      vertex 141.183 14.8594 0
      vertex 85.0902 -21.0664 10
    endloop
  endfacet
  facet normal -0.00776202 -0.256883 -0.966411
    outer loop
      vertex 141.183 14.8594 0
      vertex 142.082 -22.7884 10
      vertex 85.0902 -21.0664 10
    endloop
  endfacet
  facet normal 0.039784 -0.255627 -0.965957
    outer loop
      vertex 142.077 14.9986 0
      vertex 142.082 -22.7884 10
      vertex 141.183 14.8594 0
    endloop
  endfacet
  facet normal 0.0329933 -0.255691 -0.966195
    outer loop
      vertex 143.125 -22.6538 10
      vertex 142.082 -22.7884 10
      vertex 142.077 14.9986 0
    endloop
  endfacet
  facet normal 0.0801414 -0.253779 -0.963936
    outer loop
      vertex 185.167 28.606 0
      vertex 143.125 -22.6538 10
      vertex 142.077 14.9986 0
    endloop
  endfacet
  facet normal 0.0742268 -0.249251 -0.96559
    outer loop
      vertex 185.167 28.606 0
      vertex 193.118 -7.766 10
      vertex 143.125 -22.6538 10
    endloop
  endfacet
  facet normal 0.166535 -0.227387 -0.959459
    outer loop
      vertex 186.718 29.7423 0
      vertex 193.118 -7.766 10
      vertex 185.167 28.606 0
    endloop
  endfacet
  facet normal 0.169105 -0.226862 -0.959134
    outer loop
      vertex 194.892 -6.4431 10
      vertex 193.118 -7.766 10
      vertex 186.718 29.7423 0
    endloop
  endfacet
  facet normal 0.279735 -0.196515 -0.93975
    outer loop
      vertex 214.5 69.2882 0
      vertex 194.892 -6.4431 10
      vertex 186.718 29.7423 0
    endloop
  endfacet
  facet normal 0.306687 -0.202217 -0.930081
    outer loop
      vertex 214.5 69.2882 0
      vertex 225.925 40.6214 10
      vertex 194.892 -6.4431 10
    endloop
  endfacet
  facet normal 0.371498 -0.170316 -0.912678
    outer loop
      vertex 214.954 70.2783 0
      vertex 225.925 40.6214 10
      vertex 214.5 69.2882 0
    endloop
  endfacet
  facet normal 0.389247 -0.161774 -0.906816
    outer loop
      vertex 226.418 41.8091 10
      vertex 225.925 40.6214 10
      vertex 214.954 70.2783 0
    endloop
  endfacet
  facet normal 0.469166 -0.118459 -0.875129
    outer loop
      vertex 218.497 84.3105 0
      vertex 226.418 41.8091 10
      vertex 214.954 70.2783 0
    endloop
  endfacet
  facet normal 0.50477 -0.107449 -0.85654
    outer loop
      vertex 230.026 58.7553 10
      vertex 226.418 41.8091 10
      vertex 218.497 84.3105 0
    endloop
  endfacet
  facet normal 0.80105 0.133006 -0.583633
    outer loop
      vertex 230.026 58.7553 10
      vertex 218.497 84.3105 0
      vertex 218.103 86.6799 0
    endloop
  endfacet
  facet normal 0.82452 0.157398 -0.543501
    outer loop
      vertex 229.472 61.6554 10
      vertex 230.026 58.7553 10
      vertex 218.103 86.6799 0
    endloop
  endfacet
  facet normal 0.775594 0.50415 0.379851
    outer loop
      vertex 229.472 61.6554 10
      vertex 218.103 86.6799 0
      vertex 216.26 89.5149 0
    endloop
  endfacet
  facet normal 0.780685 0.503221 0.37054
    outer loop
      vertex 227.201 65.1788 10
      vertex 229.472 61.6554 10
      vertex 216.26 89.5149 0
    endloop
  endfacet
  facet normal 0.401923 0.496764 0.76921
    outer loop
      vertex 227.201 65.1788 10
      vertex 216.26 89.5149 0
      vertex 214.819 90.6811 0
    endloop
  endfacet
  facet normal 0.427131 0.502213 0.751891
    outer loop
      vertex 225.465 66.6548 10
      vertex 227.201 65.1788 10
      vertex 214.819 90.6811 0
    endloop
  endfacet
  facet normal 0.0203668 0.391856 0.919801
    outer loop
      vertex 225.465 66.6548 10
      vertex 214.819 90.6811 0
      vertex 212.967 90.7773 0
    endloop
  endfacet
  facet normal 0.0346467 0.397984 0.916738
    outer loop
      vertex 223.291 66.8441 10
      vertex 225.465 66.6548 10
      vertex 212.967 90.7773 0
    endloop
  endfacet
  facet normal -0.197677 0.304111 0.931901
    outer loop
      vertex 223.291 66.8441 10
      vertex 212.967 90.7773 0
      vertex 211.413 89.7668 0
    endloop
  endfacet
  facet normal -0.199001 0.303403 0.931851
    outer loop
      vertex 221.507 65.6744 10
      vertex 223.291 66.8441 10
      vertex 211.413 89.7668 0
    endloop
  endfacet
  facet normal -0.393966 0.206664 0.89559
    outer loop
      vertex 221.507 65.6744 10
      vertex 211.413 89.7668 0
      vertex 210.867 88.7261 0
    endloop
  endfacet
  facet normal -0.409775 0.197208 0.890614
    outer loop
      vertex 220.908 64.4287 10
      vertex 221.507 65.6744 10
      vertex 210.867 88.7261 0
    endloop
  endfacet
  facet normal -0.497541 0.146288 0.855016
    outer loop
      vertex 220.908 64.4287 10
      vertex 210.867 88.7261 0
      vertex 209.556 84.2682 0
    endloop
  endfacet
  facet normal -0.516548 0.130961 0.846184
    outer loop
      vertex 219.545 59.0522 10
      vertex 220.908 64.4287 10
      vertex 209.556 84.2682 0
    endloop
  endfacet
  facet normal -0.363162 0.215614 0.906435
    outer loop
      vertex 219.545 59.0522 10
      vertex 209.556 84.2682 0
      vertex 204.543 75.8243 0
    endloop
  endfacet
  facet normal -0.373362 0.205429 0.904655
    outer loop
      vertex 213.996 48.9672 10
      vertex 219.545 59.0522 10
      vertex 204.543 75.8243 0
    endloop
  endfacet
  facet normal -0.262273 0.254295 0.930885
    outer loop
      vertex 213.996 48.9672 10
      vertex 204.543 75.8243 0
      vertex 200.216 71.3617 0
    endloop
  endfacet
  facet normal -0.268687 0.250045 0.930207
    outer loop
      vertex 209.096 43.7025 10
      vertex 213.996 48.9672 10
      vertex 200.216 71.3617 0
    endloop
  endfacet
  facet normal -0.267577 0.250476 0.930411
    outer loop
      vertex 209.096 43.7025 10
      vertex 200.216 71.3617 0
      vertex 193.98 64.6996 0
    endloop
  endfacet
  facet normal -0.273991 0.245589 0.929847
    outer loop
      vertex 202.044 35.8344 10
      vertex 209.096 43.7025 10
      vertex 193.98 64.6996 0
    endloop
  endfacet
  facet normal -0.270988 0.246637 0.930449
    outer loop
      vertex 202.044 35.8344 10
      vertex 193.98 64.6996 0
      vertex 193.923 64.6373 0
    endloop
  endfacet
  facet normal -0.279882 0.243501 0.928641
    outer loop
      vertex 201.98 35.7608 10
      vertex 202.044 35.8344 10
      vertex 193.923 64.6373 0
    endloop
  endfacet
  facet normal -0.27655 0.24467 0.929331
    outer loop
      vertex 201.98 35.7608 10
      vertex 193.923 64.6373 0
      vertex 187.403 57.2672 0
    endloop
  endfacet
  facet normal -0.283723 0.239437 0.928532
    outer loop
      vertex 194.622 27.0418 10
      vertex 201.98 35.7608 10
      vertex 187.403 57.2672 0
    endloop
  endfacet
  facet normal -0.296857 0.23529 0.925481
    outer loop
      vertex 194.622 27.0418 10
      vertex 187.403 57.2672 0
      vertex 187.201 57.013 0
    endloop
  endfacet
  facet normal -0.308473 0.231467 0.922642
    outer loop
      vertex 194.395 26.7401 10
      vertex 194.622 27.0418 10
      vertex 187.201 57.013 0
    endloop
  endfacet
  facet normal -0.321107 0.227374 0.919343
    outer loop
      vertex 194.395 26.7401 10
      vertex 187.201 57.013 0
      vertex 184.983 53.8802 0
    endloop
  endfacet
  facet normal -0.33365 0.221872 0.916215
    outer loop
      vertex 191.917 23.0125 10
      vertex 194.395 26.7401 10
      vertex 184.983 53.8802 0
    endloop
  endfacet
  facet normal -0.228928 0.25309 0.939967
    outer loop
      vertex 191.917 23.0125 10
      vertex 184.983 53.8802 0
      vertex 182.319 51.4704 0
    endloop
  endfacet
  facet normal -0.234421 0.250962 0.939183
    outer loop
      vertex 188.887 20.1824 10
      vertex 191.917 23.0125 10
      vertex 182.319 51.4704 0
    endloop
  endfacet
  facet normal -0.206591 0.258257 0.943728
    outer loop
      vertex 188.887 20.1824 10
      vertex 182.319 51.4704 0
      vertex 179.115 48.9074 0
    endloop
  endfacet
  facet normal -0.210379 0.256814 0.943285
    outer loop
      vertex 185.23 17.1867 10
      vertex 188.887 20.1824 10
      vertex 179.115 48.9074 0
    endloop
  endfacet
  facet normal -0.131484 0.27491 0.952437
    outer loop
      vertex 185.23 17.1867 10
      vertex 179.115 48.9074 0
      vertex 173.102 46.0316 0
    endloop
  endfacet
  facet normal -0.12979 0.27563 0.952461
    outer loop
      vertex 178.292 13.9198 10
      vertex 185.23 17.1867 10
      vertex 173.102 46.0316 0
    endloop
  endfacet
  facet normal -0.0880887 0.283166 0.955017
    outer loop
      vertex 178.292 13.9198 10
      vertex 173.102 46.0316 0
      vertex 166.93 44.1117 0
    endloop
  endfacet
  facet normal -0.0834204 0.284892 0.954923
    outer loop
      vertex 171.131 11.8228 10
      vertex 178.292 13.9198 10
      vertex 166.93 44.1117 0
    endloop
  endfacet
  facet normal -0.108762 0.281148 0.953481
    outer loop
      vertex 171.131 11.8228 10
      vertex 166.93 44.1117 0
      vertex 166.553 43.9656 0
    endloop
  endfacet
  facet normal -0.105158 0.281734 0.953713
    outer loop
      vertex 170.694 11.6597 10
      vertex 171.131 11.8228 10
      vertex 166.553 43.9656 0
    endloop
  endfacet
  facet normal -0.129735 0.277986 0.951784
    outer loop
      vertex 170.694 11.6597 10
      vertex 166.553 43.9656 0
      vertex 162.724 42.1789 0
    endloop
  endfacet
  facet normal -0.12771 0.278551 0.951893
    outer loop
      vertex 166.274 9.63355 10
      vertex 170.694 11.6597 10
      vertex 162.724 42.1789 0
    endloop
  endfacet
  facet normal -0.0371662 0.289802 0.956365
    outer loop
      vertex 166.274 9.63355 10
      vertex 162.724 42.1789 0
      vertex 157.659 41.5293 0
    endloop
  endfacet
  facet normal -0.0292871 0.291823 0.956024
    outer loop
      vertex 160.361 9.04012 10
      vertex 166.274 9.63355 10
      vertex 157.659 41.5293 0
    endloop
  endfacet
  facet normal -0.0436726 0.290575 0.955855
    outer loop
      vertex 160.361 9.04012 10
      vertex 157.659 41.5293 0
      vertex 157.531 41.5101 0
    endloop
  endfacet
  facet normal -0.0359591 0.29128 0.955962
    outer loop
      vertex 160.212 9.02164 10
      vertex 160.361 9.04012 10
      vertex 157.531 41.5101 0
    endloop
  endfacet
  facet normal -0.0500281 0.290041 0.955706
    outer loop
      vertex 160.212 9.02164 10
      vertex 157.531 41.5101 0
      vertex 153.846 40.8745 0
    endloop
  endfacet
  facet normal -0.0427612 0.291467 0.955625
    outer loop
      vertex 155.916 8.3914 10
      vertex 160.212 9.02164 10
      vertex 153.846 40.8745 0
    endloop
  endfacet
  facet normal 0.0342008 0.296044 0.954562
    outer loop
      vertex 155.916 8.3914 10
      vertex 153.846 40.8745 0
      vertex 150.589 41.2507 0
    endloop
  endfacet
  facet normal 0.0454133 0.297574 0.953618
    outer loop
      vertex 152.083 8.97638 10
      vertex 155.916 8.3914 10
      vertex 150.589 41.2507 0
    endloop
  endfacet
  facet normal 0.0218895 0.296816 0.954684
    outer loop
      vertex 152.083 8.97638 10
      vertex 150.589 41.2507 0
      vertex 150.342 41.269 0
    endloop
  endfacet
  facet normal 0.0325641 0.297255 0.954243
    outer loop
      vertex 151.791 9.00827 10
      vertex 152.083 8.97638 10
      vertex 150.342 41.269 0
    endloop
  endfacet
  facet normal 0.00955456 0.296455 0.954999
    outer loop
      vertex 151.791 9.00827 10
      vertex 150.342 41.269 0
      vertex 145.948 41.4106 0
    endloop
  endfacet
  facet normal 0.0198636 0.298106 0.954326
    outer loop
      vertex 146.634 9.35189 10
      vertex 151.791 9.00827 10
      vertex 145.948 41.4106 0
    endloop
  endfacet
  facet normal -0.0510024 0.296395 0.953703
    outer loop
      vertex 146.634 9.35189 10
      vertex 145.948 41.4106 0
      vertex 144.758 41.2058 0
    endloop
  endfacet
  facet normal -0.0434314 0.296908 0.953918
    outer loop
      vertex 145.247 9.14897 10
      vertex 146.634 9.35189 10
      vertex 144.758 41.2058 0
    endloop
  endfacet
  facet normal -0.115138 0.294212 0.94878
    outer loop
      vertex 145.247 9.14897 10
      vertex 144.758 41.2058 0
      vertex 138.417 38.7241 0
    endloop
  endfacet
  facet normal -0.111557 0.295091 0.948934
    outer loop
      vertex 145.247 9.14897 10
      vertex 138.417 38.7241 0
      vertex 137.909 6.37468 10
    endloop
  endfacet
  facet normal -0.0739031 0.295587 0.952453
    outer loop
      vertex 137.909 6.37468 10
      vertex 138.417 38.7241 0
      vertex 127.311 35.9475 0
    endloop
  endfacet
  facet normal -0.0679473 0.297654 0.952253
    outer loop
      vertex 137.909 6.37468 10
      vertex 127.311 35.9475 0
      vertex 124.995 3.42689 10
    endloop
  endfacet
  facet normal -0.0643176 0.297489 0.952556
    outer loop
      vertex 124.995 3.42689 10
      vertex 127.311 35.9475 0
      vertex 122.114 34.8239 0
    endloop
  endfacet
  facet normal -0.0574451 0.29819 0.952777
    outer loop
      vertex 124.995 3.42689 10
      vertex 122.114 34.8239 0
      vertex 118.946 2.26143 10
    endloop
  endfacet
  facet normal -0.0821285 0.299873 0.950437
    outer loop
      vertex 122.114 34.8239 0
      vertex 121.799 34.7377 0
      vertex 118.946 2.26143 10
    endloop
  endfacet
  facet normal -0.0759159 0.29952 0.951065
    outer loop
      vertex 118.946 2.26143 10
      vertex 121.799 34.7377 0
      vertex 118.58 2.16875 10
    endloop
  endfacet
  facet normal -0.100363 0.301088 0.9483
    outer loop
      vertex 118.58 2.16875 10
      vertex 121.799 34.7377 0
      vertex 115.846 32.7533 0
    endloop
  endfacet
  facet normal -0.0954363 0.301637 0.948634
    outer loop
      vertex 118.58 2.16875 10
      vertex 115.846 32.7533 0
      vertex 111.677 -0.0152283 10
    endloop
  endfacet
  facet normal -0.136375 0.304987 0.942542
    outer loop
      vertex 115.846 32.7533 0
      vertex 115.306 32.5119 0
      vertex 111.677 -0.0152283 10
    endloop
  endfacet
  facet normal -0.133373 0.304802 0.943031
    outer loop
      vertex 111.677 -0.0152283 10
      vertex 115.306 32.5119 0
      vertex 111.054 -0.288121 10
    endloop
  endfacet
  facet normal -0.17596 0.307879 0.935013
    outer loop
      vertex 115.306 32.5119 0
      vertex 112.7 31.0222 0
      vertex 111.054 -0.288121 10
    endloop
  endfacet
  facet normal -0.175821 0.30788 0.935039
    outer loop
      vertex 111.054 -0.288121 10
      vertex 112.7 31.0222 0
      vertex 108.056 -2.00015 10
    endloop
  endfacet
  facet normal -0.0720154 0.298338 0.951739
    outer loop
      vertex 112.7 31.0222 0
      vertex 109.324 30.2073 0
      vertex 108.056 -2.00015 10
    endloop
  endfacet
  facet normal -0.0653652 0.298236 0.952252
    outer loop
      vertex 108.056 -2.00015 10
      vertex 109.324 30.2073 0
      vertex 104.129 -2.86082 10
    endloop
  endfacet
  facet normal -0.00536923 0.290229 0.956942
    outer loop
      vertex 104.129 -2.86082 10
      vertex 109.324 30.2073 0
      vertex 102.571 30.0823 0
    endloop
  endfacet
  facet normal 0.00407949 0.29064 0.956824
    outer loop
      vertex 104.129 -2.86082 10
      vertex 102.571 30.0823 0
      vertex 96.2163 -2.74975 10
    endloop
  endfacet
  facet normal 0.101942 0.271739 0.956957
    outer loop
      vertex 102.571 30.0823 0
      vertex 99.7051 31.1575 0
      vertex 96.2163 -2.74975 10
    endloop
  endfacet
  facet normal 0.112897 0.270364 0.956116
    outer loop
      vertex 96.2163 -2.74975 10
      vertex 99.7051 31.1575 0
      vertex 92.814 -1.32907 10
    endloop
  endfacet
  facet normal 0.0552933 0.283015 0.95752
    outer loop
      vertex 99.7051 31.1575 0
      vertex 98.7323 31.3475 0
      vertex 92.814 -1.32907 10
    endloop
  endfacet
  facet normal 0.0659321 0.281058 0.957423
    outer loop
      vertex 92.814 -1.32907 10
      vertex 98.7323 31.3475 0
      vertex 91.6661 -1.05978 10
    endloop
  endfacet
  facet normal 0.00791893 0.293268 0.955998
    outer loop
      vertex 91.6661 -1.05978 10
      vertex 98.7323 31.3475 0
      vertex 88.5376 31.6228 0
    endloop
  endfacet
  facet normal 0.018006 0.294112 0.955601
    outer loop
      vertex 91.6661 -1.05978 10
      vertex 88.5376 31.6228 0
      vertex 79.702 -0.327316 10
    endloop
  endfacet
  facet normal 0.0636789 0.282012 0.957295
    outer loop
      vertex 88.5376 31.6228 0
      vertex 80.2299 33.4987 0
      vertex 79.702 -0.327316 10
    endloop
  endfacet
  facet normal 0.0748329 0.281632 0.9566
    outer loop
      vertex 79.702 -0.327316 10
      vertex 80.2299 33.4987 0
      vertex 69.8881 2.28033 10
    endloop
  endfacet
  facet normal 0.101068 0.272973 0.956698
    outer loop
      vertex 80.2299 33.4987 0
      vertex 76.5895 34.8466 0
      vertex 69.8881 2.28033 10
    endloop
  endfacet
  facet normal 0.111668 0.270633 0.956184
    outer loop
      vertex 69.8881 2.28033 10
      vertex 76.5895 34.8466 0
      vertex 65.5672 4.06322 10
    endloop
  endfacet
  facet normal 0.0702886 0.28534 0.955846
    outer loop
      vertex 76.5895 34.8466 0
      vertex 75.9321 35.0085 0
      vertex 65.5672 4.06322 10
    endloop
  endfacet
  facet normal 0.0808087 0.281879 0.956041
    outer loop
      vertex 65.5672 4.06322 10
      vertex 75.9321 35.0085 0
      vertex 64.7901 4.286 10
    endloop
  endfacet
  facet normal 0.0383148 0.296693 0.954204
    outer loop
      vertex 75.9321 35.0085 0
      vertex 71.5385 35.5759 0
      vertex 64.7901 4.286 10
    endloop
  endfacet
  facet normal 0.0490594 0.294441 0.95441
    outer loop
      vertex 64.7901 4.286 10
      vertex 71.5385 35.5759 0
      vertex 59.6165 5.14801 10
    endloop
  endfacet
  facet normal -0.0121199 0.316477 0.948523
    outer loop
      vertex 71.5385 35.5759 0
      vertex 70.5436 35.5378 0
      vertex 59.6165 5.14801 10
    endloop
  endfacet
  facet normal -0.00204766 0.313234 0.949674
    outer loop
      vertex 59.6165 5.14801 10
      vertex 70.5436 35.5378 0
      vertex 58.4515 5.14039 10
    endloop
  endfacet
  facet normal -0.0700156 0.336756 0.938985
    outer loop
      vertex 58.4515 5.14039 10
      vertex 70.5436 35.5378 0
      vertex 56.9171 32.7047 0
    endloop
  endfacet
  facet normal -0.0620431 0.337328 0.93934
    outer loop
      vertex 58.4515 5.14039 10
      vertex 56.9171 32.7047 0
      vertex 42.5848 2.2221 10
    endloop
  endfacet
  facet normal 0.073297 0.279591 0.957317
    outer loop
      vertex 56.9171 32.7047 0
      vertex 43 36.3531 0
      vertex 42.5848 2.2221 10
    endloop
  endfacet
  facet normal 0.0845513 0.279215 0.956499
    outer loop
      vertex 42.5848 2.2221 10
      vertex 43 36.3531 0
      vertex 26.1249 7.20646 10
    endloop
  endfacet
  facet normal 0.0333573 0.30701 0.951122
    outer loop
      vertex 43 36.3531 0
      vertex 42.1195 36.4488 0
      vertex 26.1249 7.20646 10
    endloop
  endfacet
  facet normal 0.0439044 0.301678 0.952399
    outer loop
      vertex 26.1249 7.20646 10
      vertex 42.1195 36.4488 0
      vertex 25.0887 7.35725 10
    endloop
  endfacet
  facet normal -0.0132645 0.331981 0.943193
    outer loop
      vertex 42.1195 36.4488 0
      vertex 38.729 36.3133 0
      vertex 25.0887 7.35725 10
    endloop
  endfacet
  facet normal -0.00270649 0.32757 0.944823
    outer loop
      vertex 25.0887 7.35725 10
      vertex 38.729 36.3133 0
      vertex 21.1187 7.32445 10
    endloop
  endfacet
  facet normal 0.0196871 0.315331 0.948778
    outer loop
      vertex 38.729 36.3133 0
      vertex 34.6707 36.5667 0
      vertex 21.1187 7.32445 10
    endloop
  endfacet
  facet normal 0.0304138 0.310776 0.949996
    outer loop
      vertex 21.1187 7.32445 10
      vertex 34.6707 36.5667 0
      vertex 16.3505 7.79109 10
    endloop
  endfacet
  facet normal 0.0803477 0.281172 0.956288
    outer loop
      vertex 34.6707 36.5667 0
      vertex 32.4422 37.2035 0
      vertex 16.3505 7.79109 10
    endloop
  endfacet
  facet normal 0.0902103 0.27599 0.956918
    outer loop
      vertex 16.3505 7.79109 10
      vertex 32.4422 37.2035 0
      vertex 13.7127 8.65327 10
    endloop
  endfacet
  facet normal 0.153536 0.235418 0.95969
    outer loop
      vertex 32.4422 37.2035 0
      vertex 29.7565 38.9551 0
      vertex 13.7127 8.65327 10
    endloop
  endfacet
  facet normal 0.160928 0.231425 0.95945
    outer loop
      vertex 13.7127 8.65327 10
      vertex 29.7565 38.9551 0
      vertex 10.4954 10.8905 10
    endloop
  endfacet
  facet normal 0.190038 0.211211 0.958789
    outer loop
      vertex 29.7565 38.9551 0
      vertex 27.0945 41.3503 0
      vertex 10.4954 10.8905 10
    endloop
  endfacet
  facet normal 0.195496 0.2081 0.958372
    outer loop
      vertex 10.4954 10.8905 10
      vertex 27.0945 41.3503 0
      vertex 7.28086 13.9104 10
    endloop
  endfacet
  facet normal 0.120531 0.261924 0.957532
    outer loop
      vertex 27.0945 41.3503 0
      vertex 25.4764 42.0948 0
      vertex 7.28086 13.9104 10
    endloop
  endfacet
  facet normal 0.129118 0.256504 0.95788
    outer loop
      vertex 7.28086 13.9104 10
      vertex 25.4764 42.0948 0
      vertex 5.35469 14.8799 10
    endloop
  endfacet
  facet normal 0.0414643 0.317449 0.947368
    outer loop
      vertex 25.4764 42.0948 0
      vertex 22.2167 42.5206 0
      vertex 5.35469 14.8799 10
    endloop
  endfacet
  facet normal 0.0523491 0.311346 0.948854
    outer loop
      vertex 5.35469 14.8799 10
      vertex 22.2167 42.5206 0
      vertex 1.51602 15.5254 10
    endloop
  endfacet
  facet normal 0.0171564 0.335722 0.941805
    outer loop
      vertex 22.2167 42.5206 0
      vertex 21.7449 42.5447 0
      vertex 1.51602 15.5254 10
    endloop
  endfacet
  facet normal 0.0282819 0.328265 0.944162
    outer loop
      vertex 1.51602 15.5254 10
      vertex 21.7449 42.5447 0
      vertex 0.961929 15.5731 10
    endloop
  endfacet
  facet normal -0.00983086 0.35427 0.935092
    outer loop
      vertex 21.7449 42.5447 0
      vertex 17.3448 42.4226 0
      vertex 0.961929 15.5731 10
    endloop
  endfacet
  facet normal 0.00154149 0.348198 0.93742
    outer loop
      vertex 0.961929 15.5731 10
      vertex 17.3448 42.4226 0
      vertex -4.19241 15.5959 10
    endloop
  endfacet
  facet normal 0.120258 0.26054 0.957944
    outer loop
      vertex 17.3448 42.4226 0
      vertex 16.1401 42.9787 0
      vertex -4.19241 15.5959 10
    endloop
  endfacet
  facet normal 0.128517 0.254599 0.958469
    outer loop
      vertex -4.19241 15.5959 10
      vertex 16.1401 42.9787 0
      vertex -5.62664 16.3199 10
    endloop
  endfacet
  facet normal 0.103374 0.274235 0.95609
    outer loop
      vertex 16.1401 42.9787 0
      vertex 15.7364 43.1309 0
      vertex -5.62664 16.3199 10
    endloop
  endfacet
  facet normal 0.112206 0.267535 0.956993
    outer loop
      vertex -5.62664 16.3199 10
      vertex 15.7364 43.1309 0
      vertex -6.10586 16.5209 10
    endloop
  endfacet
  facet normal 0.0855391 0.288202 0.953741
    outer loop
      vertex 15.7364 43.1309 0
      vertex 7.03864 45.7124 0
      vertex -6.10586 16.5209 10
    endloop
  endfacet
  facet normal 0.0959052 0.283662 0.954116
    outer loop
      vertex -6.10586 16.5209 10
      vertex 7.03864 45.7124 0
      vertex -16.4046 20.0029 10
    endloop
  endfacet
  facet normal 0.146125 0.240042 0.959702
    outer loop
      vertex 7.03864 45.7124 0
      vertex 4.11169 47.4942 0
      vertex -16.4046 20.0029 10
    endloop
  endfacet
  facet normal 0.153163 0.234857 0.959887
    outer loop
      vertex -16.4046 20.0029 10
      vertex 4.11169 47.4942 0
      vertex -19.9059 22.2862 10
    endloop
  endfacet
  facet normal 0.0727706 0.307092 0.948893
    outer loop
      vertex 4.11169 47.4942 0
      vertex 2.30756 47.9217 0
      vertex -19.9059 22.2862 10
    endloop
  endfacet
  facet normal 0.0828651 0.299026 0.95064
    outer loop
      vertex -19.9059 22.2862 10
      vertex 2.30756 47.9217 0
      vertex -22.0379 22.877 10
    endloop
  endfacet
  facet normal -0.226942 0.543334 0.80826
    outer loop
      vertex 2.30756 47.9217 0
      vertex 0.596695 47.2071 0
      vertex -22.0379 22.877 10
    endloop
  endfacet
  facet normal -0.218441 0.537879 0.814229
    outer loop
      vertex -22.0379 22.877 10
      vertex 0.596695 47.2071 0
      vertex -24.016 22.0737 10
    endloop
  endfacet
  facet normal -0.668474 0.406935 -0.622532
    outer loop
      vertex 0.596695 47.2071 0
      vertex -0.3674 45.6234 0
      vertex -24.016 22.0737 10
    endloop
  endfacet
  facet normal -0.64711 0.365784 -0.668918
    outer loop
      vertex -24.016 22.0737 10
      vertex -0.3674 45.6234 0
      vertex -25.0847 20.1831 10
    endloop
  endfacet
  facet normal -0.371416 -0.00409483 -0.928458
    outer loop
      vertex -0.3674 45.6234 0
      vertex -0.351439 44.1757 0
      vertex -25.0847 20.1831 10
    endloop
  endfacet
  facet normal -0.361898 -0.0154207 -0.93209
    outer loop
      vertex -0.351439 44.1757 0
      vertex -25.0096 18.4199 10
      vertex -25.0847 20.1831 10
    endloop
  endfacet
  facet normal -0.302819 -0.0788506 -0.949781
    outer loop
      vertex -0.351439 44.1757 0
      vertex 3.19153 30.5692 0
      vertex -25.0096 18.4199 10
    endloop
  endfacet
  facet normal -0.300564 -0.0842891 -0.95003
    outer loop
      vertex 3.19153 30.5692 0
      vertex -20.3252 1.71597 10
      vertex -25.0096 18.4199 10
    endloop
  endfacet
  facet normal -0.205224 -0.166965 -0.964368
    outer loop
      vertex 3.19153 30.5692 0
      vertex 4.76395 28.6365 0
      vertex -20.3252 1.71597 10
    endloop
  endfacet
  facet normal -0.207429 -0.164868 -0.964257
    outer loop
      vertex 4.76395 28.6365 0
      vertex -18.4062 -0.698399 10
      vertex -20.3252 1.71597 10
    endloop
  endfacet
  facet normal -0.117007 -0.2364 -0.964585
    outer loop
      vertex 4.76395 28.6365 0
      vertex 32.8284 14.7459 0
      vertex -18.4062 -0.698399 10
    endloop
  endfacet
  facet normal -0.120976 -0.224723 -0.966884
    outer loop
      vertex 32.8284 14.7459 0
      vertex 15.0407 -18.7039 10
      vertex -18.4062 -0.698399 10
    endloop
  endfacet
  facet normal -0.0594155 -0.256789 -0.96464
    outer loop
      vertex 32.8284 14.7459 0
      vertex 34.1737 14.4346 0
      vertex 15.0407 -18.7039 10
    endloop
  endfacet
  facet normal -0.0683527 -0.251843 -0.965351
    outer loop
      vertex 34.1737 14.4346 0
      vertex 16.6302 -19.1353 10
      vertex 15.0407 -18.7039 10
    endloop
  endfacet
  facet normal 0.00138773 -0.286154 -0.958183
    outer loop
      vertex 34.1737 14.4346 0
      vertex 92.5712 14.7178 0
      vertex 16.6302 -19.1353 10
    endloop
  endfacet
  facet normal -0.00755002 -0.267669 -0.963481
    outer loop
      vertex 92.5712 14.7178 0
      vertex 85.0902 -21.0664 10
      vertex 16.6302 -19.1353 10
    endloop
  endfacet
  facet normal 0 0 -1
    outer loop
      vertex 173.615 96.5248 0
      vertex 173.948 100.036 0
      vertex 174.352 98.226 0
    endloop
  endfacet
  facet normal 0 0 -1
    outer loop
      vertex 173.615 96.5248 0
      vertex 172.558 101.262 0
      vertex 173.948 100.036 0
    endloop
  endfacet
  facet normal 0 0 -1
    outer loop
      vertex 173.615 96.5248 0
      vertex 171.364 101.51 0
      vertex 172.558 101.262 0
    endloop
  endfacet
  facet normal 0 0 -1
    outer loop
      vertex 167.236 89.2962 0
      vertex 171.364 101.51 0
      vertex 173.615 96.5248 0
    endloop
  endfacet
  facet normal 0 0 -1
    outer loop
      vertex 166.101 88.4958 0
      vertex 171.364 101.51 0
      vertex 167.236 89.2962 0
    endloop
  endfacet
  facet normal 0 0 -1
    outer loop
      vertex 159.014 85.6609 0
      vertex 171.364 101.51 0
      vertex 166.101 88.4958 0
    endloop
  endfacet
  facet normal 0 0 -1
    outer loop
      vertex 158.103 85.4532 0
      vertex 171.364 101.51 0
      vertex 159.014 85.6609 0
    endloop
  endfacet
  facet normal 0 0 -1
    outer loop
      vertex 152.324 85.0595 0
      vertex 171.364 101.51 0
      vertex 158.103 85.4532 0
    endloop
  endfacet
  facet normal 0 0 -1
    outer loop
      vertex 147.767 83.2876 0
      vertex 171.364 101.51 0
      vertex 152.324 85.0595 0
    endloop
  endfacet
  facet normal 0 0 -1
    outer loop
      vertex 140.087 79.517 0
      vertex 171.364 101.51 0
      vertex 147.767 83.2876 0
    endloop
  endfacet
  facet normal 0 0 -1
    outer loop
      vertex 110.964 72.1346 0
      vertex 140.087 79.517 0
      vertex 139.961 79.4587 0
    endloop
  endfacet
  facet normal 0 0 -1
    outer loop
      vertex 110.964 72.1346 0
      vertex 139.961 79.4587 0
      vertex 133.608 76.6966 0
    endloop
  endfacet
  facet normal 0 0 -1
    outer loop
      vertex 127.678 73.5508 0
      vertex 133.608 76.6966 0
      vertex 128.946 73.9543 0
    endloop
  endfacet
  facet normal 0 0 -1
    outer loop
      vertex 133.608 76.6966 0
      vertex 127.678 73.5508 0
      vertex 110.964 72.1346 0
    endloop
  endfacet
  facet normal -0 0 -1
    outer loop
      vertex 140.087 79.517 0
      vertex 110.964 72.1346 0
      vertex 171.364 101.51 0
    endloop
  endfacet
  facet normal 0 0 -1
    outer loop
      vertex 64.3313 75.9814 0
      vertex 110.964 72.1346 0
      vertex 98.6611 71.0035 0
    endloop
  endfacet
  facet normal 0 0 -1
    outer loop
      vertex 91.3715 70.2865 0
      vertex 98.6611 71.0035 0
      vertex 91.8754 70.2964 0
    endloop
  endfacet
  facet normal 0 0 -1
    outer loop
      vertex 98.6611 71.0035 0
      vertex 91.3715 70.2865 0
      vertex 82.5834 70.8529 0
    endloop
  endfacet
  facet normal -0 0 -1
    outer loop
      vertex 98.6611 71.0035 0
      vertex 82.5834 70.8529 0
      vertex 64.3313 75.9814 0
    endloop
  endfacet
  facet normal 0 0 -1
    outer loop
      vertex 64.3313 75.9814 0
      vertex 82.5834 70.8529 0
      vertex 77.2723 71.2725 0
    endloop
  endfacet
  facet normal 0 0 -1
    outer loop
      vertex 68.5363 73.2903 0
      vertex 77.2723 71.2725 0
      vertex 73.2803 71.2725 0
    endloop
  endfacet
  facet normal 0 0 -1
    outer loop
      vertex 68.5363 73.2903 0
      vertex 73.2803 71.2725 0
      vertex 71.9386 71.5892 0
    endloop
  endfacet
  facet normal 0 0 -1
    outer loop
      vertex 77.2723 71.2725 0
      vertex 68.5363 73.2903 0
      vertex 68.2518 73.4526 0
    endloop
  endfacet
  facet normal 0 0 -1
    outer loop
      vertex 77.2723 71.2725 0
      vertex 68.2518 73.4526 0
      vertex 64.3313 75.9814 0
    endloop
  endfacet
  facet normal 0 0 -1
    outer loop
      vertex 110.964 72.1346 0
      vertex 64.3313 75.9814 0
      vertex 171.364 101.51 0
    endloop
  endfacet
  facet normal 0 0 -1
    outer loop
      vertex 58.738 77.1262 0
      vertex 171.364 101.51 0
      vertex 64.3313 75.9814 0
    endloop
  endfacet
  facet normal 0 0 -1
    outer loop
      vertex 45.4604 80.3634 0
      vertex 58.738 77.1262 0
      vertex 49.7591 78.3886 0
    endloop
  endfacet
  facet normal 0 0 -1
    outer loop
      vertex 45.4604 80.3634 0
      vertex 49.7591 78.3886 0
      vertex 48.8351 78.6761 0
    endloop
  endfacet
  facet normal 0 0 -1
    outer loop
      vertex 58.738 77.1262 0
      vertex 45.4604 80.3634 0
      vertex 171.364 101.51 0
    endloop
  endfacet
  facet normal 0 0 -1
    outer loop
      vertex 2.09627 101.432 0
      vertex 45.4604 80.3634 0
      vertex 37.4675 82.2599 0
    endloop
  endfacet
  facet normal 0 0 -1
    outer loop
      vertex 2.09627 101.432 0
      vertex 37.4675 82.2599 0
      vertex 31.6211 83.5125 0
    endloop
  endfacet
  facet normal 0 0 -1
    outer loop
      vertex 2.09627 101.432 0
      vertex 31.6211 83.5125 0
      vertex 27.7274 84.1408 0
    endloop
  endfacet
  facet normal 0 0 -1
    outer loop
      vertex 22.728 83.6484 0
      vertex 27.7274 84.1408 0
      vertex 23.6175 83.6267 0
    endloop
  endfacet
  facet normal 0 0 -1
    outer loop
      vertex 2.09627 101.432 0
      vertex 27.7274 84.1408 0
      vertex 22.728 83.6484 0
    endloop
  endfacet
  facet normal 0 0 -1
    outer loop
      vertex 2.09627 101.432 0
      vertex 22.728 83.6484 0
      vertex 11.7403 85.5713 0
    endloop
  endfacet
  facet normal 0 0 -1
    outer loop
      vertex -0.0128021 87.7691 0
      vertex 11.7403 85.5713 0
      vertex 3.16647 85.0275 0
    endloop
  endfacet
  facet normal 0 0 -1
    outer loop
      vertex 45.4604 80.3634 0
      vertex 2.09627 101.432 0
      vertex 171.364 101.51 0
    endloop
  endfacet
  facet normal 0 0 -1
    outer loop
      vertex -0.0128021 87.7691 0
      vertex 3.16647 85.0275 0
      vertex 0.706467 86.0602 0
    endloop
  endfacet
  facet normal 0 0 -1
    outer loop
      vertex -0.891708 98.1793 0
      vertex 11.7403 85.5713 0
      vertex -0.0128021 87.7691 0
    endloop
  endfacet
  facet normal 0 0 -1
    outer loop
      vertex 11.7403 85.5713 0
      vertex -0.891708 98.1793 0
      vertex 2.09627 101.432 0
    endloop
  endfacet
  facet normal 0 0 -1
    outer loop
      vertex 2.09627 101.432 0
      vertex -0.891708 98.1793 0
      vertex 0.333176 100.858 0
    endloop
  endfacet
  facet normal 0 0 -1
    outer loop
      vertex 0.333176 100.858 0
      vertex -0.891708 98.1793 0
      vertex -0.755936 99.3574 0
    endloop
  endfacet
  facet normal 0 0 1
    outer loop
      vertex 185.073 125.872 10
      vertex 188.3 121.8 10
      vertex 187.864 124.044 10
    endloop
  endfacet
  facet normal 0 0 1
    outer loop
      vertex 185.073 125.872 10
      vertex 187.864 124.044 10
      vertex 186.363 125.565 10
    endloop
  endfacet
  facet normal 0 0 1
    outer loop
      vertex 188.3 121.8 10
      vertex 185.073 125.872 10
      vertex 187.504 119.691 10
    endloop
  endfacet
  facet normal 0 0 1
    outer loop
      vertex 185.073 125.872 10
      vertex 180.615 110.727 10
      vertex 187.504 119.691 10
    endloop
  endfacet
  facet normal 0 0 1
    outer loop
      vertex 185.073 125.872 10
      vertex 179.389 109.735 10
      vertex 180.615 110.727 10
    endloop
  endfacet
  facet normal 0 0 1
    outer loop
      vertex 185.073 125.872 10
      vertex 171.735 106.219 10
      vertex 179.389 109.735 10
    endloop
  endfacet
  facet normal 0 0 1
    outer loop
      vertex 185.073 125.872 10
      vertex 170.752 105.962 10
      vertex 171.735 106.219 10
    endloop
  endfacet
  facet normal 0 0 1
    outer loop
      vertex 185.073 125.872 10
      vertex 164.51 105.474 10
      vertex 170.752 105.962 10
    endloop
  endfacet
  facet normal 0 0 1
    outer loop
      vertex 185.073 125.872 10
      vertex 159.589 103.277 10
      vertex 164.51 105.474 10
    endloop
  endfacet
  facet normal 0 0 1
    outer loop
      vertex 119.841 89.447 10
      vertex 159.589 103.277 10
      vertex 185.073 125.872 10
    endloop
  endfacet
  facet normal 0 0 1
    outer loop
      vertex 159.589 103.277 10
      vertex 119.841 89.447 10
      vertex 151.294 98.601 10
    endloop
  endfacet
  facet normal 0 0 1
    outer loop
      vertex 151.294 98.601 10
      vertex 119.841 89.447 10
      vertex 151.158 98.5288 10
    endloop
  endfacet
  facet normal 0 0 1
    outer loop
      vertex 151.158 98.5288 10
      vertex 119.841 89.447 10
      vertex 144.296 95.1038 10
    endloop
  endfacet
  facet normal 0 -0 1
    outer loop
      vertex 137.892 91.2029 10
      vertex 144.296 95.1038 10
      vertex 119.841 89.447 10
    endloop
  endfacet
  facet normal 0 0 1
    outer loop
      vertex 144.296 95.1038 10
      vertex 137.892 91.2029 10
      vertex 139.262 91.7033 10
    endloop
  endfacet
  facet normal -0 0 1
    outer loop
      vertex 69.4778 94.217 10
      vertex 119.841 89.447 10
      vertex 185.073 125.872 10
    endloop
  endfacet
  facet normal 0 0 1
    outer loop
      vertex 119.841 89.447 10
      vertex 69.4778 94.217 10
      vertex 106.554 88.0444 10
    endloop
  endfacet
  facet normal 0 -0 1
    outer loop
      vertex 89.1901 87.8576 10
      vertex 106.554 88.0444 10
      vertex 69.4778 94.217 10
    endloop
  endfacet
  facet normal 0 -0 1
    outer loop
      vertex 98.6812 87.1552 10
      vertex 106.554 88.0444 10
      vertex 89.1901 87.8576 10
    endloop
  endfacet
  facet normal 0 0 1
    outer loop
      vertex 106.554 88.0444 10
      vertex 98.6812 87.1552 10
      vertex 99.2254 87.1676 10
    endloop
  endfacet
  facet normal 0 0 1
    outer loop
      vertex 89.1901 87.8576 10
      vertex 69.4778 94.217 10
      vertex 83.4541 88.3779 10
    endloop
  endfacet
  facet normal -0 -0 1
    outer loop
      vertex 73.7119 91.0812 10
      vertex 83.4541 88.3779 10
      vertex 69.4778 94.217 10
    endloop
  endfacet
  facet normal -0 -0 1
    outer loop
      vertex 74.0192 90.88 10
      vertex 83.4541 88.3779 10
      vertex 73.7119 91.0812 10
    endloop
  endfacet
  facet normal 0 0 1
    outer loop
      vertex 79.1427 88.3779 10
      vertex 74.0192 90.88 10
      vertex 77.6937 88.7706 10
    endloop
  endfacet
  facet normal 0 0 1
    outer loop
      vertex 83.4541 88.3779 10
      vertex 74.0192 90.88 10
      vertex 79.1427 88.3779 10
    endloop
  endfacet
  facet normal 0 0 1
    outer loop
      vertex 185.073 125.872 10
      vertex 63.437 95.6365 10
      vertex 69.4778 94.217 10
    endloop
  endfacet
  facet normal -0 0 1
    outer loop
      vertex 49.0972 99.6507 10
      vertex 63.437 95.6365 10
      vertex 185.073 125.872 10
    endloop
  endfacet
  facet normal 0 0 1
    outer loop
      vertex 63.437 95.6365 10
      vertex 49.0972 99.6507 10
      vertex 53.7398 97.2019 10
    endloop
  endfacet
  facet normal 0 0 1
    outer loop
      vertex 53.7398 97.2019 10
      vertex 49.0972 99.6507 10
      vertex 52.7419 97.5583 10
    endloop
  endfacet
  facet normal -0 0 1
    outer loop
      vertex 2.26397 125.775 10
      vertex 49.0972 99.6507 10
      vertex 185.073 125.872 10
    endloop
  endfacet
  facet normal 0 0 1
    outer loop
      vertex 49.0972 99.6507 10
      vertex 2.26397 125.775 10
      vertex 40.4649 102.002 10
    endloop
  endfacet
  facet normal 0 0 1
    outer loop
      vertex 40.4649 102.002 10
      vertex 2.26397 125.775 10
      vertex 34.1508 103.555 10
    endloop
  endfacet
  facet normal 0 0 1
    outer loop
      vertex 29.9456 104.335 10
      vertex 24.5462 103.724 10
      vertex 25.5069 103.697 10
    endloop
  endfacet
  facet normal 0 0 1
    outer loop
      vertex 34.1508 103.555 10
      vertex 2.26397 125.775 10
      vertex 29.9456 104.335 10
    endloop
  endfacet
  facet normal 0 0 1
    outer loop
      vertex 29.9456 104.335 10
      vertex 2.26397 125.775 10
      vertex 24.5462 103.724 10
    endloop
  endfacet
  facet normal 0 0 1
    outer loop
      vertex 24.5462 103.724 10
      vertex 2.26397 125.775 10
      vertex 12.6795 106.108 10
    endloop
  endfacet
  facet normal -0 0 1
    outer loop
      vertex -0.963044 121.742 10
      vertex 12.6795 106.108 10
      vertex 2.26397 125.775 10
    endloop
  endfacet
  facet normal 0 0 1
    outer loop
      vertex 12.6795 106.108 10
      vertex -0.0138254 108.834 10
      vertex 3.41979 105.434 10
    endloop
  endfacet
  facet normal 0 0 1
    outer loop
      vertex -0.81641 123.203 10
      vertex 2.26397 125.775 10
      vertex 0.359829 125.064 10
    endloop
  endfacet
  facet normal 0 0 1
    outer loop
      vertex 3.41979 105.434 10
      vertex -0.0138254 108.834 10
      vertex 0.762983 106.715 10
    endloop
  endfacet
  facet normal 0 0 1
    outer loop
      vertex 2.26397 125.775 10
      vertex -0.81641 123.203 10
      vertex -0.963044 121.742 10
    endloop
  endfacet
  facet normal 0 0 1
    outer loop
      vertex 12.6795 106.108 10
      vertex -0.963044 121.742 10
      vertex -0.0138254 108.834 10
    endloop
  endfacet
  facet normal 0.0548856 -0.526707 0.848273
    outer loop
      vertex 98.6611 71.0035 0
      vertex 99.2254 87.1676 10
      vertex 91.8754 70.2964 0
    endloop
  endfacet
  facet normal 0.0630112 -0.526659 0.847738
    outer loop
      vertex 106.554 88.0444 10
      vertex 99.2254 87.1676 10
      vertex 98.6611 71.0035 0
    endloop
  endfacet
  facet normal 0.0479899 -0.521974 0.85161
    outer loop
      vertex 110.964 72.1346 0
      vertex 106.554 88.0444 10
      vertex 98.6611 71.0035 0
    endloop
  endfacet
  facet normal 0.0549329 -0.520394 0.852158
    outer loop
      vertex 110.964 72.1346 0
      vertex 119.841 89.447 10
      vertex 106.554 88.0444 10
    endloop
  endfacet
  facet normal 0.043754 -0.516426 0.855213
    outer loop
      vertex 127.678 73.5508 0
      vertex 119.841 89.447 10
      vertex 110.964 72.1346 0
    endloop
  endfacet
  facet normal 0.0500033 -0.514036 0.85631
    outer loop
      vertex 127.678 73.5508 0
      vertex 137.892 91.2029 10
      vertex 119.841 89.447 10
    endloop
  endfacet
  facet normal 0.178607 -0.561189 0.808187
    outer loop
      vertex 128.946 73.9543 0
      vertex 137.892 91.2029 10
      vertex 127.678 73.5508 0
    endloop
  endfacet
  facet normal 0.207955 -0.569084 0.795549
    outer loop
      vertex 139.262 91.7033 10
      vertex 137.892 91.2029 10
      vertex 128.946 73.9543 0
    endloop
  endfacet
  facet normal 0.357304 -0.607405 0.709502
    outer loop
      vertex 133.608 76.6966 0
      vertex 139.262 91.7033 10
      vertex 128.946 73.9543 0
    endloop
  endfacet
  facet normal 0.410432 -0.607692 0.679894
    outer loop
      vertex 144.296 95.1038 10
      vertex 139.262 91.7033 10
      vertex 133.608 76.6966 0
    endloop
  endfacet
  facet normal 0.24764 -0.56958 0.783743
    outer loop
      vertex 139.961 79.4587 0
      vertex 144.296 95.1038 10
      vertex 133.608 76.6966 0
    endloop
  endfacet
  facet normal 0.285064 -0.571056 0.769827
    outer loop
      vertex 151.158 98.5288 10
      vertex 144.296 95.1038 10
      vertex 139.961 79.4587 0
    endloop
  endfacet
  facet normal 0.260918 -0.564024 0.783453
    outer loop
      vertex 140.087 79.517 0
      vertex 151.158 98.5288 10
      vertex 139.961 79.4587 0
    endloop
  endfacet
  facet normal 0.306327 -0.576727 0.757331
    outer loop
      vertex 151.294 98.601 10
      vertex 151.158 98.5288 10
      vertex 140.087 79.517 0
    endloop
  endfacet
  facet normal 0.279463 -0.569266 0.773199
    outer loop
      vertex 147.767 83.2876 0
      vertex 151.294 98.601 10
      vertex 140.087 79.517 0
    endloop
  endfacet
  facet normal 0.320465 -0.568558 0.757657
    outer loop
      vertex 159.589 103.277 10
      vertex 151.294 98.601 10
      vertex 147.767 83.2876 0
    endloop
  endfacet
  facet normal 0.207276 -0.53298 0.820347
    outer loop
      vertex 152.324 85.0595 0
      vertex 159.589 103.277 10
      vertex 147.767 83.2876 0
    endloop
  endfacet
  facet normal 0.240699 -0.539061 0.807141
    outer loop
      vertex 164.51 105.474 10
      vertex 159.589 103.277 10
      vertex 152.324 85.0595 0
    endloop
  endfacet
  facet normal 0.0309627 -0.454543 0.890186
    outer loop
      vertex 158.103 85.4532 0
      vertex 164.51 105.474 10
      vertex 152.324 85.0595 0
    endloop
  endfacet
  facet normal 0.0356372 -0.455665 0.889438
    outer loop
      vertex 170.752 105.962 10
      vertex 164.51 105.474 10
      vertex 158.103 85.4532 0
    endloop
  endfacet
  facet normal 0.111865 -0.490411 0.864282
    outer loop
      vertex 159.014 85.6609 0
      vertex 170.752 105.962 10
      vertex 158.103 85.4532 0
    endloop
  endfacet
  facet normal 0.13036 -0.497748 0.857469
    outer loop
      vertex 171.735 106.219 10
      vertex 170.752 105.962 10
      vertex 159.014 85.6609 0
    endloop
  endfacet
  facet normal 0.212218 -0.530508 0.820686
    outer loop
      vertex 166.101 88.4958 0
      vertex 171.735 106.219 10
      vertex 159.014 85.6609 0
    endloop
  endfacet
  facet normal 0.245435 -0.534377 0.808828
    outer loop
      vertex 179.389 109.735 10
      vertex 171.735 106.219 10
      vertex 166.101 88.4958 0
    endloop
  endfacet
  facet normal 0.413623 -0.586611 0.696279
    outer loop
      vertex 167.236 89.2962 0
      vertex 179.389 109.735 10
      vertex 166.101 88.4958 0
    endloop
  endfacet
  facet normal 0.485627 -0.599867 0.635866
    outer loop
      vertex 180.615 110.727 10
      vertex 179.389 109.735 10
      vertex 167.236 89.2962 0
    endloop
  endfacet
  facet normal 0.692557 -0.611157 0.383214
    outer loop
      vertex 173.615 96.5248 0
      vertex 180.615 110.727 10
      vertex 167.236 89.2962 0
    endloop
  endfacet
  facet normal 0.757206 -0.581987 0.296531
    outer loop
      vertex 187.504 119.691 10
      vertex 180.615 110.727 10
      vertex 173.615 96.5248 0
    endloop
  endfacet
  facet normal 0.865138 -0.374873 -0.333177
    outer loop
      vertex 174.352 98.226 0
      vertex 187.504 119.691 10
      vertex 173.615 96.5248 0
    endloop
  endfacet
  facet normal 0.845882 -0.319229 -0.427289
    outer loop
      vertex 188.3 121.8 10
      vertex 187.504 119.691 10
      vertex 174.352 98.226 0
    endloop
  endfacet
  facet normal 0.459391 0.102459 -0.882305
    outer loop
      vertex 188.3 121.8 10
      vertex 174.352 98.226 0
      vertex 173.948 100.036 0
    endloop
  endfacet
  facet normal 0.471942 0.0916764 -0.87685
    outer loop
      vertex 187.864 124.044 10
      vertex 188.3 121.8 10
      vertex 173.948 100.036 0
    endloop
  endfacet
  facet normal 0.228252 0.258651 -0.938616
    outer loop
      vertex 187.864 124.044 10
      vertex 173.948 100.036 0
      vertex 172.558 101.262 0
    endloop
  endfacet
  facet normal 0.248028 0.244793 -0.937315
    outer loop
      vertex 186.363 125.565 10
      vertex 187.864 124.044 10
      vertex 172.558 101.262 0
    endloop
  endfacet
  facet normal 0.0713671 0.344611 -0.936029
    outer loop
      vertex 186.363 125.565 10
      vertex 172.558 101.262 0
      vertex 171.364 101.51 0
    endloop
  endfacet
  facet normal 0.080676 0.339299 -0.937212
    outer loop
      vertex 185.073 125.872 10
      vertex 186.363 125.565 10
      vertex 171.364 101.51 0
    endloop
  endfacet
  facet normal -0.0001753 0.37981 -0.925065
    outer loop
      vertex 185.073 125.872 10
      vertex 171.364 101.51 0
      vertex 2.09627 101.432 0
    endloop
  endfacet
  facet normal -0.000201349 0.379977 -0.924996
    outer loop
      vertex 2.26397 125.775 10
      vertex 185.073 125.872 10
      vertex 2.09627 101.432 0
    endloop
  endfacet
  facet normal -0.122953 0.377817 -0.91768
    outer loop
      vertex 2.26397 125.775 10
      vertex 2.09627 101.432 0
      vertex 0.333176 100.858 0
    endloop
  endfacet
  facet normal -0.141285 0.378125 -0.91491
    outer loop
      vertex 0.359829 125.064 10
      vertex 2.26397 125.775 10
      vertex 0.333176 100.858 0
    endloop
  endfacet
  facet normal -0.466035 0.338262 -0.817551
    outer loop
      vertex 0.359829 125.064 10
      vertex 0.333176 100.858 0
      vertex -0.755936 99.3574 0
    endloop
  endfacet
  facet normal -0.520552 0.32908 -0.787866
    outer loop
      vertex 0.359829 125.064 10
      vertex -0.755936 99.3574 0
      vertex -0.81641 123.203 10
    endloop
  endfacet
  facet normal -0.956877 0.110276 -0.268748
    outer loop
      vertex -0.81641 123.203 10
      vertex -0.755936 99.3574 0
      vertex -0.891708 98.1793 0
    endloop
  endfacet
  facet normal -0.96699 0.0970612 -0.235604
    outer loop
      vertex -0.81641 123.203 10
      vertex -0.891708 98.1793 0
      vertex -0.963044 121.742 10
    endloop
  endfacet
  facet normal -0.978739 -0.0826328 0.187726
    outer loop
      vertex -0.891708 98.1793 0
      vertex -0.0128021 87.7691 0
      vertex -0.963044 121.742 10
    endloop
  endfacet
  facet normal -0.985632 -0.0724773 0.15257
    outer loop
      vertex -0.0128021 87.7691 0
      vertex -0.0138254 108.834 10
      vertex -0.963044 121.742 10
    endloop
  endfacet
  facet normal -0.713736 -0.300407 0.632722
    outer loop
      vertex -0.0128021 87.7691 0
      vertex 0.706467 86.0602 0
      vertex -0.0138254 108.834 10
    endloop
  endfacet
  facet normal -0.763321 -0.279822 0.582271
    outer loop
      vertex 0.706467 86.0602 0
      vertex 0.762983 106.715 10
      vertex -0.0138254 108.834 10
    endloop
  endfacet
  facet normal -0.179786 -0.428271 0.885585
    outer loop
      vertex 3.16647 85.0275 0
      vertex 0.762983 106.715 10
      vertex 0.706467 86.0602 0
    endloop
  endfacet
  facet normal -0.206525 -0.428487 0.879628
    outer loop
      vertex 3.16647 85.0275 0
      vertex 3.41979 105.434 10
      vertex 0.762983 106.715 10
    endloop
  endfacet
  facet normal 0.0279187 -0.44015 0.89749
    outer loop
      vertex 11.7403 85.5713 0
      vertex 3.41979 105.434 10
      vertex 3.16647 85.0275 0
    endloop
  endfacet
  facet normal 0.0319519 -0.438741 0.898046
    outer loop
      vertex 11.7403 85.5713 0
      vertex 12.6795 106.108 10
      vertex 3.41979 105.434 10
    endloop
  endfacet
  facet normal -0.0759026 -0.433712 0.897849
    outer loop
      vertex 22.728 83.6484 0
      vertex 12.6795 106.108 10
      vertex 11.7403 85.5713 0
    endloop
  endfacet
  facet normal -0.0879571 -0.437742 0.894788
    outer loop
      vertex 22.728 83.6484 0
      vertex 24.5462 103.724 10
      vertex 12.6795 106.108 10
    endloop
  endfacet
  facet normal -0.0108638 -0.44505 0.89544
    outer loop
      vertex 23.6175 83.6267 0
      vertex 24.5462 103.724 10
      vertex 22.728 83.6484 0
    endloop
  endfacet
  facet normal -0.0124712 -0.444982 0.895453
    outer loop
      vertex 25.5069 103.697 10
      vertex 24.5462 103.724 10
      vertex 23.6175 83.6267 0
    endloop
  endfacet
  facet normal 0.0562215 -0.449487 0.891516
    outer loop
      vertex 27.7274 84.1408 0
      vertex 25.5069 103.697 10
      vertex 23.6175 83.6267 0
    endloop
  endfacet
  facet normal 0.0644119 -0.448522 0.891448
    outer loop
      vertex 27.7274 84.1408 0
      vertex 29.9456 104.335 10
      vertex 25.5069 103.697 10
    endloop
  endfacet
  facet normal -0.0704285 -0.436445 0.89697
    outer loop
      vertex 31.6211 83.5125 0
      vertex 29.9456 104.335 10
      vertex 27.7274 84.1408 0
    endloop
  endfacet
  facet normal -0.0809257 -0.436785 0.895919
    outer loop
      vertex 31.6211 83.5125 0
      vertex 34.1508 103.555 10
      vertex 29.9456 104.335 10
    endloop
  endfacet
  facet normal -0.0932062 -0.435058 0.895565
    outer loop
      vertex 37.4675 82.2599 0
      vertex 34.1508 103.555 10
      vertex 31.6211 83.5125 0
    endloop
  endfacet
  facet normal -0.107305 -0.436242 0.893409
    outer loop
      vertex 37.4675 82.2599 0
      vertex 40.4649 102.002 10
      vertex 34.1508 103.555 10
    endloop
  endfacet
  facet normal -0.103655 -0.436861 0.893537
    outer loop
      vertex 45.4604 80.3634 0
      vertex 40.4649 102.002 10
      vertex 37.4675 82.2599 0
    endloop
  endfacet
  facet normal -0.119625 -0.439113 0.890432
    outer loop
      vertex 45.4604 80.3634 0
      vertex 49.0972 99.6507 10
      vertex 40.4649 102.002 10
    endloop
  endfacet
  facet normal -0.209344 -0.41869 0.883671
    outer loop
      vertex 48.8351 78.6761 0
      vertex 49.0972 99.6507 10
      vertex 45.4604 80.3634 0
    endloop
  endfacet
  facet normal -0.23853 -0.415506 0.877758
    outer loop
      vertex 52.7419 97.5583 10
      vertex 49.0972 99.6507 10
      vertex 48.8351 78.6761 0
    endloop
  endfacet
  facet normal -0.137295 -0.44125 0.886819
    outer loop
      vertex 49.7591 78.3886 0
      vertex 52.7419 97.5583 10
      vertex 48.8351 78.6761 0
    endloop
  endfacet
  facet normal -0.156328 -0.437591 0.885481
    outer loop
      vertex 53.7398 97.2019 10
      vertex 52.7419 97.5583 10
      vertex 49.7591 78.3886 0
    endloop
  endfacet
  facet normal -0.0643556 -0.457731 0.886759
    outer loop
      vertex 58.738 77.1262 0
      vertex 53.7398 97.2019 10
      vertex 49.7591 78.3886 0
    endloop
  endfacet
  facet normal -0.074154 -0.459367 0.885146
    outer loop
      vertex 58.738 77.1262 0
      vertex 63.437 95.6365 10
      vertex 53.7398 97.2019 10
    endloop
  endfacet
  facet normal -0.0930922 -0.454852 0.885688
    outer loop
      vertex 64.3313 75.9814 0
      vertex 63.437 95.6365 10
      vertex 58.738 77.1262 0
    endloop
  endfacet
  facet normal -0.106853 -0.454721 0.884201
    outer loop
      vertex 64.3313 75.9814 0
      vertex 69.4778 94.217 10
      vertex 63.437 95.6365 10
    endloop
  endfacet
  facet normal -0.261976 -0.406144 0.875452
    outer loop
      vertex 68.2518 73.4526 0
      vertex 69.4778 94.217 10
      vertex 64.3313 75.9814 0
    endloop
  endfacet
  facet normal -0.296346 -0.400148 0.867214
    outer loop
      vertex 73.7119 91.0812 10
      vertex 69.4778 94.217 10
      vertex 68.2518 73.4526 0
    endloop
  endfacet
  facet normal -0.240396 -0.421535 0.874367
    outer loop
      vertex 68.5363 73.2903 0
      vertex 73.7119 91.0812 10
      vertex 68.2518 73.4526 0
    endloop
  endfacet
  facet normal -0.269237 -0.411186 0.870883
    outer loop
      vertex 74.0192 90.88 10
      vertex 73.7119 91.0812 10
      vertex 68.5363 73.2903 0
    endloop
  endfacet
  facet normal -0.215494 -0.430988 0.876248
    outer loop
      vertex 71.9386 71.5892 0
      vertex 74.0192 90.88 10
      vertex 68.5363 73.2903 0
    endloop
  endfacet
  facet normal -0.244209 -0.425397 0.871435
    outer loop
      vertex 77.6937 88.7706 10
      vertex 74.0192 90.88 10
      vertex 71.9386 71.5892 0
    endloop
  endfacet
  facet normal -0.111367 -0.47177 0.87466
    outer loop
      vertex 73.2803 71.2725 0
      vertex 77.6937 88.7706 10
      vertex 71.9386 71.5892 0
    endloop
  endfacet
  facet normal -0.126809 -0.467871 0.874652
    outer loop
      vertex 79.1427 88.3779 10
      vertex 77.6937 88.7706 10
      vertex 73.2803 71.2725 0
    endloop
  endfacet
  facet normal 0 -0.504694 0.863298
    outer loop
      vertex 79.1427 88.3779 10
      vertex 77.2723 71.2725 0
      vertex 83.4541 88.3779 10
    endloop
  endfacet
  facet normal 0 -0.504694 0.863298
    outer loop
      vertex 77.2723 71.2725 0
      vertex 79.1427 88.3779 10
      vertex 73.2803 71.2725 0
    endloop
  endfacet
  facet normal -0.0390069 -0.493766 0.868719
    outer loop
      vertex 82.5834 70.8529 0
      vertex 83.4541 88.3779 10
      vertex 77.2723 71.2725 0
    endloop
  endfacet
  facet normal -0.0447556 -0.493431 0.868633
    outer loop
      vertex 89.1901 87.8576 10
      vertex 83.4541 88.3779 10
      vertex 82.5834 70.8529 0
    endloop
  endfacet
  facet normal -0.0320564 -0.497372 0.866945
    outer loop
      vertex 91.3715 70.2865 0
      vertex 89.1901 87.8576 10
      vertex 82.5834 70.8529 0
    endloop
  endfacet
  facet normal -0.0368323 -0.497738 0.866545
    outer loop
      vertex 91.3715 70.2865 0
      vertex 98.6812 87.1552 10
      vertex 89.1901 87.8576 10
    endloop
  endfacet
  facet normal 0.0101321 -0.513161 0.858233
    outer loop
      vertex 91.8754 70.2964 0
      vertex 98.6812 87.1552 10
      vertex 91.3715 70.2865 0
    endloop
  endfacet
  facet normal 0.0116363 -0.513601 0.85795
    outer loop
      vertex 99.2254 87.1676 10
      vertex 98.6812 87.1552 10
      vertex 91.8754 70.2964 0
    endloop
  endfacet
endsolid OpenSCAD_Model
