solid OpenSCAD_Model
  facet normal 0.57735 0.187592 0.794654
    outer loop
      vertex 2.42705 0 1.76336
      vertex 1.96353 1.42658 1.76336
      vertex 0.927051 0 2.85317
    endloop
  endfacet
  facet normal 0.57735 0.187592 0.794654
    outer loop
      vertex 1.96353 1.42658 1.76336
      vertex 0.75 0.544907 2.85317
      vertex 0.927051 0 2.85317
    endloop
  endfacet
  facet normal 0.356822 0.491123 0.794654
    outer loop
      vertex 1.96353 1.42658 1.76336
      vertex 0.75 2.30826 1.76336
      vertex 0.75 0.544907 2.85317
    endloop
  endfacet
  facet normal 0.356822 0.491123 0.794654
    outer loop
      vertex 0.75 2.30826 1.76336
      vertex 0.286475 0.881678 2.85317
      vertex 0.75 0.544907 2.85317
    endloop
  endfacet
  facet normal 1.79726e-016 0.607062 0.794654
    outer loop
      vertex 0.75 2.30826 1.76336
      vertex -0.75 2.30826 1.76336
      vertex 0.286475 0.881678 2.85317
    endloop
  endfacet
  facet normal 0 0.607062 0.794654
    outer loop
      vertex -0.75 2.30826 1.76336
      vertex -0.286475 0.881678 2.85317
      vertex 0.286475 0.881678 2.85317
    endloop
  endfacet
  facet normal -0.356822 0.491123 0.794654
    outer loop
      vertex -0.75 2.30826 1.76336
      vertex -1.96353 1.42658 1.76336
      vertex -0.286475 0.881678 2.85317
    endloop
  endfacet
  facet normal -0.356822 0.491123 0.794654
    outer loop
      vertex -1.96353 1.42658 1.76336
      vertex -0.75 0.544907 2.85317
      vertex -0.286475 0.881678 2.85317
    endloop
  endfacet
  facet normal -0.57735 0.187592 0.794654
    outer loop
      vertex -1.96353 1.42658 1.76336
      vertex -2.42705 2.97218e-016 1.76336
      vertex -0.75 0.544907 2.85317
    endloop
  endfacet
  facet normal -0.57735 0.187592 0.794654
    outer loop
      vertex -2.42705 2.97218e-016 1.76336
      vertex -0.927051 1.13527e-016 2.85317
      vertex -0.75 0.544907 2.85317
    endloop
  endfacet
  facet normal -0.57735 -0.187592 0.794654
    outer loop
      vertex -2.42705 2.97218e-016 1.76336
      vertex -1.96353 -1.42658 1.76336
      vertex -0.927051 1.13527e-016 2.85317
    endloop
  endfacet
  facet normal -0.57735 -0.187592 0.794654
    outer loop
      vertex -1.96353 -1.42658 1.76336
      vertex -0.75 -0.544907 2.85317
      vertex -0.927051 1.13527e-016 2.85317
    endloop
  endfacet
  facet normal -0.356822 -0.491123 0.794654
    outer loop
      vertex -1.96353 -1.42658 1.76336
      vertex -0.75 -2.30826 1.76336
      vertex -0.75 -0.544907 2.85317
    endloop
  endfacet
  facet normal -0.356822 -0.491123 0.794654
    outer loop
      vertex -0.75 -2.30826 1.76336
      vertex -0.286475 -0.881678 2.85317
      vertex -0.75 -0.544907 2.85317
    endloop
  endfacet
  facet normal -1.79726e-016 -0.607062 0.794654
    outer loop
      vertex -0.75 -2.30826 1.76336
      vertex 0.75 -2.30826 1.76336
      vertex -0.286475 -0.881678 2.85317
    endloop
  endfacet
  facet normal 0 -0.607062 0.794654
    outer loop
      vertex 0.75 -2.30826 1.76336
      vertex 0.286475 -0.881678 2.85317
      vertex -0.286475 -0.881678 2.85317
    endloop
  endfacet
  facet normal 0.356822 -0.491123 0.794654
    outer loop
      vertex 0.75 -2.30826 1.76336
      vertex 1.96353 -1.42658 1.76336
      vertex 0.286475 -0.881678 2.85317
    endloop
  endfacet
  facet normal 0.356822 -0.491123 0.794654
    outer loop
      vertex 1.96353 -1.42658 1.76336
      vertex 0.75 -0.544907 2.85317
      vertex 0.286475 -0.881678 2.85317
    endloop
  endfacet
  facet normal 0.57735 -0.187592 0.794654
    outer loop
      vertex 1.96353 -1.42658 1.76336
      vertex 2.42705 0 1.76336
      vertex 0.75 -0.544907 2.85317
    endloop
  endfacet
  facet normal 0.57735 -0.187592 0.794654
    outer loop
      vertex 2.42705 0 1.76336
      vertex 0.927051 0 2.85317
      vertex 0.75 -0.544907 2.85317
    endloop
  endfacet
  facet normal 0.908661 0.295242 0.295242
    outer loop
      vertex 3 0 1.83691e-016
      vertex 2.42705 1.76336 1.83691e-016
      vertex 2.42705 0 1.76336
    endloop
  endfacet
  facet normal 0.908661 0.295242 0.295242
    outer loop
      vertex 2.42705 1.76336 1.83691e-016
      vertex 1.96353 1.42658 1.76336
      vertex 2.42705 0 1.76336
    endloop
  endfacet
  facet normal 0.561583 0.772953 0.295242
    outer loop
      vertex 2.42705 1.76336 1.83691e-016
      vertex 0.927051 2.85317 1.83691e-016
      vertex 1.96353 1.42658 1.76336
    endloop
  endfacet
  facet normal 0.561583 0.772953 0.295242
    outer loop
      vertex 0.927051 2.85317 1.83691e-016
      vertex 0.75 2.30826 1.76336
      vertex 1.96353 1.42658 1.76336
    endloop
  endfacet
  facet normal 2.2884e-016 0.955423 0.295242
    outer loop
      vertex 0.927051 2.85317 1.83691e-016
      vertex -0.927051 2.85317 1.83691e-016
      vertex 0.75 2.30826 1.76336
    endloop
  endfacet
  facet normal 2.80719e-016 0.955423 0.295242
    outer loop
      vertex -0.927051 2.85317 1.83691e-016
      vertex -0.75 2.30826 1.76336
      vertex 0.75 2.30826 1.76336
    endloop
  endfacet
  facet normal -0.561583 0.772953 0.295242
    outer loop
      vertex -0.927051 2.85317 1.83691e-016
      vertex -2.42705 1.76336 1.83691e-016
      vertex -0.75 2.30826 1.76336
    endloop
  endfacet
  facet normal -0.561583 0.772953 0.295242
    outer loop
      vertex -2.42705 1.76336 1.83691e-016
      vertex -1.96353 1.42658 1.76336
      vertex -0.75 2.30826 1.76336
    endloop
  endfacet
  facet normal -0.908661 0.295242 0.295242
    outer loop
      vertex -2.42705 1.76336 1.83691e-016
      vertex -3 3.67382e-016 1.83691e-016
      vertex -1.96353 1.42658 1.76336
    endloop
  endfacet
  facet normal -0.908661 0.295242 0.295242
    outer loop
      vertex -3 3.67382e-016 1.83691e-016
      vertex -2.42705 2.97218e-016 1.76336
      vertex -1.96353 1.42658 1.76336
    endloop
  endfacet
  facet normal -0.908661 -0.295242 0.295242
    outer loop
      vertex -3 3.67382e-016 1.83691e-016
      vertex -2.42705 -1.76336 1.83691e-016
      vertex -2.42705 2.97218e-016 1.76336
    endloop
  endfacet
  facet normal -0.908661 -0.295242 0.295242
    outer loop
      vertex -2.42705 -1.76336 1.83691e-016
      vertex -1.96353 -1.42658 1.76336
      vertex -2.42705 2.97218e-016 1.76336
    endloop
  endfacet
  facet normal -0.561583 -0.772953 0.295242
    outer loop
      vertex -2.42705 -1.76336 1.83691e-016
      vertex -0.927051 -2.85317 1.83691e-016
      vertex -1.96353 -1.42658 1.76336
    endloop
  endfacet
  facet normal -0.561583 -0.772953 0.295242
    outer loop
      vertex -0.927051 -2.85317 1.83691e-016
      vertex -0.75 -2.30826 1.76336
      vertex -1.96353 -1.42658 1.76336
    endloop
  endfacet
  facet normal -2.2884e-016 -0.955423 0.295242
    outer loop
      vertex -0.927051 -2.85317 1.83691e-016
      vertex 0.927051 -2.85317 1.83691e-016
      vertex -0.75 -2.30826 1.76336
    endloop
  endfacet
  facet normal -2.80719e-016 -0.955423 0.295242
    outer loop
      vertex 0.927051 -2.85317 1.83691e-016
      vertex 0.75 -2.30826 1.76336
      vertex -0.75 -2.30826 1.76336
    endloop
  endfacet
  facet normal 0.561583 -0.772953 0.295242
    outer loop
      vertex 0.927051 -2.85317 1.83691e-016
      vertex 2.42705 -1.76336 1.83691e-016
      vertex 0.75 -2.30826 1.76336
    endloop
  endfacet
  facet normal 0.561583 -0.772953 0.295242
    outer loop
      vertex 2.42705 -1.76336 1.83691e-016
      vertex 1.96353 -1.42658 1.76336
      vertex 0.75 -2.30826 1.76336
    endloop
  endfacet
  facet normal 0.908661 -0.295242 0.295242
    outer loop
      vertex 2.42705 -1.76336 1.83691e-016
      vertex 3 0 1.83691e-016
      vertex 1.96353 -1.42658 1.76336
    endloop
  endfacet
  facet normal 0.908661 -0.295242 0.295242
    outer loop
      vertex 3 0 1.83691e-016
      vertex 2.42705 0 1.76336
      vertex 1.96353 -1.42658 1.76336
    endloop
  endfacet
  facet normal 0.908661 0.295242 -0.295242
    outer loop
      vertex 2.42705 0 -1.76336
      vertex 1.96353 1.42658 -1.76336
      vertex 3 0 1.83691e-016
    endloop
  endfacet
  facet normal 0.908661 0.295242 -0.295242
    outer loop
      vertex 1.96353 1.42658 -1.76336
      vertex 2.42705 1.76336 1.83691e-016
      vertex 3 0 1.83691e-016
    endloop
  endfacet
  facet normal 0.561583 0.772953 -0.295242
    outer loop
      vertex 1.96353 1.42658 -1.76336
      vertex 0.75 2.30826 -1.76336
      vertex 2.42705 1.76336 1.83691e-016
    endloop
  endfacet
  facet normal 0.561583 0.772953 -0.295242
    outer loop
      vertex 0.75 2.30826 -1.76336
      vertex 0.927051 2.85317 1.83691e-016
      vertex 2.42705 1.76336 1.83691e-016
    endloop
  endfacet
  facet normal 2.82862e-016 0.955423 -0.295242
    outer loop
      vertex 0.75 2.30826 -1.76336
      vertex -0.75 2.30826 -1.76336
      vertex 0.927051 2.85317 1.83691e-016
    endloop
  endfacet
  facet normal 2.27107e-016 0.955423 -0.295242
    outer loop
      vertex -0.75 2.30826 -1.76336
      vertex -0.927051 2.85317 1.83691e-016
      vertex 0.927051 2.85317 1.83691e-016
    endloop
  endfacet
  facet normal -0.561583 0.772953 -0.295242
    outer loop
      vertex -0.75 2.30826 -1.76336
      vertex -1.96353 1.42658 -1.76336
      vertex -0.927051 2.85317 1.83691e-016
    endloop
  endfacet
  facet normal -0.561583 0.772953 -0.295242
    outer loop
      vertex -1.96353 1.42658 -1.76336
      vertex -2.42705 1.76336 1.83691e-016
      vertex -0.927051 2.85317 1.83691e-016
    endloop
  endfacet
  facet normal -0.908661 0.295242 -0.295242
    outer loop
      vertex -1.96353 1.42658 -1.76336
      vertex -2.42705 2.97218e-016 -1.76336
      vertex -2.42705 1.76336 1.83691e-016
    endloop
  endfacet
  facet normal -0.908661 0.295242 -0.295242
    outer loop
      vertex -2.42705 2.97218e-016 -1.76336
      vertex -3 3.67382e-016 1.83691e-016
      vertex -2.42705 1.76336 1.83691e-016
    endloop
  endfacet
  facet normal -0.908661 -0.295242 -0.295242
    outer loop
      vertex -2.42705 2.97218e-016 -1.76336
      vertex -1.96353 -1.42658 -1.76336
      vertex -3 3.67382e-016 1.83691e-016
    endloop
  endfacet
  facet normal -0.908661 -0.295242 -0.295242
    outer loop
      vertex -1.96353 -1.42658 -1.76336
      vertex -2.42705 -1.76336 1.83691e-016
      vertex -3 3.67382e-016 1.83691e-016
    endloop
  endfacet
  facet normal -0.561583 -0.772953 -0.295242
    outer loop
      vertex -1.96353 -1.42658 -1.76336
      vertex -0.75 -2.30826 -1.76336
      vertex -2.42705 -1.76336 1.83691e-016
    endloop
  endfacet
  facet normal -0.561583 -0.772953 -0.295242
    outer loop
      vertex -0.75 -2.30826 -1.76336
      vertex -0.927051 -2.85317 1.83691e-016
      vertex -2.42705 -1.76336 1.83691e-016
    endloop
  endfacet
  facet normal -2.82862e-016 -0.955423 -0.295242
    outer loop
      vertex -0.75 -2.30826 -1.76336
      vertex 0.75 -2.30826 -1.76336
      vertex -0.927051 -2.85317 1.83691e-016
    endloop
  endfacet
  facet normal -2.27107e-016 -0.955423 -0.295242
    outer loop
      vertex 0.75 -2.30826 -1.76336
      vertex 0.927051 -2.85317 1.83691e-016
      vertex -0.927051 -2.85317 1.83691e-016
    endloop
  endfacet
  facet normal 0.561583 -0.772953 -0.295242
    outer loop
      vertex 0.75 -2.30826 -1.76336
      vertex 1.96353 -1.42658 -1.76336
      vertex 0.927051 -2.85317 1.83691e-016
    endloop
  endfacet
  facet normal 0.561583 -0.772953 -0.295242
    outer loop
      vertex 1.96353 -1.42658 -1.76336
      vertex 2.42705 -1.76336 1.83691e-016
      vertex 0.927051 -2.85317 1.83691e-016
    endloop
  endfacet
  facet normal 0.908661 -0.295242 -0.295242
    outer loop
      vertex 1.96353 -1.42658 -1.76336
      vertex 2.42705 0 -1.76336
      vertex 2.42705 -1.76336 1.83691e-016
    endloop
  endfacet
  facet normal 0.908661 -0.295242 -0.295242
    outer loop
      vertex 2.42705 0 -1.76336
      vertex 3 0 1.83691e-016
      vertex 2.42705 -1.76336 1.83691e-016
    endloop
  endfacet
  facet normal 0.57735 0.187592 -0.794654
    outer loop
      vertex 0.927051 0 -2.85317
      vertex 0.75 0.544907 -2.85317
      vertex 2.42705 0 -1.76336
    endloop
  endfacet
  facet normal 0.57735 0.187592 -0.794654
    outer loop
      vertex 0.75 0.544907 -2.85317
      vertex 1.96353 1.42658 -1.76336
      vertex 2.42705 0 -1.76336
    endloop
  endfacet
  facet normal 0.356822 0.491123 -0.794654
    outer loop
      vertex 0.75 0.544907 -2.85317
      vertex 0.286475 0.881678 -2.85317
      vertex 1.96353 1.42658 -1.76336
    endloop
  endfacet
  facet normal 0.356822 0.491123 -0.794654
    outer loop
      vertex 0.286475 0.881678 -2.85317
      vertex 0.75 2.30826 -1.76336
      vertex 1.96353 1.42658 -1.76336
    endloop
  endfacet
  facet normal 1.17632e-016 0.607062 -0.794654
    outer loop
      vertex 0.286475 0.881678 -2.85317
      vertex -0.286475 0.881678 -2.85317
      vertex 0.75 2.30826 -1.76336
    endloop
  endfacet
  facet normal 2.47372e-016 0.607062 -0.794654
    outer loop
      vertex -0.286475 0.881678 -2.85317
      vertex -0.75 2.30826 -1.76336
      vertex 0.75 2.30826 -1.76336
    endloop
  endfacet
  facet normal -0.356822 0.491123 -0.794654
    outer loop
      vertex -0.286475 0.881678 -2.85317
      vertex -0.75 0.544907 -2.85317
      vertex -0.75 2.30826 -1.76336
    endloop
  endfacet
  facet normal -0.356822 0.491123 -0.794654
    outer loop
      vertex -0.75 0.544907 -2.85317
      vertex -1.96353 1.42658 -1.76336
      vertex -0.75 2.30826 -1.76336
    endloop
  endfacet
  facet normal -0.57735 0.187592 -0.794654
    outer loop
      vertex -0.75 0.544907 -2.85317
      vertex -0.927051 1.13527e-016 -2.85317
      vertex -1.96353 1.42658 -1.76336
    endloop
  endfacet
  facet normal -0.57735 0.187592 -0.794654
    outer loop
      vertex -0.927051 1.13527e-016 -2.85317
      vertex -2.42705 2.97218e-016 -1.76336
      vertex -1.96353 1.42658 -1.76336
    endloop
  endfacet
  facet normal -0.57735 -0.187592 -0.794654
    outer loop
      vertex -0.927051 1.13527e-016 -2.85317
      vertex -0.75 -0.544907 -2.85317
      vertex -2.42705 2.97218e-016 -1.76336
    endloop
  endfacet
  facet normal -0.57735 -0.187592 -0.794654
    outer loop
      vertex -0.75 -0.544907 -2.85317
      vertex -1.96353 -1.42658 -1.76336
      vertex -2.42705 2.97218e-016 -1.76336
    endloop
  endfacet
  facet normal -0.356822 -0.491123 -0.794654
    outer loop
      vertex -0.75 -0.544907 -2.85317
      vertex -0.286475 -0.881678 -2.85317
      vertex -1.96353 -1.42658 -1.76336
    endloop
  endfacet
  facet normal -0.356822 -0.491123 -0.794654
    outer loop
      vertex -0.286475 -0.881678 -2.85317
      vertex -0.75 -2.30826 -1.76336
      vertex -1.96353 -1.42658 -1.76336
    endloop
  endfacet
  facet normal -1.17632e-016 -0.607062 -0.794654
    outer loop
      vertex -0.286475 -0.881678 -2.85317
      vertex 0.286475 -0.881678 -2.85317
      vertex -0.75 -2.30826 -1.76336
    endloop
  endfacet
  facet normal -2.47372e-016 -0.607062 -0.794654
    outer loop
      vertex 0.286475 -0.881678 -2.85317
      vertex 0.75 -2.30826 -1.76336
      vertex -0.75 -2.30826 -1.76336
    endloop
  endfacet
  facet normal 0.356822 -0.491123 -0.794654
    outer loop
      vertex 0.286475 -0.881678 -2.85317
      vertex 0.75 -0.544907 -2.85317
      vertex 0.75 -2.30826 -1.76336
    endloop
  endfacet
  facet normal 0.356822 -0.491123 -0.794654
    outer loop
      vertex 0.75 -0.544907 -2.85317
      vertex 1.96353 -1.42658 -1.76336
      vertex 0.75 -2.30826 -1.76336
    endloop
  endfacet
  facet normal 0.57735 -0.187592 -0.794654
    outer loop
      vertex 0.75 -0.544907 -2.85317
      vertex 0.927051 0 -2.85317
      vertex 1.96353 -1.42658 -1.76336
    endloop
  endfacet
  facet normal 0.57735 -0.187592 -0.794654
    outer loop
      vertex 0.927051 0 -2.85317
      vertex 2.42705 0 -1.76336
      vertex 1.96353 -1.42658 -1.76336
    endloop
  endfacet
  facet normal 0 0 1
    outer loop
      vertex 0.75 0.544907 2.85317
      vertex 0.75 -0.544907 2.85317
      vertex 0.927051 0 2.85317
    endloop
  endfacet
  facet normal 0 0 1
    outer loop
      vertex 0.286474 0.881678 2.85317
      vertex 0.75 -0.544907 2.85317
      vertex 0.75 0.544907 2.85317
    endloop
  endfacet
  facet normal 0 0 1
    outer loop
      vertex 0.286474 0.881678 2.85317
      vertex 0.286474 -0.881678 2.85317
      vertex 0.75 -0.544907 2.85317
    endloop
  endfacet
  facet normal -0 0 1
    outer loop
      vertex -0.286474 0.881678 2.85317
      vertex 0.286474 -0.881678 2.85317
      vertex 0.286474 0.881678 2.85317
    endloop
  endfacet
  facet normal 0 0 1
    outer loop
      vertex -0.286474 0.881678 2.85317
      vertex -0.286474 -0.881678 2.85317
      vertex 0.286474 -0.881678 2.85317
    endloop
  endfacet
  facet normal -0 0 1
    outer loop
      vertex -0.75 0.544907 2.85317
      vertex -0.286474 -0.881678 2.85317
      vertex -0.286474 0.881678 2.85317
    endloop
  endfacet
  facet normal 0 0 1
    outer loop
      vertex -0.75 0.544907 2.85317
      vertex -0.75 -0.544907 2.85317
      vertex -0.286474 -0.881678 2.85317
    endloop
  endfacet
  facet normal 0 -0 1
    outer loop
      vertex -0.75 -0.544907 2.85317
      vertex -0.75 0.544907 2.85317
      vertex -0.927051 1.13527e-016 2.85317
    endloop
  endfacet
  facet normal 0 0 -1
    outer loop
      vertex 0.75 -0.544907 -2.85317
      vertex 0.75 0.544907 -2.85317
      vertex 0.927051 0 -2.85317
    endloop
  endfacet
  facet normal 0 0 -1
    outer loop
      vertex 0.286474 -0.881678 -2.85317
      vertex 0.75 0.544907 -2.85317
      vertex 0.75 -0.544907 -2.85317
    endloop
  endfacet
  facet normal 0 0 -1
    outer loop
      vertex 0.286474 -0.881678 -2.85317
      vertex 0.286474 0.881678 -2.85317
      vertex 0.75 0.544907 -2.85317
    endloop
  endfacet
  facet normal 0 0 -1
    outer loop
      vertex -0.286474 -0.881678 -2.85317
      vertex 0.286474 0.881678 -2.85317
      vertex 0.286474 -0.881678 -2.85317
    endloop
  endfacet
  facet normal 0 0 -1
    outer loop
      vertex -0.286474 -0.881678 -2.85317
      vertex -0.286474 0.881678 -2.85317
      vertex 0.286474 0.881678 -2.85317
    endloop
  endfacet
  facet normal 0 0 -1
    outer loop
      vertex -0.75 -0.544907 -2.85317
      vertex -0.286474 0.881678 -2.85317
      vertex -0.286474 -0.881678 -2.85317
    endloop
  endfacet
  facet normal 0 0 -1
    outer loop
      vertex -0.75 -0.544907 -2.85317
      vertex -0.75 0.544907 -2.85317
      vertex -0.286474 0.881678 -2.85317
    endloop
  endfacet
  facet normal 0 -0 -1
    outer loop
      vertex -0.75 0.544907 -2.85317
      vertex -0.75 -0.544907 -2.85317
      vertex -0.927051 1.13527e-016 -2.85317
    endloop
  endfacet
endsolid OpenSCAD_Model
