solid OpenSCAD_Model
  facet normal -1 0 0
    outer loop
      vertex 0 0 0
      vertex 0 3 3
      vertex 0 3 0
    endloop
  endfacet
  facet normal -1 -0 0
    outer loop
      vertex 0 3 3
      vertex 0 0 0
      vertex 0 0 3
    endloop
  endfacet
  facet normal -0 0 1
    outer loop
      vertex 0 3 3
      vertex 3 0 3
      vertex 3 3 3
    endloop
  endfacet
  facet normal 0 0 1
    outer loop
      vertex 3 0 3
      vertex 0 3 3
      vertex 0 0 3
    endloop
  endfacet
  facet normal 1 -0 0
    outer loop
      vertex 3 0 3
      vertex 3 3 0
      vertex 3 3 3
    endloop
  endfacet
  facet normal 1 0 0
    outer loop
      vertex 3 3 0
      vertex 3 0 3
      vertex 3 0 0
    endloop
  endfacet
  facet normal 0 0 -1
    outer loop
      vertex 0 0 0
      vertex 3 3 0
      vertex 3 0 0
    endloop
  endfacet
  facet normal -0 0 -1
    outer loop
      vertex 3 3 0
      vertex 0 0 0
      vertex 0 3 0
    endloop
  endfacet
  facet normal 0 -1 0
    outer loop
      vertex 0 0 0
      vertex 3 0 3
      vertex 0 0 3
    endloop
  endfacet
  facet normal 0 -1 -0
    outer loop
      vertex 3 0 3
      vertex 0 0 0
      vertex 3 0 0
    endloop
  endfacet
  facet normal 0 1 -0
    outer loop
      vertex 3 3 0
      vertex 0 3 3
      vertex 3 3 3
    endloop
  endfacet
  facet normal 0 1 0
    outer loop
      vertex 0 3 3
      vertex 3 3 0
      vertex 0 3 0
    endloop
  endfacet
  facet normal -1 0 0
    outer loop
      vertex 0 0 5
      vertex 0 3 8
      vertex 0 3 5
    endloop
  endfacet
  facet normal -1 -0 0
    outer loop
      vertex 0 3 8
      vertex 0 0 5
      vertex 0 0 8
    endloop
  endfacet
  facet normal -0 0 1
    outer loop
      vertex 0 3 8
      vertex 3 0 8
      vertex 3 3 8
    endloop
  endfacet
  facet normal 0 0 1
    outer loop
      vertex 3 0 8
      vertex 0 3 8
      vertex 0 0 8
    endloop
  endfacet
  facet normal 1 -0 0
    outer loop
      vertex 3 0 8
      vertex 3 3 5
      vertex 3 3 8
    endloop
  endfacet
  facet normal 1 0 0
    outer loop
      vertex 3 3 5
      vertex 3 0 8
      vertex 3 0 5
    endloop
  endfacet
  facet normal 0 1 -0
    outer loop
      vertex 3 3 5
      vertex 0 3 8
      vertex 3 3 8
    endloop
  endfacet
  facet normal 0 1 0
    outer loop
      vertex 0 3 8
      vertex 3 3 5
      vertex 0 3 5
    endloop
  endfacet
  facet normal 0 0 -1
    outer loop
      vertex 0 0 5
      vertex 3 3 5
      vertex 3 0 5
    endloop
  endfacet
  facet normal -0 0 -1
    outer loop
      vertex 3 3 5
      vertex 0 0 5
      vertex 0 3 5
    endloop
  endfacet
  facet normal 0 -1 0
    outer loop
      vertex 0 0 5
      vertex 3 0 8
      vertex 0 0 8
    endloop
  endfacet
  facet normal 0 -1 -0
    outer loop
      vertex 3 0 8
      vertex 0 0 5
      vertex 3 0 5
    endloop
  endfacet
  facet normal -1 0 0
    outer loop
      vertex 0 5 0
      vertex 0 8 3
      vertex 0 8 0
    endloop
  endfacet
  facet normal -1 -0 0
    outer loop
      vertex 0 8 3
      vertex 0 5 0
      vertex 0 5 3
    endloop
  endfacet
  facet normal -0 0 1
    outer loop
      vertex 0 8 3
      vertex 3 5 3
      vertex 3 8 3
    endloop
  endfacet
  facet normal 0 0 1
    outer loop
      vertex 3 5 3
      vertex 0 8 3
      vertex 0 5 3
    endloop
  endfacet
  facet normal 1 -0 0
    outer loop
      vertex 3 5 3
      vertex 3 8 0
      vertex 3 8 3
    endloop
  endfacet
  facet normal 1 0 0
    outer loop
      vertex 3 8 0
      vertex 3 5 3
      vertex 3 5 0
    endloop
  endfacet
  facet normal 0 0 -1
    outer loop
      vertex 0 5 0
      vertex 3 8 0
      vertex 3 5 0
    endloop
  endfacet
  facet normal -0 0 -1
    outer loop
      vertex 3 8 0
      vertex 0 5 0
      vertex 0 8 0
    endloop
  endfacet
  facet normal 0 -1 0
    outer loop
      vertex 0 5 0
      vertex 3 5 3
      vertex 0 5 3
    endloop
  endfacet
  facet normal 0 -1 -0
    outer loop
      vertex 3 5 3
      vertex 0 5 0
      vertex 3 5 0
    endloop
  endfacet
  facet normal 0 1 -0
    outer loop
      vertex 3 8 0
      vertex 0 8 3
      vertex 3 8 3
    endloop
  endfacet
  facet normal 0 1 0
    outer loop
      vertex 0 8 3
      vertex 3 8 0
      vertex 0 8 0
    endloop
  endfacet
endsolid OpenSCAD_Model
