solid OpenSCAD_Model
  facet normal 0 0 -1
    outer loop
      vertex -0.5 -0.866025 0
      vertex -0.5 0.866025 0
      vertex 1 0 0
    endloop
  endfacet
  facet normal 0 0 1
    outer loop
      vertex 1 0 3
      vertex -0.5 0.866025 3
      vertex -0.5 -0.866025 3
    endloop
  endfacet
  facet normal 0.5 0.866025 -0
    outer loop
      vertex 1 0 0
      vertex -0.5 0.866025 3
      vertex 1 0 3
    endloop
  endfacet
  facet normal 0.5 0.866025 0
    outer loop
      vertex -0.5 0.866025 3
      vertex 1 0 0
      vertex -0.5 0.866025 0
    endloop
  endfacet
  facet normal -1 0 0
    outer loop
      vertex -0.5 -0.866025 0
      vertex -0.5 0.866025 3
      vertex -0.5 0.866025 0
    endloop
  endfacet
  facet normal -1 -0 0
    outer loop
      vertex -0.5 0.866025 3
      vertex -0.5 -0.866025 0
      vertex -0.5 -0.866025 3
    endloop
  endfacet
  facet normal 0.5 -0.866025 0
    outer loop
      vertex -0.5 -0.866025 0
      vertex 1 0 3
      vertex -0.5 -0.866025 3
    endloop
  endfacet
  facet normal 0.5 -0.866025 0
    outer loop
      vertex 1 0 3
      vertex -0.5 -0.866025 0
      vertex 1 0 0
    endloop
  endfacet
endsolid OpenSCAD_Model
